<svg xmlns="http://www.w3.org/2000/svg" width="20" height="20" viewBox="0 0 20 20"><defs><filter id="a"><feColorMatrix in="SourceGraphic" values="0 0 0 0 1.000000 0 0 0 0 1.000000 0 0 0 0 1.000000 0 0 0 1.000000 0"/></filter></defs><g fill="none" fill-rule="evenodd"><circle cx="10" cy="10" r="10" fill="#ED338F"/><g filter="url(#a)"><path fill="#FFF" fill-rule="nonzero" d="M9.346 6.313l.433-.433a.466.466 0 01.662 0l3.797 3.795a.466.466 0 010 .662l-3.797 3.797a.468.468 0 01-.662 0l-.433-.434a.469.469 0 01.008-.67l2.353-2.242H6.094a.468.468 0 01-.469-.469v-.625c0-.26.209-.468.469-.468h5.613L9.354 6.983a.465.465 0 01-.008-.67z"/></g></g></svg>