<svg width="28" height="24" viewBox="0 0 28 24" xmlns="http://www.w3.org/2000/svg"><defs><filter id="a"><feColorMatrix in="SourceGraphic" values="0 0 0 0 0.654902 0 0 0 0 0.564706 0 0 0 0 0.364706 0 0 0 1.000000 0"/></filter></defs><g transform="translate(1 -6)" filter="url(#a)" fill="none" fill-rule="evenodd"><g stroke="#8C7B56" stroke-width=".5" fill="#8C7B56" fill-rule="nonzero"><path d="M22.966 14.384v-.097c.002-4.022-3.295-7.285-7.364-7.287a7.39 7.39 0 00-6.15 3.268c-2.728-.9-5.677.556-6.588 3.252a5.095 5.095 0 00-.268 1.624v.11c-1.853.477-2.965 2.348-2.484 4.18A3.46 3.46 0 003.463 22h7.773a.43.43 0 00.433-.428.431.431 0 00-.433-.429H3.463C2.027 21.135.87 19.977.878 18.557a2.58 2.58 0 012.231-2.53.43.43 0 00.374-.461 5.005 5.005 0 01-.02-.422c.003-2.369 1.949-4.287 4.345-4.284a4.35 4.35 0 011.656.327.436.436 0 00.54-.177c1.827-3.055 5.814-4.066 8.904-2.259a6.413 6.413 0 013.191 5.536c0 .142-.004.28-.015.418a.43.43 0 00.38.462c1.664.204 2.845 1.701 2.639 3.345-.188 1.5-1.475 2.627-3.004 2.631-.13 0-.26-.007-.39-.023a.384.384 0 00-.183.023h-6.81a.431.431 0 00-.433.429.43.43 0 00.433.428h6.95a.371.371 0 00.098-.013c.11.009.222.013.335.013C24.254 22 26 20.274 26 18.144c0-1.8-1.259-3.36-3.034-3.76z"/><path d="M16.284 24.608l-2.862 2.92V15.432A.427.427 0 0013 15a.427.427 0 00-.422.431v12.098l-2.862-2.921a.416.416 0 00-.597.01.437.437 0 000 .599l3.582 3.657a.416.416 0 00.598 0l3.582-3.657a.437.437 0 00-.01-.61.416.416 0 00-.587 0z"/></g></g></svg>