<svg width="20" height="20" viewBox="0 0 20 20" xmlns="http://www.w3.org/2000/svg" xmlns:xlink="http://www.w3.org/1999/xlink"><defs><filter id="a"><feColorMatrix in="SourceGraphic" values="0 0 0 0 1.000000 0 0 0 0 1.000000 0 0 0 0 1.000000 0 0 0 1.000000 0"/></filter><path d="M4.346 1.313L4.779.88a.467.467 0 01.662 0l3.797 3.795a.467.467 0 010 .662L5.441 9.134a.467.467 0 01-.662 0L4.346 8.7a.47.47 0 01.008-.67l2.353-2.242H1.094a.468.468 0 01-.469-.469v-.625c0-.26.209-.468.469-.468h5.613L4.354 1.983a.466.466 0 01-.008-.67z" id="b"/></defs><g fill="none" fill-rule="evenodd"><circle fill="#8fd451" cx="10" cy="10" r="10"/><g transform="translate(5 5)" filter="url(#a)"><use fill="#FFF" fill-rule="nonzero" xlink:href="#b"/></g></g></svg>