<svg xmlns="http://www.w3.org/2000/svg" width="26" height="22" viewBox="0 0 26 22"><defs><filter id="a"><feColorMatrix in="SourceGraphic" values="0 0 0 0 1.000000 0 0 0 0 1.000000 0 0 0 0 1.000000 0 0 0 1.000000 0"/></filter></defs><g filter="url(#a)" transform="translate(-21 -7)" fill="none" fill-rule="evenodd"><g fill="#000" fill-rule="nonzero"><path d="M43.966 14.384v-.097c.002-4.022-3.295-7.285-7.364-7.287a7.39 7.39 0 00-6.15 3.268c-2.728-.9-5.677.556-6.588 3.252a5.1 5.1 0 00-.268 1.624v.11c-1.853.477-2.965 2.348-2.484 4.18A3.46 3.46 0 0024.463 22h7.773a.43.43 0 00.433-.428.431.431 0 00-.433-.429h-7.773c-1.436-.008-2.593-1.166-2.585-2.586a2.582 2.582 0 012.231-2.53.428.428 0 00.374-.461 4.888 4.888 0 01-.02-.422c.003-2.369 1.949-4.287 4.345-4.284a4.35 4.35 0 011.656.327c.2.081.429.006.54-.177 1.826-3.055 5.813-4.066 8.903-2.259a6.411 6.411 0 013.176 5.954.43.43 0 00.38.462c1.664.204 2.845 1.701 2.639 3.345-.188 1.5-1.475 2.627-3.004 2.631-.13 0-.26-.007-.39-.023a.38.38 0 00-.183.023h-6.81a.43.43 0 00-.433.429.43.43 0 00.433.428h6.95a.406.406 0 00.098-.013c.11.009.222.013.335.013C45.254 22 47 20.274 47 18.144c0-1.8-1.259-3.36-3.034-3.76z"/><path d="M37.284 24.608l-2.862 2.92V15.432a.427.427 0 00-.422-.431.427.427 0 00-.422.431V27.53l-2.862-2.921a.416.416 0 00-.597.01.436.436 0 000 .599l3.582 3.657a.418.418 0 00.598 0l3.582-3.657a.438.438 0 00-.01-.61.419.419 0 00-.587 0z"/></g></g></svg>