<svg xmlns="http://www.w3.org/2000/svg" width="25" height="25" viewBox="0 0 25 25"><path fill="#FFF" d="M12.5 0C7.22 0 0 3.991 0 12.5 0 20.792 6.944 25 12.5 25 22.032 25 25 16.649 25 12.5 25 6.378 20.315 0 12.5 0zM9.601 1.176C8.297 2.288 7.215 4.13 6.516 6.412A11.598 11.598 0 014.04 4.439a11.716 11.716 0 015.561-3.263zM3.504 5.04a12.262 12.262 0 002.79 2.176 21.138 21.138 0 00-.64 4.881H.818A11.633 11.633 0 013.504 5.04zm0 14.922a11.62 11.62 0 01-2.687-7.058h4.838c.03 1.742.255 3.39.64 4.881a12.567 12.567 0 00-2.791 2.176zm.536.605a11.598 11.598 0 012.476-1.973c.699 2.278 1.781 4.124 3.085 5.236a11.797 11.797 0 01-5.56-3.263zm8.056 3.597C10 23.898 8.194 21.555 7.22 18.2a11.763 11.763 0 014.877-1.255v7.22zm0-8.021a12.53 12.53 0 00-5.083 1.264 21.045 21.045 0 01-.556-4.502h5.64v3.238zm0-4.046h-5.64c.03-1.604.227-3.125.557-4.502a12.57 12.57 0 005.083 1.264v3.238zm0-4.04a11.672 11.672 0 01-4.877-1.255C8.194 3.44 10 1.102 12.096.837v7.22zm9.4-3.017a11.645 11.645 0 012.687 7.057H19.35a21.109 21.109 0 00-.64-4.881 12.426 12.426 0 002.786-2.176zm-.536-.605a11.598 11.598 0 01-2.476 1.973c-.699-2.278-1.781-4.119-3.085-5.236a11.797 11.797 0 015.56 3.263zM12.904.837C15 1.102 16.806 3.445 17.78 6.8a11.744 11.744 0 01-4.877 1.255V.836zm0 8.021a12.53 12.53 0 005.083-1.264c.33 1.377.527 2.898.556 4.502h-5.64V8.858zm0 4.046h5.64a21.108 21.108 0 01-.557 4.502 12.37 12.37 0 00-5.083-1.264v-3.238zm0 11.26v-7.22c1.712.059 3.37.492 4.877 1.255-.975 3.361-2.781 5.699-4.877 5.964zm2.495-.34c1.304-1.112 2.386-2.953 3.085-5.236.906.536 1.737 1.2 2.476 1.973a11.716 11.716 0 01-5.561 3.263zm6.097-3.863a12.489 12.489 0 00-2.785-2.176c.383-1.49.61-3.144.64-4.881h4.832a11.645 11.645 0 01-2.687 7.057z"/></svg>