<svg width="28" height="24" viewBox="0 0 28 24" xmlns="http://www.w3.org/2000/svg"><g fill="#8FD451" stroke="#8FD451"><path d="M23.966 8.384v-.097c.002-4.022-3.295-7.285-7.364-7.287a7.39 7.39 0 00-6.15 3.268c-2.728-.9-5.677.556-6.588 3.252a5.095 5.095 0 00-.268 1.624v.11c-1.853.477-2.965 2.348-2.484 4.18A3.46 3.46 0 004.463 16h7.773a.43.43 0 00.433-.428.431.431 0 00-.433-.429H4.463c-1.436-.008-2.593-1.166-2.585-2.586a2.58 2.58 0 012.231-2.53.43.43 0 00.374-.461 5.005 5.005 0 01-.02-.422c.003-2.369 1.949-4.287 4.345-4.284a4.35 4.35 0 011.656.327.436.436 0 00.54-.177c1.827-3.055 5.814-4.066 8.904-2.259A6.413 6.413 0 0123.1 8.287c0 .142-.004.28-.015.418a.43.43 0 00.38.462c1.664.204 2.845 1.701 2.639 3.345-.188 1.5-1.475 2.627-3.004 2.631-.13 0-.26-.007-.39-.023a.384.384 0 00-.183.023h-6.81a.431.431 0 00-.433.429.43.43 0 00.433.428h6.95a.371.371 0 00.098-.013c.11.009.222.013.335.013 2.154 0 3.9-1.726 3.9-3.856 0-1.8-1.259-3.36-3.034-3.76z"/><path d="M17.284 18.608l-2.862 2.92V9.432A.427.427 0 0014 9a.427.427 0 00-.422.431v12.098l-2.862-2.921a.416.416 0 00-.597.01.437.437 0 000 .599l3.582 3.657a.416.416 0 00.598 0l3.582-3.657a.437.437 0 00-.01-.61.416.416 0 00-.587 0z"/></g></svg>