<svg xmlns="http://www.w3.org/2000/svg" width="57" height="54" viewBox="0 0 57 54"><defs><filter id="a"><feColorMatrix in="SourceGraphic" values="0 0 0 0 0.466667 0 0 0 0 0.466667 0 0 0 0 0.466667 0 0 0 1.000000 0"/></filter></defs><g fill="none" fill-rule="evenodd" filter="url(#a)" transform="translate(-1298 -1864)"><g fill="#000" fill-rule="nonzero"><path d="M1345.964 1893.257v21.387c0 .928-.754 1.683-1.68 1.683h-1.296a.836.836 0 000 1.673h1.295a3.357 3.357 0 003.351-3.356v-19.646l1.7 1.772c.768.8 2.042.814 2.826.028l2.265-2.268a1.994 1.994 0 00.027-2.774l-25.7-26.795a3.12 3.12 0 00-4.504 0l-25.7 26.795a1.994 1.994 0 00.027 2.774l2.265 2.268a1.976 1.976 0 002.826-.028l1.7-1.772v4.063a.835.835 0 101.67 0v-5.804l18.83-19.631a.878.878 0 011.269 0c15.005 15.644 12.035 12.548 18.83 19.63zm7.28.09l-2.265 2.269c-.148.122-.295.12-.44-.005l-22.2-23.144-.003-.003a2.545 2.545 0 00-3.675.003l-19.062 19.874-.002.001-3.135 3.27c-.146.124-.293.126-.441.003l-2.265-2.268a.31.31 0 01-.004-.432l25.7-26.795a1.45 1.45 0 012.095 0l25.7 26.795a.31.31 0 01-.003.432z"/><path d="M1339.178 1916.307h-4.876v-9.583c0-4.26-3.365-7.724-7.5-7.724-4.136 0-7.501 3.465-7.501 7.724v9.583h-10.003c-.912 0-1.654-.764-1.654-1.703v-11.82a.835.835 0 00-.822-.847.835.835 0 00-.822.847v11.82c0 1.872 1.48 3.396 3.298 3.396h29.88a.834.834 0 00.822-.846.835.835 0 00-.822-.847zm-18.233-9.583c0-3.326 2.627-6.031 5.856-6.031 3.23 0 5.857 2.705 5.857 6.03v9.584h-11.713v-9.583z"/></g></g></svg>