<svg xmlns="http://www.w3.org/2000/svg" width="50" height="35" viewBox="0 0 50 35"><defs><filter id="a"><feColorMatrix in="SourceGraphic" values="0 0 0 0 0.466667 0 0 0 0 0.466667 0 0 0 0 0.466667 0 0 0 1.000000 0"/></filter></defs><g fill="none" fill-rule="evenodd" filter="url(#a)" transform="translate(-1302 -2187)"><path fill="#000" fill-rule="nonzero" d="M1349.5 2187h-45a2.5 2.5 0 00-2.5 2.5v30a2.502 2.502 0 002.5 2.5h45c.802 0 1.554-.385 2.024-1.035.31-.425.477-.938.476-1.465v-30a2.5 2.5 0 00-2.5-2.5zm-45.833 32.023v-26.543l17.179 13.27-17.18 13.273zm1.029 1.31l17.512-13.53 3.265 2.52c.9.695 2.155.695 3.055 0l3.264-2.52 17.512 13.53h-44.608zm45.637-1.31l-17.179-13.273 17.18-13.27v26.543zm0-28.649l-22.824 17.63a.831.831 0 01-1.018 0l-22.824-17.63v-.874c0-.46.373-.833.833-.833h45c.46 0 .833.373.833.833v.874z"/></g></svg>