<svg xmlns="http://www.w3.org/2000/svg" width="36" height="54" viewBox="0 0 36 54"><g fill="#bebebe"><circle cx="18.5" cy="3.592" r="1"/><path d="M32.087.092H3.913C1.755.092 0 1.834 0 3.974v45.237c0 2.14 1.755 3.881 3.913 3.881h28.174c2.158 0 3.913-1.74 3.913-3.881V3.974c0-2.14-1.755-3.882-3.913-3.882zm2.348 49.119a2.342 2.342 0 01-2.348 2.329H3.913a2.342 2.342 0 01-2.348-2.33V3.975a2.342 2.342 0 012.348-2.329h28.174a2.342 2.342 0 012.348 2.33V49.21z"/><path d="M21.643 45.092h-6.286c-1.3 0-2.357.898-2.357 2 0 1.103 1.057 2 2.357 2h6.286c1.3 0 2.357-.897 2.357-2 0-1.102-1.057-2-2.357-2zm0 2.667h-6.286c-.433 0-.786-.299-.786-.667 0-.367.353-.666.786-.666h6.286c.433 0 .786.299.786.666 0 .368-.353.667-.786.667zM32.21 3.092h-9.744c-.21 0-.41.083-.558.23L19.676 5.54A2.37 2.37 0 0118 6.23a2.36 2.36 0 01-1.673-.69l-2.235-2.218a.793.793 0 00-.558-.23H3.79a.787.787 0 00-.789.785v18.147c0 .433.353.784.79.784a.786.786 0 00.789-.784V4.66h8.628s1.916 1.903 2.008 1.986l-.004.004a3.937 3.937 0 002.789 1.148c1.05 0 2.042-.407 2.791-1.149l2.002-1.989h8.628v37.863H4.58V25.16a.787.787 0 00-.79-.784.786.786 0 00-.789.784v18.147c0 .433.353.784.79.784h28.42c.437 0 .79-.35.79-.784V3.877a.787.787 0 00-.79-.785z"/></g></svg>