<svg xmlns="http://www.w3.org/2000/svg" width="44" height="43" viewBox="0 0 44 43"><g fill="none" fill-rule="evenodd"><path stroke="#D9D9D9" d="M-23-14h390v70H-23z"/><g fill="#000111" fill-rule="nonzero"><path d="M1.411 33.109h40.846V9.149H1.411v23.96zM43.67 34.52H0V7.746h43.669V34.52z"/><path d="M14.084 11.971H4.226v-1.407h9.858v1.407zm0 9.863H4.226v-1.411h9.858v1.411zm0 9.859H4.226v-1.407h9.858v1.407zm-9.858-1.407H2.819v-8.452h1.407v8.452zm0-9.863H2.819v-8.452h1.407v8.452zm11.27 0h-1.412v-8.452h1.412v8.452zm0 9.863h-1.412v-8.452h1.412v8.452zm3.511-1.412a.706.706 0 100 1.412.706.706 0 000-1.412zm0 2.82a2.115 2.115 0 01-1.494-3.608 2.114 2.114 0 013.607 1.494 2.117 2.117 0 01-2.113 2.113zm14.799-19.723h-9.859v-1.407h9.859v1.407zm0 9.863h-9.859v-1.411h9.859v1.411zm0 9.859h-9.859v-1.407h9.859v1.407zm-9.859-1.407h-1.411v-8.452h1.411v8.452zm0-9.863h-1.411v-8.452h1.411v8.452zm11.266 0h-1.407v-8.452h1.407v8.452zm0 9.863h-1.407v-8.452h1.407v8.452zm3.524-1.412a.705.705 0 100 1.41.705.705 0 000-1.41zm0 2.82a2.114 2.114 0 112.113-2.114 2.117 2.117 0 01-2.113 2.113zM4.226 35.919h1.411v-1.407H4.226v1.407zm2.818 1.407H2.82v-4.217h4.225v4.226-.01z"/><path d="M5.633 42.257H4.226v-5.632h1.407v5.632zm4.226-6.338h1.407v-1.407H9.859v1.407zm2.814 1.407H8.447v-4.217h4.226v4.226-.01z"/><path d="M11.27 42.257H9.859v-5.632h1.411v5.632zm4.226-6.338h1.407v-1.407h-1.407v1.407zm2.818 1.407H14.09v-4.217h4.225v4.226-.01z"/><path d="M16.903 42.257h-1.407v-5.632h1.407v5.632zm4.226-6.338h1.411v-1.407h-1.41v1.407zm2.818 1.407h-4.225v-4.217h4.225v4.226-.01z"/><path d="M22.536 42.257h-1.407v-5.632h1.407v5.632zm4.23-6.338h1.39v-1.407h-1.39v1.407zm2.814 1.407h-4.226v-4.217h4.226v4.226-.01z"/><path d="M28.173 42.257h-1.411v-5.632h1.411v5.632zm4.226-6.338h1.42v-1.407h-1.42v1.407zm2.818 1.407h-4.225v-4.217h4.225v4.226-.01z"/><path d="M33.806 42.257h-1.407v-5.632h1.407v5.632zm4.226-6.338h1.411v-1.407h-1.411v1.407zm2.818 1.407h-4.225v-4.217h4.225v4.226-.01z"/><path d="M39.439 42.257h-1.407v-5.632h1.407v5.632zM4.226 7.746h1.411V6.339H4.226v1.407zm2.818 1.403H2.82V4.923h4.225v4.226z"/><path d="M5.633 5.633H4.226V0h1.407v5.633zm4.226 2.113h1.407V6.339H9.859v1.407zm2.818 1.403H8.451V4.923h4.226v4.226z"/><path d="M11.27 5.633H9.859V0h1.411v5.633zm4.226 2.113h1.407V6.339h-1.407v1.407zm2.818 1.403H14.09V4.923h4.225v4.226z"/><path d="M16.903 5.633h-1.407V0h1.407v5.633zm4.226 2.113h1.411V6.339h-1.41v1.407zm2.818 1.403h-4.225V4.923h4.225v4.226z"/><path d="M22.536 5.633h-1.407V0h1.407v5.633zm4.23 2.113h1.39V6.339h-1.39v1.407zm2.814 1.403h-4.226V4.923h4.226v4.226z"/><path d="M28.173 5.633h-1.411V0h1.411v5.633zm4.226 2.113h1.42V6.339h-1.42v1.407zm2.818 1.403h-4.225V4.923h4.225v4.226z"/><path d="M33.806 5.633h-1.407V0h1.407v5.633zm4.226 2.113h1.411V6.339h-1.411v1.407zm2.818 1.403h-4.225V4.923h4.225v4.226z"/><path d="M39.439 5.633h-1.407V0h1.407v5.633z"/></g></g></svg>