<svg xmlns="http://www.w3.org/2000/svg" width="44" height="32" viewBox="0 0 44 32"><defs><filter id="a"><feColorMatrix in="SourceGraphic" values="0 0 0 0 0.066667 0 0 0 0 0.066667 0 0 0 0 0.066667 0 0 0 1.000000 0"/></filter><filter id="b"><feColorMatrix in="SourceGraphic" values="0 0 0 0 0.066667 0 0 0 0 0.066667 0 0 0 0 0.066667 0 0 0 1.000000 0"/></filter></defs><g fill="none" fill-rule="evenodd"><path stroke="#D9D9D9" d="M-16-19h390v70H-16z"/><g filter="url(#a)" transform="translate(-16 -19)"><g filter="url(#b)" transform="translate(16 19)"><g fill="#121617" fill-rule="nonzero"><path d="M42.3 27.674l1.31-2.655a.724.724 0 000-.645L42.3 21.72l1.31-2.655a.724.724 0 000-.645l-1.31-2.655 1.31-2.655a.724.724 0 000-.645L42.3 9.81l1.31-2.655a.724.724 0 000-.645L42.3 3.854l1.31-2.655a.736.736 0 00-.035-.713.758.758 0 00-.622-.346H1.111a.734.734 0 00-.661.918l1.31 2.655-1.309 2.69a.718.718 0 000 .645L1.76 9.703l-1.309 2.69a.716.716 0 000 .644l1.309 2.655-1.309 2.655a.718.718 0 000 .645l1.309 2.655-1.309 2.655a.718.718 0 000 .645l1.309 2.655-1.309 2.656a.731.731 0 00.657 1.058h41.849c.406 0 .736-.33.736-.736a.715.715 0 00-.125-.406l-1.267-2.59v.09zm-1.475-17.637l1.309 2.655-1.309 2.655a.718.718 0 000 .645l1.309 2.655-1.309 2.655a.726.726 0 000 .649l1.309 2.655-1.309 2.655a.726.726 0 000 .649l.948 1.938H2.291l.948-1.938a.758.758 0 000-.645l-1.308-2.58 1.308-2.655a.756.756 0 000-.644L1.931 18.73l1.308-2.655a.758.758 0 000-.645l-1.308-2.655 1.308-2.655a.758.758 0 000-.645L1.931 6.82l1.308-2.655a.76.76 0 000-.649l-.948-1.938h39.482l-.948 1.938a.718.718 0 000 .645l1.309 2.655-1.309 2.655a.718.718 0 000 .645v-.08z"/><path d="M5.932 4.582a.758.758 0 00.524-.212.734.734 0 00.22-.725.736.736 0 00-1.259-.315.733.733 0 00.515 1.252zm2.928 0a.732.732 0 00.52-1.252.76.76 0 00-1.039 0 .732.732 0 00.52 1.252zm2.929 0a.764.764 0 00.52-.212.736.736 0 000-1.04.76.76 0 00-1.04 0 .734.734 0 00.52 1.252zm2.928 0a.734.734 0 00.527-1.263.757.757 0 00-1.039 0 .73.73 0 00.512 1.263zm2.929 0a.732.732 0 00.53-.221.73.73 0 00.202-.538.728.728 0 00-.217-.52.76.76 0 00-1.035 0 .733.733 0 000 1.04c.14.135.326.21.52.213v.026zm2.928 0a.739.739 0 00.516-.212.736.736 0 000-1.04.76.76 0 00-1.04 0 .76.76 0 000 1.04.762.762 0 00.524.212zm2.928 0a.737.737 0 00.516-.212.759.759 0 000-1.04.737.737 0 10-1.04 1.04.764.764 0 00.524.212zm2.925 0a.764.764 0 00.52-.212.736.736 0 00-.001-1.04.758.758 0 00-1.035 0 .733.733 0 00.516 1.252zm2.928 0a.732.732 0 00.52-1.251.759.759 0 00-1.04 0 .733.733 0 00.52 1.251zm2.928 0a.764.764 0 00.52-.212.736.736 0 10-1.04-1.04.734.734 0 00.52 1.252zm2.925 0a.726.726 0 00.735-.759.755.755 0 00-.212-.52.76.76 0 00-1.04 0 .733.733 0 00.517 1.253v.026zm2.932 0a.73.73 0 00.53-.221.73.73 0 00.202-.538.732.732 0 00-.216-.52.76.76 0 00-1.04 0 .738.738 0 00.524 1.253v.026zM3.91 6.27a.734.734 0 00.001 1.04.734.734 0 001.035-1.04.758.758 0 00-1.035 0zm2.925 0a.76.76 0 000 1.04c.14.135.328.21.524.212a.732.732 0 00.515-1.252.757.757 0 00-1.039 0zm2.928 0a.76.76 0 000 1.04.76.76 0 001.04 0 .736.736 0 000-1.04.759.759 0 00-1.04 0zm2.929 0a.73.73 0 000 1.04.737.737 0 001.035-1.04.759.759 0 00-1.04 0h.005zm2.932 0a.726.726 0 000 1.04.73.73 0 001.224-.334.735.735 0 00-.192-.706.76.76 0 00-1.036 0h.004zm2.924 0a.734.734 0 101.036 1.039.726.726 0 000-1.039.76.76 0 00-1.036 0zm2.929 0a.735.735 0 101.09.987.735.735 0 00-1.09-.987zm2.928 0a.737.737 0 00.517 1.259.735.735 0 00.518-1.259.758.758 0 00-1.035 0zm2.925 0a.735.735 0 001.039 1.039.732.732 0 000-1.039.759.759 0 00-1.04 0zm2.928 0a.735.735 0 001.039 1.039.732.732 0 000-1.039.759.759 0 00-1.04 0zm2.928 0a.732.732 0 101.039 0 .759.759 0 00-1.04 0zm2.921 0a.731.731 0 00.523 1.252.734.734 0 00.516-1.252.759.759 0 00-1.04 0zm2.935 0a.734.734 0 101.036 0 .76.76 0 00-1.036 0zm-33.11 4.203a.764.764 0 00.524-.201.733.733 0 00.22-.725.736.736 0 00-1.259-.315.733.733 0 00.515 1.252v-.011zm2.928 0a.731.731 0 00.52-.201.733.733 0 000-1.04.758.758 0 00-1.035 0 .734.734 0 00.516 1.252v-.011zm2.929 0a.76.76 0 00.52-.201.736.736 0 000-1.04.76.76 0 00-1.04 0 .734.734 0 00.52 1.252v-.011zm2.932 0a.74.74 0 00.523-.201.759.759 0 000-1.04.76.76 0 00-1.039 0 .735.735 0 00.524 1.253l-.008-.012zm2.925 0a.732.732 0 00.515-1.252.758.758 0 00-1.035 0 .731.731 0 00.52 1.252zm2.928 0a.744.744 0 00.516-.201.736.736 0 000-1.04.76.76 0 00-1.04 0 .76.76 0 000 1.04.762.762 0 00.524.212v-.011zm3.444-1.252a.759.759 0 00-1.04 0 .76.76 0 000 1.04.764.764 0 00.524.212.74.74 0 00.516-.201.759.759 0 000-1.04v-.011zm2.409 1.252a.76.76 0 00.52-.201.736.736 0 00-.001-1.04.758.758 0 00-1.035 0 .733.733 0 00.516 1.252v-.011zm2.928 0a.76.76 0 00.52-.201.736.736 0 00-.001-1.04.76.76 0 00-1.039 0 .734.734 0 00.52 1.252v-.011zm2.928 0a.76.76 0 00.52-.213.734.734 0 00.22-.724.734.734 0 00-1.26-.315.734.734 0 00.52 1.252zm2.925 0a.725.725 0 00.735-.732.755.755 0 00-.212-.52.759.759 0 00-1.04 0 .731.731 0 00.517 1.252zm2.932 0a.732.732 0 00.516-1.252.76.76 0 00-1.036 0 .732.732 0 00.52 1.252zM3.91 12.168a.736.736 0 00.001 1.04.734.734 0 001.036-1.04.76.76 0 00-1.036 0zm2.929 0a.722.722 0 00-.216.52.732.732 0 001.251.52.733.733 0 000-1.04.758.758 0 00-1.035 0zm2.924 0a.76.76 0 000 1.04.738.738 0 001.261-.315.74.74 0 00-.221-.725.76.76 0 00-1.04 0zm2.929 0a.733.733 0 000 1.04.732.732 0 001.039 0 .759.759 0 00-.004-1.04.76.76 0 00-1.04 0h.005zm2.932 0a.734.734 0 00.516 1.252.733.733 0 00.516-1.252.759.759 0 00-1.032 0zm2.924 0a.741.741 0 101.203.808.742.742 0 00-.167-.808.76.76 0 00-1.036 0zm2.929 0a.736.736 0 101.039 1.04.734.734 0 00.22-.725.734.734 0 00-1.259-.315zm2.928 0a.735.735 0 001.039 1.04.759.759 0 000-1.04.76.76 0 00-1.04 0zm2.925 0a.759.759 0 000 1.04.735.735 0 101.039-1.04.76.76 0 00-1.04 0zm3.466 1.26a.738.738 0 00.501-1.26.76.76 0 00-1.04 0 .738.738 0 00.54 1.26zm2.39-1.26a.732.732 0 101.024 0 .76.76 0 00-1.04 0h.016zm2.921 0a.737.737 0 00.52 1.256.736.736 0 00.523-1.256.758.758 0 00-1.043 0zm2.935 0a.737.737 0 00.521 1.256.734.734 0 00.515-1.256.76.76 0 00-1.036 0zm-33.11 4.211a.736.736 0 10-.515-.216.723.723 0 00.515.216zm2.928 0a.737.737 0 00.737-.737.755.755 0 00-.217-.519.76.76 0 00-1.039 0 .729.729 0 00-.212.516.729.729 0 00.732.736v.004zm2.929 0a.727.727 0 00.52-.217.732.732 0 000-1.039.76.76 0 00-1.04 0 .757.757 0 00-.197.52.734.734 0 00.733.736h-.016zm2.928 0a.732.732 0 00.732-.736.76.76 0 00-.205-.52.76.76 0 00-1.039 0 .761.761 0 00-.216.52.736.736 0 00.736.736h-.008zm2.929 0a.734.734 0 00.515-1.252.758.758 0 00-1.035 0 .711.711 0 00-.216.516.74.74 0 00.736.736zm2.928 0c.194 0 .38-.078.516-.217a.732.732 0 000-1.039.737.737 0 00-1.04 1.039c.139.14.327.217.524.217zm3.444-1.256a.76.76 0 00-1.04 0 .759.759 0 00-.212.516.76.76 0 00.213.52.737.737 0 001.039 0 .736.736 0 00.216-.52.761.761 0 00-.216-.52v.004zm2.409 1.256a.728.728 0 00.52-.217.758.758 0 00.215-.52.724.724 0 00-.216-.515.732.732 0 10-1.035 1.036.721.721 0 00.516.216zm2.928 0a.733.733 0 00.52-.217.732.732 0 00-.001-1.039.76.76 0 00-1.039 0 .764.764 0 00-.212.52.74.74 0 00.732.736zm2.928 0a.727.727 0 00.52-.217.73.73 0 00-.332-1.226.733.733 0 10-.187 1.443zm2.925 0a.732.732 0 00.735-.736.755.755 0 00-.212-.52.76.76 0 00-1.04 0 .736.736 0 00.517 1.256zm2.932 0a.736.736 0 00.516-1.256.76.76 0 00-1.04 0 .738.738 0 00.524 1.252v.004zM3.91 18.074a.736.736 0 00.518 1.256.726.726 0 00.518-.217.73.73 0 00.004-1.035.759.759 0 00-1.04 0v-.004zm2.925 0a.76.76 0 000 1.04c.14.136.328.214.524.216a.755.755 0 00.515-.217.73.73 0 000-1.039.76.76 0 00-1.039 0zm2.928 0a.737.737 0 101.04 1.04.736.736 0 00.216-.52.761.761 0 00-.216-.52.76.76 0 00-1.04 0zm2.929 0a.737.737 0 00.303 1.276.734.734 0 00.732-.237.757.757 0 000-1.039.76.76 0 00-1.04 0h.005zm2.932 0a.728.728 0 000 1.04.724.724 0 001.032-.001.732.732 0 000-1.039.759.759 0 00-1.032 0zm2.924 0a.764.764 0 00-.212.52.735.735 0 00.212.52c.14.135.325.213.52.216a.757.757 0 00.516-.217.72.72 0 000-1.035.76.76 0 00-1.036 0v-.004zm2.929 0a.733.733 0 000 1.04.758.758 0 00.515.216.761.761 0 00.524-.217.757.757 0 00.212-.52.732.732 0 00-1.251-.519zm2.928 0a.733.733 0 000 1.04.73.73 0 001.035-.001.725.725 0 000-1.035.758.758 0 00-1.035 0v-.004zm2.925 0a.76.76 0 00-.213.52.735.735 0 00.212.52.736.736 0 101.04-1.04.76.76 0 00-1.04 0zm2.928 0a.759.759 0 000 1.04.732.732 0 001.039-.001.732.732 0 000-1.039.76.76 0 00-1.04 0zm2.928 0a.733.733 0 000 1.04.732.732 0 001.04-.001.76.76 0 000-1.039.76.76 0 00-1.04 0zm2.921 0a.736.736 0 00.523 1.256.757.757 0 00.516-.217.732.732 0 000-1.039.76.76 0 00-1.04 0zm2.935 0a.736.736 0 000 1.04c.14.135.326.213.52.216a.757.757 0 00.516-.217.727.727 0 000-1.035.76.76 0 00-1.036 0v-.004zM5.932 22.28a.736.736 0 10.012-1.474.736.736 0 00-.012 1.475zm2.928 0a.736.736 0 00.52-1.254.756.756 0 00-1.035 0 .729.729 0 000 1.039.759.759 0 00.516.216zm2.929 0a.736.736 0 00.519-1.254.757.757 0 00-1.039 0 .735.735 0 00.52 1.255zm2.928 0a.752.752 0 00.527-.216.757.757 0 000-1.039.76.76 0 00-1.039 0 .737.737 0 00.52 1.256h-.008zm2.929 0a.734.734 0 00.515-1.255.758.758 0 00-1.035 0 .733.733 0 000 1.04.76.76 0 00.52.216zm2.928 0a.74.74 0 00.74-.735.758.758 0 00-.217-.52.736.736 0 00-1.039 1.039.76.76 0 00.523.217h-.007zm2.405-1.255a.737.737 0 00.523 1.256.736.736 0 00.516-1.256.76.76 0 00-1.04 0zm3.448 1.255a.735.735 0 00.519-1.254.756.756 0 00-1.035 0 .734.734 0 00.516 1.255zm2.928 0a.734.734 0 00.519-1.254.757.757 0 00-1.039 0 .735.735 0 00.52 1.255zm2.928 0a.757.757 0 00.52-.216.737.737 0 00-1.04-1.039.76.76 0 000 1.04c.14.136.326.213.52.216zm2.925 0a.755.755 0 00.523-.216.757.757 0 000-1.039.76.76 0 00-1.04 0 .736.736 0 00.001 1.04.759.759 0 00.516.216zm2.932 0a.754.754 0 00.516-.216.732.732 0 000-1.039.76.76 0 00-1.036 0 .732.732 0 000 1.04c.14.136.325.213.52.216zM3.91 23.976a.766.766 0 00-.216.52.735.735 0 001.256.52.759.759 0 000-1.04.76.76 0 00-1.04 0zm2.925 0a.764.764 0 00-.212.52c0 .195.077.383.212.523.14.136.328.212.524.213a.758.758 0 00.515-.216.733.733 0 000-1.04.76.76 0 00-1.039 0zm2.928 0a.76.76 0 00-.208.52.725.725 0 00.736.736.735.735 0 00.515-1.256.76.76 0 00-1.039 0h-.004zm2.929 0a.757.757 0 00-.216.52.753.753 0 00.216.523c.14.135.325.211.52.213a.758.758 0 00.515-.216.759.759 0 000-1.04.76.76 0 00-1.04 0h.005zm2.932 0a.732.732 0 00-.22.52.735.735 0 101.467 0 .735.735 0 00-.215-.52.759.759 0 00-1.032 0zm2.924 0a.737.737 0 00.52 1.256.733.733 0 00.516-.216.728.728 0 000-1.04.76.76 0 00-1.036 0zm2.929 0a.733.733 0 000 1.04.758.758 0 00.515.216.734.734 0 00.736-.736.73.73 0 00-1.251-.52zm2.928 0a.737.737 0 00.517 1.259.735.735 0 00.518-1.259.758.758 0 00-1.035 0zm2.925 0a.735.735 0 101.039 0 .76.76 0 00-1.04 0zm2.928 0a.736.736 0 00.538 1.256.736.736 0 00.516-1.256.76.76 0 00-1.04 0h-.014zm2.928 0a.737.737 0 101.024 1.04.759.759 0 000-1.04.76.76 0 00-1.04 0h.016zm2.921 0a.76.76 0 00-.213.52.733.733 0 101.468 0 .736.736 0 00-.216-.52.76.76 0 00-1.04 0zm2.935 0a.736.736 0 000 1.04.737.737 0 001.237-.521.759.759 0 00-.216-.519.76.76 0 00-1.036 0h.015zM5.417 26.931a.726.726 0 000 1.036.76.76 0 00.515.22.736.736 0 00.524-1.256.759.759 0 00-1.04 0zm2.924 0a.736.736 0 00.52 1.256.735.735 0 00.519-1.256.757.757 0 00-1.039 0zm2.929 0a.735.735 0 000 1.036.724.724 0 001.039 0 .731.731 0 000-1.036.759.759 0 00-1.04 0zm2.928 0a.726.726 0 000 1.036.725.725 0 001.039 0 .736.736 0 000-1.036.759.759 0 00-1.04 0zm2.943 0a.73.73 0 000 1.036.763.763 0 00.52.22.741.741 0 00.516-.22.73.73 0 00.003-1.036.757.757 0 00-1.039 0zm2.909 0a.736.736 0 00.524 1.256.763.763 0 00.516-.22.731.731 0 000-1.036.759.759 0 00-1.04 0zm2.929 0a.735.735 0 101.039 0 .759.759 0 00-1.04 0zm2.931 0a.733.733 0 101.032 1.036.724.724 0 00.004-1.036.758.758 0 00-1.035 0zm2.925 0a.736.736 0 00.52 1.256c.196 0 .383-.08.52-.22a.731.731 0 00-.001-1.036.757.757 0 00-1.039 0zm2.928 0a.734.734 0 101.039 0 .757.757 0 00-1.039 0zm2.929 0a.725.725 0 000 1.036.761.761 0 00.516.22.736.736 0 00.523-1.256.759.759 0 00-1.04 0zm2.932 0a.73.73 0 000 1.036.72.72 0 001.035-.001.725.725 0 000-1.035.758.758 0 00-1.035 0z"/></g></g></g></g></svg>