<svg xmlns="http://www.w3.org/2000/svg" width="44" height="39" viewBox="0 0 44 39"><g fill="none" fill-rule="evenodd"><path stroke="#D9D9D9" d="M-23-16h390v70H-23z"/><g fill="#000111" fill-rule="nonzero"><path d="M.778 9.993a.74.74 0 000 1.341l21.035 9.923a.74.74 0 00.634 0l21.036-9.923a.739.739 0 000-1.34L22.447.07a.74.74 0 00-.634 0L.778 9.993zm40.652.67l-19.3 9.105-19.3-9.106 19.3-9.103 19.3 9.103z"/><path d="M36.217 16.076a.74.74 0 00.352.986l4.861 2.294-19.3 9.103-19.3-9.103 5.111-2.414a.74.74 0 10-.63-1.338L.778 18.677a.74.74 0 000 1.341l21.035 9.923a.74.74 0 00.634 0l21.036-9.923a.74.74 0 000-1.34l-6.28-2.958a.743.743 0 00-.986.352v.004z"/><path d="M36.21 24.763a.741.741 0 00.352.986l4.868 2.298-19.3 9.103-19.3-9.103 4.928-2.32a.737.737 0 00.107-1.275.74.74 0 00-.737-.062L.792 27.375a.74.74 0 000 1.341l21.036 9.923c.2.095.433.095.633 0l21.036-9.923a.74.74 0 000-1.341l-6.287-2.964a.74.74 0 00-.986.352h-.014zM10.504 17.27a.728.728 0 00-1.056-.001.739.739 0 00-.215.521c0 .197.078.386.215.528a.745.745 0 101.056-1.055v.006zm.07 2.625a.737.737 0 00-.52-.215.74.74 0 00-.758.757.73.73 0 00.219.521.734.734 0 001.056 0 .765.765 0 000-1.056l.003-.007zm-3.245-1.531a.742.742 0 00-.74.743.747.747 0 00.74.739.767.767 0 00.528-.218.738.738 0 00-.528-1.264zm5.906.44a.748.748 0 00-.528-.22.748.748 0 00-.528 1.276.731.731 0 001.056 0 .769.769 0 000-1.056zm3.049 1.26a.778.778 0 00-.528-.218.747.747 0 00-.74.742c0 .197.078.385.217.523.138.139.326.217.523.217s.386-.077.528-.215a.773.773 0 000-1.056v.007zm-1.194 3.358c-.004.2.075.394.218.535a.738.738 0 001.056 0 .739.739 0 10-1.045-1.045.735.735 0 00-.218.524l-.01-.014zm-1.531-2.027a.748.748 0 00-.528-.22.748.748 0 00-.746.748.757.757 0 00.218.52.742.742 0 001.056.001.77.77 0 000-1.056v.007zm5.076 1.636a.752.752 0 00.528-.218.775.775 0 000-1.056.746.746 0 00-.528-.218.742.742 0 000 1.482v.01z"/><path d="M20.944 23.552a.743.743 0 001.267.525.769.769 0 000-1.056.742.742 0 00-1.267.524v.007zm.292 2.306a.75.75 0 00-.218.528.73.73 0 00.218.52.752.752 0 00.521.22.758.758 0 00.528-.22.74.74 0 00-.528-1.263.765.765 0 00-.52.215zm-3.016-.972a.733.733 0 00.228.521.742.742 0 001.056 0 .769.769 0 000-1.056.747.747 0 00-1.274.528l-.01.007zm6.87-.158a.762.762 0 00-.527-.215.74.74 0 00-.74.743.748.748 0 00.74.74.76.76 0 00.528-.219.779.779 0 000-1.056v.007zm1.782-3.938a.746.746 0 00.738.742.766.766 0 00.529-.218.77.77 0 000-1.056.762.762 0 00-.528-.219.744.744 0 00-.739.75zm1.225 2.463a.75.75 0 00-1.049 0 .747.747 0 00-.215.525.74.74 0 00.218.531.738.738 0 001.056 0 .763.763 0 000-1.056h-.01zm-3.841-1.485a.727.727 0 00-.218.524.743.743 0 00.739.739.734.734 0 00.521-.218.759.759 0 000-1.056.73.73 0 00-1.056 0l.014.01zm6.759.182a.745.745 0 00-1.056 0 .735.735 0 000 1.057.746.746 0 00.52.218.756.756 0 00.525-.218.769.769 0 000-1.056h.01zm3.052-4.22a.773.773 0 00-.528-.214.738.738 0 00-.74.742.747.747 0 00.74.74.764.764 0 00.528-.219.779.779 0 000-1.056v.007zm-.3 2.573a.748.748 0 00-1.055-.003.732.732 0 00-.001 1.056.74.74 0 00.521.218.754.754 0 00.525-.218.77.77 0 000-1.056l.01.003zm-4.055-.753a.75.75 0 00.212.535c.14.136.325.214.52.218a.743.743 0 00.528-1.267.756.756 0 00-.528-.215.74.74 0 00-.739.74l.007-.01zm7.23-.377a.743.743 0 100 1.056.769.769 0 000-1.056z"/></g></g></svg>