<svg xmlns="http://www.w3.org/2000/svg" width="44" height="38" viewBox="0 0 44 38"><g fill="none" fill-rule="evenodd"><path stroke="#D9D9D9" d="M-29-16h390v70H-29z"/><g fill="#121617" fill-rule="nonzero"><path d="M21.678.07L.428 9.841a.729.729 0 00-.428.66c0 .281.166.538.427.659l21.251 9.77a.769.769 0 00.64 0l21.25-9.77A.728.728 0 0044 10.5a.726.726 0 00-.432-.659L22.318.071a.761.761 0 00-.64 0zm.32 19.383L2.5 10.488l19.497-8.96 19.496 8.96-19.496 8.965z"/><path d="M43.568 19.048l-6.346-2.874a.762.762 0 00-.994.343.702.702 0 00.358.951l4.908 2.218-19.496 8.796L2.5 19.697l5.174-2.33a.705.705 0 00.359-.955.764.764 0 00-.998-.343L.427 19.048a.716.716 0 00-.427.647c0 .276.166.528.427.647l21.251 9.59a.783.783 0 00.64 0l21.25-9.59a.714.714 0 00.432-.647.712.712 0 00-.432-.647z"/><path d="M44 27.623a.719.719 0 00-.43-.653l-6.353-2.883a.775.775 0 00-.772.034.713.713 0 00-.33.673.726.726 0 00.463.596l4.917 2.233-19.506 8.862-19.505-8.858 4.974-2.254a.71.71 0 00.359-.958.76.76 0 00-.995-.345L.426 26.973a.725.725 0 00-.426.654c0 .278.166.532.426.653l21.261 9.652c.1.045.21.069.32.068.11.001.22-.022.32-.068l21.243-9.656a.722.722 0 00.43-.653z"/></g></g></svg>