<svg xmlns="http://www.w3.org/2000/svg" width="53" height="33" viewBox="0 0 53 33"><g fill="none" fill-rule="evenodd"><path stroke="#D9D9D9" d="M-20-20h390v70H-20z"/><g fill="#121617" fill-rule="nonzero"><path d="M34 13.011c-2.793 0-5 1.319-5 2.998 0 1.679 2.199 2.99 5 2.99s5-1.318 5-3.001C39 14.315 36.805 13 34 13v.01zm0 4.84c-2.199 0-3.727-.97-3.727-1.842 0-.872 1.528-1.839 3.727-1.839s3.731.97 3.731 1.839c0 .868-1.532 1.842-3.731 1.842z"/><path d="M47.113 11.449a.607.607 0 00-.592-.274c-.234.033-.47.05-.707.052-1.766 0-3-.86-3-1.63 0-.496.5-1.003 1.3-1.317a.629.629 0 00.367-.404.645.645 0 00-.082-.547l-4.078-6.06a.61.61 0 00-.506-.27H7.618a.615.615 0 00-.513.278.649.649 0 00-.06.591l3.166 7.999c.102.267.367.43.646.396.128-.015.257-.023.386-.024 1.282.01 2.415.856 2.82 2.104a3.121 3.121 0 01-1.03 3.416.644.644 0 00-.197.742l2.81 7.102a.618.618 0 00.568.397h6.768a.634.634 0 00.576-.853 1.824 1.824 0 01-.112-.638c0-1.293 1.345-2.348 2.995-2.348 1.65 0 3 1.055 3 2.348 0 .218-.04.434-.116.638a.647.647 0 00.073.581c.116.17.305.271.507.272h7.139a.627.627 0 00.614-.635c0-1.292 1.345-2.343 3-2.343 1.654 0 3 1.05 3 2.343 0 .35.274.633.614.635h6.613a.61.61 0 00.464-.215.643.643 0 00.147-.499 2.223 2.223 0 011.14-2.141.621.621 0 00.34-.397.651.651 0 00-.08-.527l-5.799-8.768.016-.004zm3.18 11.286h-5.45c-.35-1.69-2.086-2.978-4.166-2.978-2.08 0-3.834 1.288-4.182 2.978h-5.833a2.13 2.13 0 000-.226c0-1.983-1.898-3.609-4.232-3.609-2.335 0-4.229 1.618-4.229 3.609v.226h-5.57l-2.489-6.29a4.349 4.349 0 001.318-3.144 4.421 4.421 0 00-1.264-3.077 4.198 4.198 0 00-3.015-1.257L8.55 2.261h30.965l3.478 5.179c-.885.54-1.391 1.312-1.391 2.157 0 1.622 1.855 2.89 4.228 2.89h.487l5.215 7.932a3.618 3.618 0 00-1.237 2.316z"/><path d="M22 5c-2.806 0-5 1.317-5 2.998C17 9.678 19.194 11 22 11s5-1.307 5-3.002C27 6.303 24.806 5 22 5zm0 4.864c-2.002 0-3.759-.869-3.759-1.866 0-.997 1.757-1.866 3.759-1.866s3.759.873 3.759 1.866c0 .993-1.757 1.866-3.759 1.866zM18.5 15c-1.965 0-3.5.879-3.5 2.002C15 18.124 16.535 19 18.5 19s3.5-.879 3.5-1.998C22 15.882 20.46 15 18.5 15zm0 2.887c-1.222 0-2.173-.477-2.173-.885 0-.408.95-.89 2.173-.89 1.222 0 2.17.478 2.17.89 0 .411-.948.892-2.17.892v-.007zM33.502 9C35.463 9 37 8.122 37 7c0-1.123-1.537-2-3.498-2C31.541 5 30 5.877 30 7c0 1.122 1.537 2 3.502 2zm0-2.902c1.236 0 2.184.477 2.184.902 0 .425-.936.901-2.184.901-1.248 0-2.196-.476-2.196-.901 0-.425.935-.902 2.188-.902h.008z"/><path d="M7.38 21.307a3.055 3.055 0 01-1.22 2.45.636.636 0 00-.186.741l2.876 7.105c.094.24.324.397.58.397h6.897a.627.627 0 00.588-.853 1.782 1.782 0 01-.118-.638c0-1.293 1.374-2.343 3.065-2.343 1.69 0 3.065 1.05 3.065 2.343 0 .218-.04.435-.119.638a.648.648 0 00.072.583c.117.17.31.27.517.27h7.3a.629.629 0 00.627-.63c0-1.293 1.375-2.348 3.065-2.348 1.691 0 3.066 1.055 3.066 2.347 0 .349.28.63.628.63h6.758c.19 0 .371-.087.49-.237a.613.613 0 00.122-.531 1.908 1.908 0 011.134-2.066.632.632 0 00.303-.948l-1.022-1.542a.63.63 0 00-.875-.169.635.635 0 00-.168.879l.652.963a3.292 3.292 0 00-1.3 2.38h-5.53c-.355-1.694-2.129-2.979-4.254-2.979-2.125 0-3.898 1.285-4.258 2.978h-5.96a2.206 2.206 0 000-.23c0-1.982-1.94-3.608-4.321-3.608-2.382 0-4.321 1.622-4.321 3.608a2.206 2.206 0 000 .23h-5.7l-2.54-6.28a4.298 4.298 0 001.347-3.14 4.37 4.37 0 00-1.29-3.079 4.342 4.342 0 00-3.082-1.259l-2.71-6.704h2.994a.634.634 0 000-1.265H.622a.627.627 0 00-.521.277.642.642 0 00-.052.591l3.227 7.985a.63.63 0 00.66.397c.13-.019.263-.028.395-.028a3.074 3.074 0 013.065 3.077l-.016.008z"/><path d="M30.403 27.985c1.142.03 2.266-.356 3.23-1.11.226-.124.37-.403.367-.708-.004-.305-.155-.578-.384-.694-.23-.117-.493-.055-.671.158-.756.577-1.633.868-2.522.836-1.78 0-3.023-.96-3.195-1.874-.077-.41-.41-.668-.745-.574-.335.094-.544.504-.467.915.328 1.773 2.182 3.066 4.407 3.066l-.02-.015zM8 15c1.12 0 2-.9 2-1.998C10 11.904 9.12 11 8 11s-2 .9-2 2.002A1.99 1.99 0 008 15zm0-2.565c.572 0 .92.365.92.567 0 .203-.338.562-.92.562-.582 0-.92-.364-.92-.562 0-.198.338-.567.92-.567zm4.39 11.679a.515.515 0 00.35-.21.585.585 0 00-.088-.786.497.497 0 00-.386-.114c-1.316.169-2.266.984-2.266 1.982 0 1.128 1.213 2.013 2.762 2.013a3.36 3.36 0 002-.611.575.575 0 00.236-.514.556.556 0 00-.31-.466.496.496 0 00-.532.07c-.417.279-.902.42-1.394.404-.967 0-1.713-.482-1.713-.896 0-.352.513-.766 1.342-.872z"/></g></g></svg>