<svg xmlns="http://www.w3.org/2000/svg" width="44" height="22" viewBox="0 0 44 22"><g fill="none" fill-rule="evenodd"><path stroke="#D9D9D9" d="M-29-25h390v70H-29z"/><g fill="#000111" fill-rule="nonzero"><path d="M4.932 1.412a3.528 3.528 0 00-3.524 3.524v11.279a3.528 3.528 0 003.524 3.524H38.77a3.53 3.53 0 003.527-3.524V4.935a3.53 3.53 0 00-3.527-3.523H4.932zM38.77 21.154H4.932A4.939 4.939 0 010 16.22V4.936A4.94 4.94 0 014.932 0H38.77a4.943 4.943 0 014.935 4.936v11.279a4.944 4.944 0 01-4.935 4.94z"/><path d="M10.327 4.936a1.148 1.148 0 00-1.11 1.446l2.388 8.95c.121.514.58.88 1.11.883H30.99a1.17 1.17 0 001.125-.865L34.5 6.401c.027-.097.041-.197.042-.298a1.17 1.17 0 00-1.148-1.148l-23.067-.02zm20.66 12.69H12.714a2.578 2.578 0 01-2.487-1.912L7.84 6.764a2.573 2.573 0 01.444-2.232 2.574 2.574 0 012.043-1.004h23.048a2.578 2.578 0 012.487 3.237l-2.384 8.949a2.582 2.582 0 01-2.487 1.913h-.004zM4.932 9.871a.704.704 0 10.008 1.408.704.704 0 00-.008-1.408zm0 2.82a2.116 2.116 0 110-4.231 2.116 2.116 0 010 4.231z"/><path d="M13.391 7.763a.708.708 0 100 1.416.708.708 0 000-1.416zm0 2.82a2.116 2.116 0 110-4.232 2.116 2.116 0 010 4.232zm5.64-2.82a.707.707 0 100 1.414.707.707 0 000-1.414zm0 2.82a2.117 2.117 0 01-1.52-3.604 2.116 2.116 0 013.62 1.48 2.115 2.115 0 01-2.115 2.116l.015.008zm5.639-2.82a.709.709 0 00-.499 1.21.706.706 0 001.207-.506.707.707 0 00-.707-.704zm0 2.82a2.115 2.115 0 11-.001-4.23 2.115 2.115 0 01.002 4.23zm5.644-2.82a.707.707 0 100 1.414.707.707 0 000-1.414zm0 2.82a2.116 2.116 0 112.116-2.116 2.115 2.115 0 01-2.116 2.108v.008zm-14.103 1.389a.703.703 0 10.015 1.409.703.703 0 00-.015-1.41zm0 2.82a2.117 2.117 0 11.002-4.234 2.117 2.117 0 01-.002 4.234zm5.639-2.82a.705.705 0 10.001 0zm0 2.82a2.116 2.116 0 110-4.232 2.116 2.116 0 01.001 4.232zm5.64-2.82a.704.704 0 10.001 0zm0 2.82a2.116 2.116 0 11.002-4.232 2.116 2.116 0 01-.002 4.232zm11.28-4.921a.704.704 0 10.019 0h-.02zm0 2.82a2.116 2.116 0 110-4.231 2.116 2.116 0 010 4.231z"/></g></g></svg>