<svg xmlns="http://www.w3.org/2000/svg" width="37" height="42" viewBox="0 0 37 42"><g fill="none" fill-rule="evenodd"><path stroke="#D9D9D9" d="M-23-14h390v70H-23z"/><g fill="#000111" fill-rule="nonzero"><path d="M2.048 23.832a.85.85 0 00-.655.833c0 .4.272.745.655.833h32.904a.851.851 0 00.655-.833.85.85 0 00-.655-.833H2.048zm32.904 3.333H2.048c-1.134 0-2.048-1.13-2.048-2.5 0-1.371.922-2.5 2.048-2.5h32.904c1.134 0 2.048 1.129 2.048 2.5 0 1.37-.922 2.5-2.048 2.5z"/><path d="M5.397 22.968h26.214V3.167c0-.993-.927-1.801-2.06-1.801H7.466c-1.142 0-2.06.817-2.06 1.8v19.802h-.009zm27.582 1.197H4V3.167C4 1.513 5.562.165 7.466.165H29.55C31.455.165 33 1.513 33 3.167v20.998h-.02zM11 41.165h-1v-15h1v15zm16 0h-1v-15h1v15z"/><path d="M12 17.165h-1v-12h1v12zm3 0h-1v-12h1v12zm3 0h-1v-2h1v2zm0-3h-1v-2h1v2zm0-3h-1v-2h1v2z"/></g></g></svg>