<svg xmlns="http://www.w3.org/2000/svg" width="28" height="41" viewBox="0 0 28 41"><g fill="none" fill-rule="evenodd"><path stroke="#D9D9D9" d="M-20-15h390v70H-20z"/><g fill="#000111" fill-rule="nonzero"><path d="M27.423 23.738a.581.581 0 00.577-.586V15.08C28 7.545 21.936 1.036 14.516.766A13.883 13.883 0 004.285 4.735 14.311 14.311 0 000 14.965v13.906a.6.6 0 00.505.603c.165.021.33-.03.454-.142a.584.584 0 00.195-.44v-8.29c.412.956.927 1.863 1.537 2.703v11.361H1.154v-3.382a.596.596 0 00-.505-.603.572.572 0 00-.452.14.593.593 0 00-.197.435v8.838c.002.322.26.582.577.582h2.65s.577-.204.618-.526V24.723a13.705 13.705 0 0010.12 4.446 13.977 13.977 0 0010.19-4.446V40.15c-.027.322.55.606.55.606h2.667a.546.546 0 00.388-.163.56.56 0 00.161-.395V25.506a.566.566 0 00-.42-.562.546.546 0 00-.46.121.56.56 0 00-.195.44v9.151h-1.537V23.378a.364.364 0 000-.066 14.205 14.205 0 001.544-2.71v2.55c0 .324.258.586.577.586h-.007zM2.69 39.585H1.154v-3.747h1.537v3.747zm24.155-3.747v3.747h-1.537v-3.747h1.537zm-12.88-7.84c-7.093 0-12.843-5.836-12.843-13.036 0-7.199 5.75-13.035 12.843-13.035s12.842 5.836 12.842 13.035c-.007 7.197-5.753 13.028-12.842 13.036z"/><path d="M13.514 3.756A11.5 11.5 0 1025 15.256c-.008-6.343-5.143-11.485-11.486-11.5zm0 21.827c-5.703 0-10.327-4.624-10.327-10.327S7.811 4.929 13.514 4.929s10.327 4.624 10.327 10.327c-.006 5.701-4.626 10.321-10.327 10.327z"/><path d="M13.5 6.756a8.499 8.499 0 100 16.998 8.499 8.499 0 000-16.998zm0 15.862a7.365 7.365 0 117.365-7.365 7.384 7.384 0 01-7.365 7.365z"/></g></g></svg>