<svg id="圖層_1_copy" data-name="圖層 1 copy" xmlns="http://www.w3.org/2000/svg" viewBox="0 0 359.84 133.09"><defs><style>.cls-1{fill:#fff;}.cls-2{fill:#00ace7;}.cls-3{fill:#9ed9e5;}.cls-4{fill:#ffd44f;}.cls-5{opacity:0.3;}.cls-6{fill:#a5a5a5;}.cls-7{fill:#00a3db;}.cls-8{fill:#ffbe61;}.cls-9{fill:#c6a063;}.cls-10{fill:#78bf7c;}</style></defs><path class="cls-1" d="M320.18,6.18H39.66C21.17,6.18,6.18,22,6.18,41.42h0c0,19.46,15,35.24,33.48,35.24h47a36.63,36.63,0,0,0-3.19,15h0c0,19.46,15,35.24,33.48,35.24h160c18.49,0,33.48-15.78,33.48-35.24h0a36.63,36.63,0,0,0-3.19-15h13c18.49,0,33.48-15.78,33.48-35.24h0C353.66,22,338.67,6.18,320.18,6.18Z"/><path class="cls-2" d="M276.92,133.09h-160c-21.87,0-39.66-18.58-39.66-41.42a43.3,43.3,0,0,1,.9-8.83H39.66C17.79,82.84,0,64.26,0,41.42S17.79,0,39.66,0H320.18c21.87,0,39.66,18.58,39.66,41.42s-17.79,41.42-39.66,41.42h-4.5a43.3,43.3,0,0,1,.9,8.83C316.58,114.51,298.79,133.09,276.92,133.09ZM39.66,4.12c-19.6,0-35.54,16.73-35.54,37.3s15.94,37.3,35.54,37.3H83.47l-.72,2.61a38.83,38.83,0,0,0-1.38,10.34c0,20.56,15.94,37.3,35.54,37.3h160c19.6,0,35.54-16.74,35.54-37.3a38.84,38.84,0,0,0-1.39-10.34l-.72-2.61h9.83c19.6,0,35.54-16.73,35.54-37.3s-15.94-37.3-35.54-37.3Z"/><path class="cls-3" d="M276.92,129h-160c-19.6,0-35.54-16.74-35.54-37.3a38.72,38.72,0,0,1,2.2-13H39.66C20.06,78.72,4.12,62,4.12,41.42S20.06,4.12,39.66,4.12H320.18c19.6,0,35.54,16.73,35.54,37.3s-15.94,37.3-35.54,37.3h-9.93a38.47,38.47,0,0,1,2.21,13C312.46,112.23,296.52,129,276.92,129ZM39.66,8.24C22.34,8.24,8.24,23.13,8.24,41.42S22.34,74.6,39.66,74.6H89.8l-1.3,2.9a34.34,34.34,0,0,0-3,14.17c0,18.29,14.09,33.18,31.42,33.18h160c17.32,0,31.42-14.89,31.42-33.18a34.5,34.5,0,0,0-3-14.17L304,74.6h16.15c17.33,0,31.42-14.89,31.42-33.18S337.51,8.24,320.18,8.24Z"/><path class="cls-4" d="M92.51,87.38A1.4,1.4,0,0,1,92,86.05a20.44,20.44,0,0,1,23.46-17,1.38,1.38,0,0,1,1.13,1.58A1.36,1.36,0,0,1,115,71.76,17.69,17.69,0,0,0,94.67,86.47a1.38,1.38,0,0,1-1.57,1.15A1.47,1.47,0,0,1,92.51,87.38Z"/><path class="cls-4" d="M98.37,88.28A1.38,1.38,0,0,1,97.81,87a14.5,14.5,0,0,1,16.71-12,1.37,1.37,0,1,1-.45,2.7,11.78,11.78,0,0,0-13.55,9.77,1.37,1.37,0,0,1-2.15.9Z"/><path class="cls-4" d="M104.36,89.2a1.35,1.35,0,0,1-.55-1.33,8.41,8.41,0,0,1,9.8-7,1.37,1.37,0,0,1-.48,2.7,5.6,5.6,0,0,0-4.36,1,5.73,5.73,0,0,0-2.26,3.69,1.36,1.36,0,0,1-1.57,1.13A1.3,1.3,0,0,1,104.36,89.2Z"/><g class="cls-5"><path class="cls-6" d="M68.89,44.57H55.39V46H68.26v8.13H55.39v1.25H70.82V65h-41v-9.6H45.25V54.11H32.37V46H45.25V44.57H31.74V40.45c-.47.08-1.25.15-2.33.22q0-2.45-.33-5.8t-.66-5.64l1.4.06a40.07,40.07,0,0,0,5.67-.44,23.33,23.33,0,0,0,5.32-1.35,9.59,9.59,0,0,0,3-1.68,3.88,3.88,0,0,0,1.07-2.39H55.92a18.5,18.5,0,0,1-.85,2.66,41.67,41.67,0,0,0,17.36,3.14q-.41,2.39-.78,5.64c-.26,2.17-.44,4.1-.56,5.8a20.46,20.46,0,0,1-2.2-.38ZM44,36.28H56.51a48.16,48.16,0,0,1-6.87-4A33.29,33.29,0,0,1,44,36.28Z"/><path class="cls-6" d="M120.12,56.55c.15,1.52.22,3,.22,4.56a3.66,3.66,0,0,1-1.54,3.36,7.37,7.37,0,0,1-4,1q-7.45,0-11.89-6.61l.31,3.58q-8.61,1.46-24.58,3.2l-.18-1.85c-.21-2.13-.4-3.87-.56-5.23a37.27,37.27,0,0,0-.65-3.77l2.64,0v-30h37.64V41.54h-13.1l.36,1.3L119,41.64l.67,7.76-7.27.65a17,17,0,0,0,5.75,1,8.85,8.85,0,0,0,1.21-.05C119.72,53.17,120,55,120.12,56.55ZM107.87,34.92V33.51h-17v1.41Zm-12.6,8.73a20,20,0,0,1-.59-2.11H90.92V44Zm-4.35,8.24V54c3.25-.37,6.1-.76,8.52-1.2l-.94-1.57Zm20.65,1.46q-.06-.65-.24-1.68l-.23-1.51-2.82.21a15.06,15.06,0,0,0,1.93,2.23l1.3,1.24C111.6,54,111.62,53.79,111.57,53.35Z"/><path class="cls-6" d="M167.31,61l-1.39,2.76c-.54,1.16-.88,1.86-1,2.12a35.1,35.1,0,0,1-8.19-2.47,41.13,41.13,0,0,1-8-4.58l-.54.43a34.78,34.78,0,0,1-7.78,4.12,45.47,45.47,0,0,1-9.09,2.5l-.76-1.47q-1.08-2.22-2.2-4.17A46.41,46.41,0,0,0,125.55,56q9.92-.06,14.08-1.74H126.44V46.31h3.1V36.39h14.4v-1.2h-8v-1h-8.52v-9h8.52V23.65h9.42v1.52h5.47V23.65h9.43v1.52h8.61v9h-8.61v1h-7.95v1.2h14.41v9.92h3.09v7.91H157a24.1,24.1,0,0,0,5.72,1.38,54.11,54.11,0,0,0,7.47.36A52,52,0,0,0,167.31,61ZM143.94,43.38h-4.4v2.93h4.4ZM150.8,35v-.82h-5.47V35Zm5.88,11.33V43.38h-4.4v2.93Z"/><path class="cls-6" d="M212.71,54.71a3.58,3.58,0,0,1-.09.65,17.35,17.35,0,0,0,6.6,1.08,15.79,15.79,0,0,0-1.3,3.42q-.63,2.22-1.31,5.42a15.88,15.88,0,0,1-6.32-4.06A13,13,0,0,1,205,65.28a26.33,26.33,0,0,0-1.48-4c-.54,2.28-.85,3.6-.94,4a13.47,13.47,0,0,1-5-4.72,14,14,0,0,1-6.6,4.72,29,29,0,0,0-1.39-4.17,28.51,28.51,0,0,0-2.24-4.45,39.35,39.35,0,0,0,4.6-.7,2.78,2.78,0,0,0,1.77-1.25h-3.5V45l-2.38,8.24-.31-1.74c-.18-1.08-.33-1.88-.45-2.38V65.5h-8.39V54.87a30.39,30.39,0,0,1-2.29,6.94,79.28,79.28,0,0,0-1.92-14.58A15.84,15.84,0,0,0,178.66,40v-.65h-2.73V28.64h2.73V23.86h8.39v4.78h1.75v1a28.3,28.3,0,0,0,4.11-.47A13.88,13.88,0,0,0,196.34,28a6.8,6.8,0,0,0,2.4-2,6.55,6.55,0,0,0,1-3.14h7.9c-.21,1.44-.42,2.58-.63,3.41a21.76,21.76,0,0,0,6.1,2.5,35.2,35.2,0,0,0,7,.87c-.15.86-.5,2.52-1.07,5-.33,1.59-.62,3.07-.85,4.45-1.71-.36-3-.67-3.86-.92v2.6H193V38.45a27.52,27.52,0,0,1-3.76.65A28.72,28.72,0,0,0,188.8,36v3.42h-1.75v.22c-.06-.08.51.72,1.71,2.38l1.43,2V41.64h13.06V54.71H200a10.45,10.45,0,0,0,3.72,1.63,12.27,12.27,0,0,0,3.1-1.63H204V41.64H217V54.71Zm-15-7.75h-1.84v1.52h1.84ZM206,34.38a19.13,19.13,0,0,1-2.29-1.84,18.88,18.88,0,0,1-2,1.84ZM211.32,47h-1.79v1.52h1.79Z"/><path class="cls-6" d="M227.09,30.69a6.72,6.72,0,0,1-1.37-4.39,6.89,6.89,0,0,1,1.37-4.39,5.83,5.83,0,0,1,8.32,0,6.66,6.66,0,0,1,1.44,4.36,6.67,6.67,0,0,1-1.39,4.39,6,6,0,0,1-8.37,0Zm-1,34.48q.31-8.73.31-14.42,0-6.76-.36-15.18H236.8q-.36,8.09-.36,15.18,0,6,.32,14.42Z"/><path class="cls-6" d="M286.73,53.08v5.53h-9.29a3.75,3.75,0,0,1,.68,2.17c0,1.48-1.08,2.59-3.23,3.31a23.21,23.21,0,0,1-7.36,1.08q-4.71,0-16.87-.87a27.54,27.54,0,0,0-1-5.69q11.2,1,14.93,1a9.92,9.92,0,0,0,2.67-.24c.5-.16.74-.43.74-.79H244.38V53.08h23.73a11.67,11.67,0,0,0,1.21-.76H249.68V50.05h-4.85V42.3h1.57l-.67-16.59c1.49-.18,3.35-.51,5.56-1s4.23-1,6.06-1.57a16.25,16.25,0,0,0,.89,2.66L261.79,24l3.5,1.95a22.3,22.3,0,0,0,2.42-1.9l5,2.28V24.51h12.79L284.8,42.3h1.39v7.75H281.8l.31,1-1.57.38-5.25,1.62Zm-9.55-5V47H253.85V48ZM259.68,32.7l-2.56-2.49-1.7.38,0,1h2.69v2.28Zm-4,4.23h2.46v1.84q1.53-.71,3.15-1.62c-1.11-.65-2.16-1.25-3.15-1.79v.7h-2.51Zm2.46,4.61h-2.28l0,.76h3.77l-1.53-1.58Zm.9-14,.63,1.36,1-.38ZM268.7,42.3c-.51-.4-1.27-1-2.29-1.68-.54.36-1.48.92-2.83,1.68Zm-1.86-10-.61-.38-1.88,1.14,1.61,1,1.66-1.3C267.32,32.63,267.06,32.47,266.84,32.32Zm9.39-.76,0-1.08h-3l.4.21-3.18,2.12,2.28,1.79v-3Zm-3.5-4.12c-.12.11-.83.64-2.15,1.57l2.15,1.2ZM276,36.06h-3.28V36L271,37.42l1.75,1.13V36.93H276Zm-3.28,4.66L271,42.3h4.71l0-.76h-3Z"/><path class="cls-6" d="M335.36,60.08a5.83,5.83,0,0,1-.61,3,3.14,3.14,0,0,1-2.06,1.33,19.76,19.76,0,0,1-4.37.35l-2.87-.05q-.31-2.17-.63-3.42h-1c-.42,0-1.3.06-2.65.06a2,2,0,0,1-1.92-1.17,5.44,5.44,0,0,1-.63-2.63v-5h-.94V45.44h2.06V44.08H317.6V37.63h.89l-.22-2.16,4-.22.22,2.38h.54c.06-.57.12-1.41.18-2.49l4.08.22-.27,2.27h.58v6.45h-2v1.36h1.92V52.6H324.5V53a3.19,3.19,0,0,0,.12,1.06.45.45,0,0,0,.47.3,5.07,5.07,0,0,0,2-.49c-.09.4-.2,1.11-.32,2.12a3.17,3.17,0,0,0,1.12-.22.57.57,0,0,0,.32-.54V34.27H317V64.68h-7.09V62.9l-2.1.32-2.16.33c-.15-4.67-.22-9.45-.22-14.37l3.95-.27c0,2.67,0,4.94.11,6.8s.21,3.82.42,5.88V47.5l-4.39.81-.09-1.08a3.94,3.94,0,0,0-.81.11V65.23H297.9V48.42c-1.58.26-3.29.47-5.11.65a62.69,62.69,0,0,0-.41-8l2.83-.11,1.21-1.78a48.59,48.59,0,0,0-4.26-5.37l2.6-7.43.94,1.14a35.94,35.94,0,0,0,2.07-4.93l6,1.95q-2.56,4.93-4.17,7.81c.29.47.46.72.49.75q2.59-4.71,4.93-9.86l4.89,1.95v-.16h25.44ZM295.61,49.56l1.57-.05v1.73c0,2.42,0,4.56-.11,6.42s-.23,3.93-.47,6.21l-1.55-.24a17.24,17.24,0,0,0-2.76-.19,56.3,56.3,0,0,0,.79-6.45c.1-1.92.16-4.36.16-7.32C293.8,49.67,294.6,49.63,295.61,49.56Zm9.07-8.94-.32-2.5-1.52,2.6Zm5.24-12.53-1.3,2.39-1.88,3.36,1.75-.33.81,5.8c.18,1,.38,2.48.62,4.29Z"/></g><path class="cls-7" d="M66.4,41.67H52.9v1.41H65.77v8.13H52.9v1.25H68.33v9.6h-41v-9.6H42.76V51.21H29.89V43.08H42.76V41.67H29.26V37.55c-.48.08-1.26.15-2.33.22,0-1.63-.15-3.56-.34-5.8s-.41-4.12-.65-5.64l1.39.06A40,40,0,0,0,33,26a23.19,23.19,0,0,0,5.32-1.35,9.27,9.27,0,0,0,3-1.68,3.84,3.84,0,0,0,1.08-2.39H53.44a19.84,19.84,0,0,1-.85,2.66A41.67,41.67,0,0,0,70,26.33q-.4,2.39-.79,5.64t-.56,5.8a20.46,20.46,0,0,1-2.2-.38ZM41.46,33.38H54a47.46,47.46,0,0,1-6.86-4A33.76,33.76,0,0,1,41.46,33.38Z"/><path class="cls-7" d="M117.63,53.65c.15,1.52.23,3,.23,4.56a3.66,3.66,0,0,1-1.55,3.36,7.32,7.32,0,0,1-4,1q-7.44,0-11.89-6.61l.32,3.58Q92.15,61,76.18,62.71L76,60.86c-.21-2.13-.39-3.87-.56-5.23a34.67,34.67,0,0,0-.65-3.77l2.65,0v-30h37.64V38.64H102l.36,1.3,14.17-1.19.68,7.75-7.27.65a17,17,0,0,0,5.74,1,8.76,8.76,0,0,0,1.21,0C117.23,50.27,117.48,52.14,117.63,53.65ZM105.39,32V30.61h-17V32ZM92.78,40.75a20.34,20.34,0,0,1-.58-2.11H88.43v2.49ZM88.43,49v2.12c3.26-.37,6.1-.76,8.52-1.2L96,48.34Zm20.66,1.47c0-.44-.13-1-.25-1.69l-.22-1.51-2.83.21a15.67,15.67,0,0,0,1.93,2.23l1.3,1.24C109.11,51.05,109.13,50.89,109.09,50.46Z"/><path class="cls-7" d="M164.83,58.1l-1.39,2.76c-.54,1.16-.89,1.86-1,2.12a34.89,34.89,0,0,1-8.18-2.47,41.2,41.2,0,0,1-8-4.58l-.53.43a34.87,34.87,0,0,1-7.79,4.12,45.2,45.2,0,0,1-9.08,2.5l-.76-1.47q-1.08-2.22-2.2-4.17a46.68,46.68,0,0,0-2.83-4.28Q133,53,137.15,51.32H124V43.41h3.09V33.49h14.4V32.3h-8v-1H124.9v-9h8.52V20.75h9.42v1.52h5.48V20.75h9.42v1.52h8.61v9h-8.61v1H149.8v1.19h14.4v9.92h3.09v7.91H154.55a24.34,24.34,0,0,0,5.72,1.38,54.11,54.11,0,0,0,7.47.36A53,53,0,0,0,164.83,58.1ZM141.45,40.48h-4.39v2.93h4.39Zm6.87-8.4v-.82h-5.48v.82Zm5.88,11.33V40.48h-4.4v2.93Z"/><path class="cls-7" d="M210.23,51.81a3.48,3.48,0,0,1-.09.65,17.28,17.28,0,0,0,6.59,1.09,16,16,0,0,0-1.3,3.41q-.63,2.22-1.3,5.42a16,16,0,0,1-6.33-4.06,12.87,12.87,0,0,1-5.34,4.06,25.25,25.25,0,0,0-1.48-4c-.53,2.28-.85,3.6-.94,4a13.53,13.53,0,0,1-5-4.71,14.07,14.07,0,0,1-6.59,4.71,30.29,30.29,0,0,0-1.39-4.17,29.46,29.46,0,0,0-2.25-4.45,39,39,0,0,0,4.6-.7,2.7,2.7,0,0,0,1.77-1.25h-3.49v-9.7l-2.38,8.24L185,48.61c-.18-1.08-.32-1.88-.44-2.38V62.6h-8.39V52a30.39,30.39,0,0,1-2.29,6.94A79.23,79.23,0,0,0,172,44.33a15.93,15.93,0,0,0,4.22-7.21v-.65h-2.74V25.74h2.74V21h8.39v4.77h1.75v1a28.15,28.15,0,0,0,4.1-.47,13.88,13.88,0,0,0,3.43-1.16,6.62,6.62,0,0,0,2.4-2,6.55,6.55,0,0,0,1-3.14h7.89c-.21,1.44-.42,2.58-.63,3.41a21.88,21.88,0,0,0,6.1,2.5,35.4,35.4,0,0,0,7,.87c-.15.86-.51,2.53-1.08,5-.33,1.59-.61,3.07-.85,4.45-1.71-.36-3-.67-3.86-.92v2.6H190.49V35.55a27.65,27.65,0,0,1-3.77.65c-.15-1.59-.29-2.64-.4-3.15v3.42h-1.75v.22c-.06-.08.5.72,1.7,2.38l1.44,2V38.75h13V51.81h-3.23a10.6,10.6,0,0,0,3.72,1.63,12,12,0,0,0,3.1-1.63h-2.87V38.75h13.05V51.81Zm-15-7.75h-1.84v1.52h1.84Zm8.3-12.58a19.13,19.13,0,0,1-2.29-1.84,19.07,19.07,0,0,1-2,1.84Zm5.34,12.58H207v1.52h1.8Z"/><path class="cls-7" d="M224.6,27.8a6.76,6.76,0,0,1-1.36-4.4A6.89,6.89,0,0,1,224.6,19a5.84,5.84,0,0,1,8.33,0,6.73,6.73,0,0,1,1.43,4.36A6.67,6.67,0,0,1,233,27.8a6.05,6.05,0,0,1-8.37,0Zm-1,34.47q.32-8.73.32-14.42,0-6.76-.36-15.18h10.77Q234,40.76,234,47.85q0,6,.31,14.42Z"/><path class="cls-7" d="M284.25,50.18v5.53H275a3.74,3.74,0,0,1,.67,2.17c0,1.48-1.07,2.59-3.23,3.31a23.1,23.1,0,0,1-7.35,1.08q-4.73,0-16.87-.86a27,27,0,0,0-1-5.7q11.22,1,14.94,1a10,10,0,0,0,2.67-.24c.49-.16.74-.42.74-.79H241.9V50.18h23.73c.27-.14.67-.39,1.21-.75H247.19V47.15h-4.84V39.4h1.57l-.68-16.59c1.5-.18,3.35-.51,5.57-1s4.23-1,6.05-1.57a15.46,15.46,0,0,0,.9,2.66l3.54-1.79,3.5,1.95a21.2,21.2,0,0,0,2.43-1.9l5,2.28V21.62H283l-.71,17.78h1.39v7.75h-4.4l.31,1-1.56.38-5.25,1.62Zm-9.56-5V44.06H251.36v1.08ZM257.19,29.8l-2.55-2.49-1.71.38,0,1h2.69v2.28Zm-4,4.23h2.47v1.84c1-.47,2.06-1,3.14-1.62-1.11-.65-2.15-1.25-3.14-1.79v.7h-2.51Zm2.47,4.61h-2.29l.05.76h3.76l-1.52-1.58Zm.9-14,.62,1.36,1-.38Zm9.64,14.75c-.51-.4-1.27-1-2.29-1.68-.53.36-1.48.92-2.82,1.68Zm-1.86-10-.61-.38-1.88,1.14,1.62,1,1.66-1.3C264.84,29.73,264.57,29.57,264.35,29.42Zm9.4-.76,0-1.08h-3.05l.41.22L268,29.91l2.29,1.79v-3Zm-3.5-4.12c-.12.11-.84.64-2.15,1.57l2.15,1.2Zm3.27,8.62h-3.27v0l-1.75,1.41,1.75,1.14V34h3.27Zm-3.27,4.66-1.71,1.58h4.71l.05-.76h-3.05Z"/><path class="cls-7" d="M332.87,57.18a5.94,5.94,0,0,1-.6,3,3.16,3.16,0,0,1-2.07,1.33,19.76,19.76,0,0,1-4.37.35l-2.87,0c-.21-1.45-.42-2.58-.63-3.42h-1c-.41,0-1.3.06-2.64.06a2.05,2.05,0,0,1-1.93-1.17,5.41,5.41,0,0,1-.63-2.63v-5h-.94V42.54h2.06V41.18h-2.15V34.73h.9l-.23-2.16,4-.22.22,2.38h.54c.06-.57.12-1.41.18-2.49l4.08.22-.27,2.27h.59v6.45h-2v1.36h1.93V49.7H322v.38a3.55,3.55,0,0,0,.11,1.05.45.45,0,0,0,.47.3,5.07,5.07,0,0,0,2-.49,21.35,21.35,0,0,0-.31,2.12,3.23,3.23,0,0,0,1.12-.22.56.56,0,0,0,.31-.54V31.37H314.53V61.78h-7.09V60l-2.11.32-2.15.33C303,56,303,51.2,303,46.28L306.9,46q0,4,.11,6.8t.43,5.88V44.6l-4.4.81L303,44.33a4.8,4.8,0,0,0-.81.11V62.33h-6.72V45.52c-1.59.26-3.29.47-5.12.65a63,63,0,0,0-.4-8l2.82-.11,1.22-1.78a48.65,48.65,0,0,0-4.27-5.37l2.6-7.43,1,1.14a36,36,0,0,0,2.06-4.93l6,2q-2.55,4.93-4.17,7.81c.3.47.46.72.49.75q2.61-4.71,4.94-9.86l4.89,1.95v-.16h25.43ZM293.13,46.66l1.57,0v1.73q0,3.63-.11,6.42c-.08,1.87-.24,3.93-.48,6.21l-1.54-.24a17.41,17.41,0,0,0-2.76-.19,54,54,0,0,0,.78-6.45q.17-2.88.16-7.32C291.32,46.77,292.11,46.73,293.13,46.66Zm9.06-8.94-.31-2.5-1.53,2.6Zm5.25-12.53-1.3,2.39-1.89,3.36,1.75-.33.81,5.8q.27,1.58.63,4.29Z"/><g class="cls-5"><polygon class="cls-6" points="280.58 75.53 286.97 58.7 313.7 78.48 280.58 75.53"/><rect class="cls-6" x="256.11" y="78.47" width="45.4" height="2.86" transform="translate(105.11 312.17) rotate(-69.2)"/></g><polygon class="cls-8" points="279.06 72.16 285.45 55.33 312.18 75.1 279.06 72.16"/><rect class="cls-9" x="254.6" y="75.09" width="45.4" height="2.86" transform="translate(107.29 308.57) rotate(-69.2)"/><path class="cls-10" d="M119.58,96.66H131v12.2h-4.7l-.56-5.21a7.05,7.05,0,0,1-2.85,4.15,8.85,8.85,0,0,1-5,1.36,8.69,8.69,0,0,1-4.79-1.33,8.88,8.88,0,0,1-3.28-3.8,13.26,13.26,0,0,1-1.19-5.78q0-5.28,2.85-8.34t8.89-3.07a14.13,14.13,0,0,1,6.06,1.24,11.35,11.35,0,0,1,4.47,3.83c-.8.45-2.36,1.36-4.69,2.71l-.67.42a6.69,6.69,0,0,0-2.43-1.73,7.61,7.61,0,0,0-2.93-.57,4.66,4.66,0,0,0-3.81,1.49,5.47,5.47,0,0,0-1.26,3.67,4.86,4.86,0,0,0,5.47,5.24,7.07,7.07,0,0,0,2.33-.38,4.11,4.11,0,0,0,1.91-1.33h-5.2Z"/><path class="cls-10" d="M139.4,103.47q10.13-.06,14.69-.33a20.2,20.2,0,0,0-.22,2.5c0,.85,0,1.93,0,3.22H133.1c.14-3.81.22-7.38.22-10.7s-.08-6.89-.22-10.7h20.73V92.8H139.4v2.83c.85,0,2.11,0,3.79,0,2.82,0,5.75-.06,8.77-.18v5.07c-3-.12-6-.18-8.77-.18-1.68,0-2.94,0-3.79,0Z"/><path class="cls-10" d="M168.34,87.49q5.31,0,7.39,2.08a7.93,7.93,0,0,1,2.08,5.85,10.61,10.61,0,0,1-.83,4.41,5.86,5.86,0,0,1-2.91,2.83,13.21,13.21,0,0,1-5.73,1h-5.55v5.18h-6.56q.21-5.72.21-10.7t-.21-10.7h6.56v0ZM166.47,98a20.62,20.62,0,0,0,3.32-.2,2.55,2.55,0,0,0,1.55-.69,2.71,2.71,0,0,0,0-2.93,2.43,2.43,0,0,0-1.52-.67,24.72,24.72,0,0,0-3.37-.17h-3.68V98Z"/><path class="cls-10" d="M201.52,93.65c-2.79-.1-5.51-.16-8.14-.18v15.39h-6.66V93.47c-2.65,0-5.36.08-8.11.18V87.46h22.91Z"/><path class="cls-10" d="M210.07,90.11a3.39,3.39,0,0,1-.82-2.38,3.49,3.49,0,0,1,.82-2.39,3.67,3.67,0,0,1,4.94,0,3.45,3.45,0,0,1,.86,2.38,3.4,3.4,0,0,1-.83,2.38,3.82,3.82,0,0,1-5,0Zm-.6,18.75q.18-4.74.18-7.84c0-2.45-.07-5.21-.21-8.25h6.4q-.21,4.4-.21,8.25c0,2.16.06,4.78.19,7.84Z"/><path class="cls-10" d="M230.38,87.49q5.31,0,7.39,2.08a7.93,7.93,0,0,1,2.08,5.85,10.61,10.61,0,0,1-.83,4.41,5.86,5.86,0,0,1-2.91,2.83,13.21,13.21,0,0,1-5.73,1h-5.55v5.18h-6.56q.21-5.72.21-10.7t-.21-10.7h6.56v0ZM228.51,98a20.62,20.62,0,0,0,3.32-.2,2.52,2.52,0,0,0,1.55-.69,2.17,2.17,0,0,0,.44-1.47,2.23,2.23,0,0,0-.41-1.46,2.48,2.48,0,0,0-1.52-.67,25,25,0,0,0-3.38-.17h-3.68V98Z"/><path class="cls-10" d="M248.17,97.13q1.11-4.45,5.57-4.45a9.11,9.11,0,0,1,1.5.12l-.86,6.6a8.71,8.71,0,0,0-3.15-.8,2.58,2.58,0,0,0-2.24,1,4.5,4.5,0,0,0-.72,2.68v0l0,1.95c0,1.39,0,2.94.1,4.65H242q.21-4.24.21-8T242,92.77c1.17.06,2.07.09,2.69.09s1.56,0,2.7-.09Z"/><path class="cls-10" d="M270.68,101.49H262A3.7,3.7,0,0,0,263,103.6a3.29,3.29,0,0,0,2.39.81,4.75,4.75,0,0,0,2.1-.48,4,4,0,0,0,1.58-1.38,39.47,39.47,0,0,0,4.74,2.1,6.51,6.51,0,0,1-3,3.28,11.42,11.42,0,0,1-5.66,1.23c-3,0-5.26-.77-6.71-2.32a8.52,8.52,0,0,1-2.18-6.08,8.39,8.39,0,0,1,2.16-6c1.44-1.53,3.69-2.3,6.73-2.3a10.56,10.56,0,0,1,4.72,1A7.27,7.27,0,0,1,273,96.26a7.72,7.72,0,0,1,1.07,4.08,10.41,10.41,0,0,1-.05,1.15Zm-7.31-4a3,3,0,0,0-1.2,1.54h6.3a3.24,3.24,0,0,0-1-1.52,2.94,2.94,0,0,0-1.87-.58A4,4,0,0,0,263.37,97.48Z"/><path class="cls-10" d="M290.68,93.56a7.08,7.08,0,0,1,2.16,3,10.56,10.56,0,0,1,.78,4.11,11.2,11.2,0,0,1-.78,4.17,7.72,7.72,0,0,1-2.17,3.15,4.77,4.77,0,0,1-3.19,1.2,6.42,6.42,0,0,1-3.56-1,5.72,5.72,0,0,1-2.2-3c0,1.12,0,2.92.11,5.39s.11,4.09.11,5.07h-6c.1-3.65.16-7.48.16-11.46s-.06-7.82-.16-11.47H281l.77,3.68a5.83,5.83,0,0,1,2.24-3,6.38,6.38,0,0,1,3.52-1A4.94,4.94,0,0,1,290.68,93.56Zm-4,9.45a3,3,0,0,0,.82-2.19,3.81,3.81,0,0,0-.75-2.45,2.44,2.44,0,0,0-2-.94,2.92,2.92,0,0,0-2.21.78,3.7,3.7,0,0,0-.75,2.61,3,3,0,0,0,.48,1.72,2.8,2.8,0,0,0,1.15,1,3,3,0,0,0,1.28.31A2.68,2.68,0,0,0,286.72,103Z"/></svg>