<svg id="圖層_1" data-name="圖層 1" xmlns="http://www.w3.org/2000/svg" viewBox="0 0 359.84 133.09"><defs><style>.cls-1{fill:#fff;}.cls-2{fill:#00ace7;}.cls-3{fill:#9ed9e5;}.cls-4{fill:#ffd44f;}.cls-5{opacity:0.3;}.cls-6,.cls-7{font-size:54.21px;letter-spacing:0.09em;}.cls-6,.cls-8{fill:#a5a5a5;}.cls-11,.cls-6,.cls-7{font-family:DelaGothicOne-Regular, Dela Gothic One;}.cls-7{fill:#00a3db;}.cls-9{fill:#ffbe61;}.cls-10{fill:#c6a063;}.cls-11{font-size:29.48px;fill:#78bf7c;}.cls-12{letter-spacing:-0.05em;}.cls-13{letter-spacing:0em;}.cls-14{letter-spacing:-0.03em;}</style></defs><path class="cls-1" d="M320.18,6.18H39.66C21.17,6.18,6.18,22,6.18,41.42h0c0,19.46,15,35.24,33.48,35.24h47a36.63,36.63,0,0,0-3.19,15h0c0,19.46,15,35.24,33.48,35.24h160c18.49,0,33.48-15.78,33.48-35.24h0a36.63,36.63,0,0,0-3.19-15h13c18.49,0,33.48-15.78,33.48-35.24h0C353.66,22,338.67,6.18,320.18,6.18Z"/><path class="cls-2" d="M276.92,133.09h-160c-21.87,0-39.66-18.58-39.66-41.42a43.3,43.3,0,0,1,.9-8.83H39.66C17.79,82.84,0,64.26,0,41.42S17.79,0,39.66,0H320.18c21.87,0,39.66,18.58,39.66,41.42s-17.79,41.42-39.66,41.42h-4.5a43.3,43.3,0,0,1,.9,8.83C316.58,114.51,298.79,133.09,276.92,133.09ZM39.66,4.12c-19.6,0-35.54,16.73-35.54,37.3s15.94,37.3,35.54,37.3H83.47l-.72,2.61a38.83,38.83,0,0,0-1.38,10.34c0,20.56,15.94,37.3,35.54,37.3h160c19.6,0,35.54-16.74,35.54-37.3a38.84,38.84,0,0,0-1.39-10.34l-.72-2.61h9.83c19.6,0,35.54-16.73,35.54-37.3s-15.94-37.3-35.54-37.3Z"/><path class="cls-3" d="M276.92,129h-160c-19.6,0-35.54-16.74-35.54-37.3a38.72,38.72,0,0,1,2.2-13H39.66C20.06,78.72,4.12,62,4.12,41.42S20.06,4.12,39.66,4.12H320.18c19.6,0,35.54,16.73,35.54,37.3s-15.94,37.3-35.54,37.3h-9.93a38.47,38.47,0,0,1,2.21,13C312.46,112.23,296.52,129,276.92,129ZM39.66,8.24C22.34,8.24,8.24,23.13,8.24,41.42S22.34,74.6,39.66,74.6H89.8l-1.3,2.9a34.34,34.34,0,0,0-3,14.17c0,18.29,14.09,33.18,31.42,33.18h160c17.32,0,31.42-14.89,31.42-33.18a34.5,34.5,0,0,0-3-14.17L304,74.6h16.15c17.33,0,31.42-14.89,31.42-33.18S337.51,8.24,320.18,8.24Z"/><path class="cls-4" d="M92.51,87.38A1.4,1.4,0,0,1,92,86.05a20.44,20.44,0,0,1,23.46-17,1.38,1.38,0,0,1,1.13,1.58A1.36,1.36,0,0,1,115,71.76,17.69,17.69,0,0,0,94.67,86.47a1.38,1.38,0,0,1-1.57,1.15A1.47,1.47,0,0,1,92.51,87.38Z"/><path class="cls-4" d="M98.37,88.28A1.38,1.38,0,0,1,97.81,87a14.5,14.5,0,0,1,16.71-12,1.37,1.37,0,1,1-.45,2.7,11.78,11.78,0,0,0-13.55,9.77,1.37,1.37,0,0,1-2.15.9Z"/><path class="cls-4" d="M104.36,89.2a1.35,1.35,0,0,1-.55-1.33,8.41,8.41,0,0,1,9.8-7,1.37,1.37,0,0,1-.48,2.7,5.6,5.6,0,0,0-4.36,1,5.73,5.73,0,0,0-2.26,3.69,1.36,1.36,0,0,1-1.57,1.13A1.3,1.3,0,0,1,104.36,89.2Z"/><g class="cls-5"><text class="cls-6" transform="translate(27.89 65.17) scale(0.83 1)">全民英檢i學網</text></g><text class="cls-7" transform="translate(25.4 62.27) scale(0.83 1)">全民英檢i學網</text><g class="cls-5"><polygon class="cls-8" points="280.58 75.53 286.97 58.7 313.7 78.48 280.58 75.53"/><rect class="cls-8" x="256.11" y="78.47" width="45.4" height="2.86" transform="translate(105.11 312.17) rotate(-69.2)"/></g><polygon class="cls-9" points="279.06 72.16 285.45 55.33 312.18 75.1 279.06 72.16"/><rect class="cls-10" x="254.6" y="75.09" width="45.4" height="2.86" transform="translate(107.29 308.57) rotate(-69.2)"/><text class="cls-11" transform="translate(107.52 108.86) scale(0.9 1)">GE<tspan class="cls-12" x="52.65" y="0">P</tspan><tspan class="cls-13" x="77.38" y="0">T iP</tspan><tspan class="cls-14" x="147.43" y="0">r</tspan><tspan class="cls-13" x="163.55" y="0">ep</tspan></text></svg>