<svg xmlns="http://www.w3.org/2000/svg" width="30" height="29.999" viewBox="0 0 30 29.999">
  <g id="Group_1" data-name="Group 1" transform="translate(-979.587 -509.295)">
    <path id="Path_6868" data-name="Path 6868" d="M994.587,509.295a15,15,0,1,0,15,15A15,15,0,0,0,994.587,509.295Zm.027,4.506a4.154,4.154,0,1,1-4.18,4.045A4.167,4.167,0,0,1,994.614,513.8Zm7.55,18.625v0c0,.2-.212.36-.476.36h-14.2a.43.43,0,0,1-.476-.36c0-1.656,0-1.726,0-3.427a4.5,4.5,0,0,1,.088-.8,4.779,4.779,0,0,1,2.041-2.93,9.414,9.414,0,0,1,8.341-1.252,6.875,6.875,0,0,1,3.88,2.615,4.292,4.292,0,0,1,.807,2.6C1002.155,531.038,1002.164,530.621,1002.164,532.426Z" transform="translate(0 0)" fill="#e4bce8"/>
  </g>
</svg>
