<?xml version="1.0" encoding="utf-8"?>
<!-- Generator: Adobe Illustrator 16.0.0, SVG Export Plug-In . SVG Version: 6.00 Build 0)  -->
<!DOCTYPE svg PUBLIC "-//W3C//DTD SVG 1.1//EN" "http://www.w3.org/Graphics/SVG/1.1/DTD/svg11.dtd">
<svg version="1.1" xmlns="http://www.w3.org/2000/svg" xmlns:xlink="http://www.w3.org/1999/xlink" x="0px" y="0px" width="500px"
	 height="500px" viewBox="0 0 500 500" enable-background="new 0 0 500 500" xml:space="preserve">
<g id="Bg">
</g>
<g id="Object">
	<g>
		<path fill="#616E7D" d="M17.008,16.77C7.664,17.591,0.522,25.391,0.522,34.762v413.535c0,8.793,6.262,16.251,14.91,17.797
			l188.744,33.62c5.275,0.946,10.677-0.482,14.773-3.937c4.11-3.442,6.466-8.496,6.466-13.842V18.074
			c0-5.101-2.098-9.887-5.85-13.325c-3.769-3.444-8.729-5.128-13.813-4.677L17.008,16.77z M175.938,274.713
			c-7.769,0-14.072-11.081-14.072-24.718c0-13.661,6.303-24.708,14.072-24.708c7.779,0,14.083,11.047,14.083,24.708
			C190.021,263.632,183.717,274.713,175.938,274.713z"/>
		<polygon fill="#AAD4C8" points="499.478,240.316 351.953,130.778 351.953,187.604 237.338,187.604 237.338,292.345 
			351.953,292.345 351.953,349.153 		"/>
		<path fill="#FFFFFF" d="M161.866,249.995c0,13.637,6.303,24.718,14.072,24.718c7.779,0,14.083-11.081,14.083-24.718
			c0-13.661-6.304-24.708-14.083-24.708C168.169,225.287,161.866,236.334,161.866,249.995z"/>
		<path fill="#616E7D" d="M339.109,171.498V30.118c0-3.706-1.492-7.339-4.121-9.961c-2.604-2.619-6.235-4.128-9.935-4.128h-87.716
			v28.158h73.627v127.311H339.109z"/>
		<path fill="#616E7D" d="M237.338,455.809v28.16h87.716c3.699,0,7.331-1.497,9.935-4.132c2.629-2.614,4.121-6.251,4.121-9.956
			V307.595h-28.145v148.214H237.338z"/>
	</g>
</g>
</svg>
