<svg id="Group_1" data-name="Group 1" xmlns="http://www.w3.org/2000/svg" width="20" height="20.115" viewBox="0 0 20 20.115">
  <path id="Path_6869" data-name="Path 6869" d="M896.546,533.884c.619.16,1.255.271,1.853.489a8.149,8.149,0,0,1,4.055,12.217c-.053.081-.1.168-.164.28l5.181,5.168L905.506,554l-5.076-5.087a27.179,27.179,0,0,1-3.013,1.116,8.16,8.16,0,0,1-9.865-6.79,2.017,2.017,0,0,0-.081-.279v-1.848a.821.821,0,0,0,.077-.186,8.161,8.161,0,0,1,6.106-6.79c.347-.087.7-.168,1.043-.251Zm-.918,2.422a5.764,5.764,0,0,0,.04,11.528,5.764,5.764,0,1,0-.04-11.528Z" transform="translate(-887.471 -533.884)" fill="#969696"/>
</svg>
