<svg xmlns="http://www.w3.org/2000/svg" xmlns:xlink="http://www.w3.org/1999/xlink" viewBox="0 0 319.05 57.82"><defs><radialGradient id="未命名漸層_12" cx="24.33" cy="26.23" r="7.11" gradientUnits="userSpaceOnUse"><stop offset=".25" stop-color="#fff"/><stop offset=".29" stop-color="#fff"/><stop offset=".41" stop-color="#fff"/><stop offset=".5" stop-color="#fff"/><stop offset=".54" stop-color="#fff"/><stop offset=".55" stop-color="#fff"/><stop offset=".65" stop-color="#fff"/><stop offset=".76" stop-color="#fff"/><stop offset=".87" stop-color="#fff"/><stop offset="1" stop-color="#fff"/></radialGradient><radialGradient id="未命名漸層_12-2" cx="24.33" cy="26.23" r="7.11" xlink:href="#未命名漸層_12"/><radialGradient id="未命名漸層_12-3" cx="24.33" cy="26.23" r="7.11" xlink:href="#未命名漸層_12"/><radialGradient id="未命名漸層_12-4" cx="24.33" cy="26.23" r="7.11" xlink:href="#未命名漸層_12"/><radialGradient id="未命名漸層_12-5" cx="24.33" cy="26.23" r="7.11" xlink:href="#未命名漸層_12"/><radialGradient id="未命名漸層_12-6" cx="24.33" cy="26.23" r="7.11" xlink:href="#未命名漸層_12"/><radialGradient id="未命名漸層_12-7" cx="24.33" cy="26.23" r="7.11" xlink:href="#未命名漸層_12"/><radialGradient id="未命名漸層_12-8" cx="24.33" cy="26.23" r="7.11" xlink:href="#未命名漸層_12"/><radialGradient id="未命名漸層_12-9" cx="24.33" cy="26.23" r="7.11" xlink:href="#未命名漸層_12"/><radialGradient id="未命名漸層_12-10" cx="24.33" cy="26.23" r="7.11" xlink:href="#未命名漸層_12"/><radialGradient id="未命名漸層_12-11" cx="24.33" cy="26.23" r="7.11" xlink:href="#未命名漸層_12"/><radialGradient id="未命名漸層_12-12" cx="84.97" cy="89.69" r="7.11" gradientTransform="rotate(-4.35 -791.8 866.843)" xlink:href="#未命名漸層_12"/><radialGradient id="未命名漸層_12-13" cx="24.33" cy="26.23" r="7.11" xlink:href="#未命名漸層_12"/><radialGradient id="未命名漸層_12-14" cx="24.33" cy="26.23" r="7.11" xlink:href="#未命名漸層_12"/><radialGradient id="未命名漸層_12-15" cx="24.33" cy="26.23" r="7.11" xlink:href="#未命名漸層_12"/><radialGradient id="未命名漸層_12-16" cx="24.33" cy="26.23" r="7.11" xlink:href="#未命名漸層_12"/><radialGradient id="未命名漸層_12-17" cx="24.33" cy="26.23" r="7.11" xlink:href="#未命名漸層_12"/><radialGradient id="未命名漸層_12-18" cx="24.33" cy="26.23" r="7.11" xlink:href="#未命名漸層_12"/><radialGradient id="未命名漸層_12-19" cx="24.33" cy="26.23" r="7.11" xlink:href="#未命名漸層_12"/><radialGradient id="未命名漸層_12-20" cx="24.33" cy="26.23" r="7.11" xlink:href="#未命名漸層_12"/><radialGradient id="未命名漸層_12-22" cx="24.33" cy="26.23" r="7.11" xlink:href="#未命名漸層_12"/><radialGradient id="未命名漸層_12-23" cx="24.33" cy="26.23" r="7.11" xlink:href="#未命名漸層_12"/><radialGradient id="未命名漸層_12-25" cx="24.33" cy="26.23" r="7.11" xlink:href="#未命名漸層_12"/><radialGradient id="未命名漸層_12-26" cx="24.33" cy="26.23" r="7.11" xlink:href="#未命名漸層_12"/><radialGradient id="未命名漸層_12-27" cx="24.33" cy="26.23" r="7.11" xlink:href="#未命名漸層_12"/><radialGradient id="未命名漸層_12-28" cx="24.33" cy="26.23" r="7.11" xlink:href="#未命名漸層_12"/><radialGradient id="未命名漸層_12-29" cx="24.33" cy="26.23" r="7.11" xlink:href="#未命名漸層_12"/><radialGradient id="未命名漸層_12-30" cx="24.33" cy="26.23" r="7.11" xlink:href="#未命名漸層_12"/><radialGradient id="未命名漸層_12-31" cx="24.33" cy="26.23" r="7.11" xlink:href="#未命名漸層_12"/><radialGradient id="未命名漸層_12-32" cx="24.33" cy="26.23" r="7.11" xlink:href="#未命名漸層_12"/><radialGradient id="未命名漸層_12-33" cx="24.33" cy="26.23" r="7.11" xlink:href="#未命名漸層_12"/><radialGradient id="未命名漸層_12-36" cx="24.33" cy="26.23" r="7.11" xlink:href="#未命名漸層_12"/><radialGradient id="未命名漸層_12-37" cx="24.33" cy="26.23" r="7.11" xlink:href="#未命名漸層_12"/><radialGradient id="未命名漸層_12-38" cx="24.33" cy="26.23" r="7.11" xlink:href="#未命名漸層_12"/><radialGradient id="未命名漸層_12-39" cx="24.33" cy="26.23" r="7.11" xlink:href="#未命名漸層_12"/><radialGradient id="未命名漸層_12-40" cx="24.33" cy="26.23" r="7.11" xlink:href="#未命名漸層_12"/><radialGradient id="未命名漸層_12-41" cx="24.33" cy="26.23" r="7.11" xlink:href="#未命名漸層_12"/><radialGradient id="未命名漸層_12-43" cx="24.33" cy="26.23" r="7.11" xlink:href="#未命名漸層_12"/><radialGradient id="未命名漸層_12-44" cx="24.33" cy="26.23" r="7.11" xlink:href="#未命名漸層_12"/><radialGradient id="未命名漸層_12-45" cx="24.33" cy="26.23" r="7.11" xlink:href="#未命名漸層_12"/><radialGradient id="未命名漸層_12-47" cx="24.33" cy="26.23" r="7.11" xlink:href="#未命名漸層_12"/><radialGradient id="未命名漸層_12-48" cx="24.33" cy="26.23" r="7.11" xlink:href="#未命名漸層_12"/><radialGradient id="未命名漸層_12-49" cx="24.33" cy="26.23" r="7.11" xlink:href="#未命名漸層_12"/><radialGradient id="未命名漸層_12-50" cx="24.33" cy="26.23" r="7.11" xlink:href="#未命名漸層_12"/><radialGradient id="未命名漸層_12-51" cx="24.33" cy="26.23" r="7.11" xlink:href="#未命名漸層_12"/><radialGradient id="未命名漸層_12-52" cx="24.33" cy="26.23" r="7.11" xlink:href="#未命名漸層_12"/><radialGradient id="未命名漸層_12-53" cx="24.33" cy="26.23" r="7.11" xlink:href="#未命名漸層_12"/><radialGradient id="未命名漸層_12-54" cx="24.33" cy="26.23" r="7.11" xlink:href="#未命名漸層_12"/><style>.cls-6{fill:url(#未命名漸層_12-4)}.cls-20{fill:url(#未命名漸層_12-18)}.cls-30{fill:url(#未命名漸層_12-30)}</style></defs><g id="Layer_2" data-name="Layer 2"><g id="圖層_1" data-name="圖層 1"><path d="M93.83 31.48a.48.48 0 01-.48-.49v-2.21a.33.33 0 00-.33-.33h-7.85a.49.49 0 01-.49-.48V27a.49.49 0 01.49-.49H93a.32.32 0 00.33-.32v-1a.33.33 0 00-.33-.33h-7.24a.48.48 0 01-.49-.48v-.95a.49.49 0 01.49-.49H88a.32.32 0 00.32-.32v-1.41a.32.32 0 00-.32-.32h-3a.49.49 0 01-.48-.49v-.94a.49.49 0 01.48-.49h3a.32.32 0 00.32-.32v-1.44a.32.32 0 00-.32-.32h-2.24a.49.49 0 01-.49-.49v-.95a.48.48 0 01.49-.48h17.13a.48.48 0 01.49.48v.95a.49.49 0 01-.49.49h-2.06a.32.32 0 00-.33.32v1.44a.32.32 0 00.33.32h2.82a.49.49 0 01.49.49v.94a.49.49 0 01-.49.49h-2.82a.32.32 0 00-.33.32v1.44a.32.32 0 00.33.32h2a.49.49 0 01.48.49v.95a.48.48 0 01-.48.48h-7.16a.32.32 0 00-.32.33v1a.32.32 0 00.32.32h7.73a.48.48 0 01.48.49V28a.48.48 0 01-.48.48h-7.73a.32.32 0 00-.32.33V31a.49.49 0 01-.49.49zm1.84-10.59a.32.32 0 00-.32.32v1.44a.32.32 0 00.32.32h2.51a.32.32 0 00.32-.32v-1.44a.32.32 0 00-.32-.32zm-5.07 0a.32.32 0 00-.33.32v1.44a.32.32 0 00.33.32H93a.32.32 0 00.33-.32v-1.44a.32.32 0 00-.33-.32zm5.07-4a.32.32 0 00-.32.32v1.44a.32.32 0 00.32.32h2.51a.32.32 0 00.32-.32v-1.44a.32.32 0 00-.32-.32zm-5.07 0a.32.32 0 00-.33.32v1.44a.32.32 0 00.33.32H93a.32.32 0 00.33-.32v-1.44a.32.32 0 00-.33-.32zm7.2-2.67a.49.49 0 01-.48-.49v-.17a.32.32 0 00-.33-.32h-5.12a.32.32 0 00-.33.32v.17a.49.49 0 01-.48.49H90a.49.49 0 01-.49-.49v-.17a.32.32 0 00-.32-.32h-4.28a.49.49 0 01-.48-.49v-.95a.49.49 0 01.48-.48h4.31a.32.32 0 00.32-.33v-.39a.48.48 0 01.49-.48h1a.48.48 0 01.48.48v.4a.33.33 0 00.33.33H97a.33.33 0 00.33-.33v-.4a.48.48 0 01.48-.48h1a.48.48 0 01.49.48v.4a.32.32 0 00.32.33h4a.49.49 0 01.49.48v.95a.49.49 0 01-.49.49h-4a.32.32 0 00-.32.32v.17a.49.49 0 01-.49.49zm33.86 16.72a.7.7 0 01-.66-.7V11.65a.63.63 0 01.66-.69h17.48a.65.65 0 01.68.69v18.59a.72.72 0 01-.68.7zm1.45-18.06c-.07 0-.11 0-.11.12v15.91c0 .1 0 .11.11.11h14.6c.07 0 .11 0 .11-.11V13c0-.1 0-.12-.11-.12h-1.4a.33.33 0 00-.26.13.31.31 0 000 .28q.15.46.3 1h.5a.48.48 0 01.47.48v1a.48.48 0 01-.48.48h-3.34a.32.32 0 00-.24.11.33.33 0 00-.07.24 50.38 50.38 0 00.85 5 22.79 22.79 0 001.26-4 .47.47 0 01.46-.37h.13l.85.23a.47.47 0 01.26.54 25.73 25.73 0 01-2.21 5.89.38.38 0 00-.06.34c.19.58.39 1.12.59 1.61a3 3 0 00.36.69s.09-.11.1-.38a13.8 13.8 0 000-1.8.47.47 0 01.13-.36.45.45 0 01.35-.15h.11l.8.19a.48.48 0 01.36.49 14.6 14.6 0 01-.49 3.65 1.34 1.34 0 01-.61.64 1.41 1.41 0 01-.53.12h-.1a2.05 2.05 0 01-1.28-.85 14 14 0 01-1-2.1 29.82 29.82 0 01-2 2.58.5.5 0 01-.37.17.48.48 0 01-.3-.11l-.76-.59a.5.5 0 01-.18-.35.52.52 0 01.13-.38 19.56 19.56 0 002.71-3.36.28.28 0 000-.25 43.58 43.58 0 01-1.45-7.24.31.31 0 00-.31-.28h-6.68a.49.49 0 01-.49-.49v-.93a.5.5 0 01.49-.5h6.4a.29.29 0 00.23-.1.3.3 0 00.08-.24c0-.25-.05-.49-.06-.73a.32.32 0 00-.32-.3zm10 0a.33.33 0 00-.23.1.31.31 0 00-.08.24l.06.74a.32.32 0 00.32.29h1.18c-.14-.44-.28-.83-.41-1.16a.33.33 0 00-.31-.21zm-8.55 14.44a.47.47 0 01-.46-.37l-.24-1a.46.46 0 01.07-.38.48.48 0 01.33-.21 41.31 41.31 0 006.28-1.26h.14a.47.47 0 01.46.36l.26 1a.5.5 0 01-.32.6 37 37 0 01-6.46 1.3zm-.27-3.58a.43.43 0 01-.43-.46v-5.56a.41.41 0 01.43-.44h6.28a.42.42 0 01.45.44v5.56a.45.45 0 01-.45.46zm4.89-1.74v-3h-3.5v3zm26.53 9.56a8.92 8.92 0 01-2.22-.36.49.49 0 01-.36-.48v-1.06a.49.49 0 01.48-.48h.14a6.28 6.28 0 001.6.3.78.78 0 00.5-.12.71.71 0 00.16-.54V25.1a.34.34 0 00-.34-.34H161a.49.49 0 01-.49-.49v-1a.49.49 0 01.49-.49h11.62a.5.5 0 01.5.5v1a.5.5 0 01-.5.5h-4.29a.32.32 0 00-.32.32v4.23a2.28 2.28 0 01-1 1.93 2.18 2.18 0 01-1.3.3zm-11.36-.08a.48.48 0 01-.48-.48V11.36A.56.56 0 01154 11a.54.54 0 01.35-.13h3.87a.5.5 0 01.26.08l.82.53a.48.48 0 01.2.53l-.64 2.52a9 9 0 001.23-1.29 16.2 16.2 0 001.28-2.63.41.41 0 01.4-.27h.87a.44.44 0 01.35.17.45.45 0 01.06.39v.06h3.21a.46.46 0 01.23.06l.85.46a.49.49 0 01.23.57v.05a25.29 25.29 0 001.35 3.09.29.29 0 00.26.16.28.28 0 00.22-.11c.61-.72 1.18-1.42 1.69-2.1H169a.48.48 0 01-.49-.48v-.86a.49.49 0 01.49-.49h3.6a.47.47 0 01.42.26l.43.84a.47.47 0 010 .46 25.51 25.51 0 01-3.11 4 .31.31 0 000 .43 18.88 18.88 0 002.85 2.57.47.47 0 01.19.38.46.46 0 01-.16.38l-.75.66a.49.49 0 01-.64 0c-.42-.35-.84-.71-1.23-1.09a.3.3 0 00-.19-.08.29.29 0 00-.29.29v.25a.47.47 0 01-.48.48h-5.48a.48.48 0 01-.48-.48v-.79a.16.16 0 00-.16-.16.15.15 0 00-.11.05 21 21 0 01-2.41 1.89.5.5 0 01-.27.08.49.49 0 01-.34-.14l-.66-.69a.49.49 0 01-.13-.4.46.46 0 01.23-.35 14.5 14.5 0 002.34-1.67.33.33 0 00.1-.23.32.32 0 00-.1-.23c-.54-.51-1.32-1.18-2.33-2a.45.45 0 01-.41.26.44.44 0 01-.35-.17l-.39-.48-.51 2a.65.65 0 00.06.7 11.74 11.74 0 011.55 3.34 5.19 5.19 0 01-.3 3.89 2.06 2.06 0 01-1.17.88 4.22 4.22 0 01-.9.09 6.71 6.71 0 01-1.34-.14.19.19 0 00-.18.18V31a.48.48 0 01-.48.48zm1.43-7.2a2.43 2.43 0 001.26.39 1.66 1.66 0 00.32 0 .6.6 0 00.45-.31c.49-1-.05-3-1.61-5.81a.57.57 0 010-.37l1.31-5.1a.24.24 0 00-.28-.37h-1.38zm13.5-5.18a.14.14 0 00.12-.07.12.12 0 000-.15 17.93 17.93 0 01-2.66-4.14A13.52 13.52 0 01164 19.1zM161 14.76l1.11.94c.41.35.79.7 1.13 1a.35.35 0 00.22.08.31.31 0 00.25-.13l.37-.53a1.5 1.5 0 01.09-.18 17.94 17.94 0 00-2.77-1.45h-.08a.21.21 0 00-.17.08zm1.22-1.84l1.58.81c.3.15.59.31.87.47a.42.42 0 00.16 0 .33.33 0 00.29-.19l.3-.72c.08-.41 0-.53 0-.56h-2.9a.24.24 0 00-.23.14zm-2.64 17.78a.49.49 0 01-.39-.19l-.65-.86a.44.44 0 01-.09-.38.48.48 0 01.23-.32 12.07 12.07 0 003.52-3.12.47.47 0 01.38-.19.46.46 0 01.3.11l.77.62a.49.49 0 01.08.67 14.11 14.11 0 01-3.92 3.6.46.46 0 01-.23.06zm12.54 0a.5.5 0 01-.42-.25 25.73 25.73 0 00-2.35-3.45.52.52 0 01-.11-.36.48.48 0 01.18-.33l.76-.62a.51.51 0 01.31-.11.48.48 0 01.37.17 23.82 23.82 0 012.48 3.62.48.48 0 01-.13.64l-.8.58a.48.48 0 01-.29.1zm65.88.92a11.83 11.83 0 01-2.92-.45.44.44 0 01-.34-.45v-1.34a.46.46 0 01.46-.45h.13a9.71 9.71 0 002.46.49 1.17 1.17 0 00.65-.15.94.94 0 00.45-.83v-.9a.33.33 0 00-.33-.33h-9a.32.32 0 00-.32.32V31a.49.49 0 01-.49.49h-1a.49.49 0 01-.49-.49V19.72a.21.21 0 00-.21-.2.21.21 0 00-.13.05 22.69 22.69 0 01-2.72 1.83.42.42 0 01-.24.07.5.5 0 01-.4-.21l-.73-1a.49.49 0 01-.07-.39.44.44 0 01.24-.31 22.08 22.08 0 006.23-5 .32.32 0 00.05-.34.3.3 0 00-.29-.19h-5.64a.49.49 0 01-.5-.49v-1.08a.5.5 0 01.5-.5h7.57a.35.35 0 00.29-.16l.7-1.2a.49.49 0 01.42-.25.5.5 0 01.27.08l.94.62a.48.48 0 01.16.66l-.08.12a.13.13 0 000 .09.1.1 0 00.08 0h8.61a.5.5 0 01.5.51v1.08a.5.5 0 01-.5.51h-9.91a.33.33 0 00-.27.14 23.6 23.6 0 01-1.74 2.17.19.19 0 00.14.31h9.88c.36 0 .54.2.54.57v12a2.22 2.22 0 01-.9 1.87 3.43 3.43 0 01-2.05.54zm.91-6.49v-1.74a.34.34 0 00-.34-.34h-9a.33.33 0 00-.33.33v1.75zm0-4.18v-2.09c0-.07 0-.08-.08-.08h-9.51c-.05 0-.07 0-.07.07V21zm13.19 10.71a.47.47 0 01-.46-.39l-.21-1.16a.51.51 0 01.08-.36.48.48 0 01.31-.19c.58-.1 1.15-.19 1.7-.26a.33.33 0 00.27-.32V11.64a.59.59 0 01.63-.66h9.26a.6.6 0 01.65.66v8.83c0 .47-.23.71-.67.71h-4a.3.3 0 00-.25.12.31.31 0 00-.06.28 17 17 0 00.94 2.82.33.33 0 00.3.2.34.34 0 00.19-.07 25 25 0 002.65-2.27.5.5 0 01.35-.14.46.46 0 01.38.18l.68.84a.49.49 0 010 .66 24.59 24.59 0 01-3 2.57.32.32 0 00-.13.22.3.3 0 00.07.24 14.23 14.23 0 003.52 2.89.51.51 0 01.23.37.47.47 0 01-.14.4l-.82.83a.5.5 0 01-.35.14.52.52 0 01-.29-.09c-.69-.5-1.31-1-1.83-1.42a15 15 0 01-4.75-8.52.33.33 0 00-.32-.25h-.85a.32.32 0 00-.33.32v7a.32.32 0 00.32.32h.08c.79-.19 1.52-.41 2.17-.62a.45.45 0 01.16 0 .51.51 0 01.51.4l.24 1.05a.51.51 0 01-.33.61 33.77 33.77 0 01-6.78 1.47zm4-14.49a.33.33 0 00-.32.33v1.25a.34.34 0 00.34.33h6a.2.2 0 00.21-.23V17.5a.32.32 0 00-.32-.33zm.05-4.09c-.25 0-.37.12-.37.39v1.29a.33.33 0 00.32.32h5.9a.32.32 0 00.32-.32v-1.29c0-.27-.12-.39-.38-.39zm-9.49 18.33a.49.49 0 01-.48-.49V11.38a.35.35 0 01.08-.26.33.33 0 01.25-.09h5.13a.47.47 0 01.28.09l.94.66a.5.5 0 01.19.55l-1.81 5.55a.56.56 0 000 .58 9.88 9.88 0 011.6 2.88 4.84 4.84 0 01-.17 3.94 2.81 2.81 0 01-1.36 1.17 4.45 4.45 0 01-1.39.22 6.6 6.6 0 01-1.35-.16h-.07a.32.32 0 00-.32.32v4.1a.49.49 0 01-.49.49zm1.6-18.41h-.06v11a.32.32 0 00.18.29 3 3 0 001.34.33 2.68 2.68 0 00.62-.07.87.87 0 00.62-.47c.53-1.08-.08-2.92-1.83-5.46a.24.24 0 01-.06-.18.57.57 0 000-.14l1.58-4.91a.31.31 0 000-.25.28.28 0 00-.21-.06h-2.23zm38.44 18.23a.48.48 0 01-.43-.26c-.27-.48-.56-1-.86-1.49a.36.36 0 00-.29-.16l-15.42 1.33a.48.48 0 01-.46-.35l-.31-1.23a.48.48 0 01.08-.4.46.46 0 01.34-.19l1.41-.1a1 1 0 00.78-.49 72 72 0 004.46-9.54.46.46 0 01.44-.31.49.49 0 01.2.05l1.06.49a.48.48 0 01.25.6 72.54 72.54 0 01-3.95 8.41.36.36 0 00.32.53l9.11-.73a.35.35 0 00.28-.19.33.33 0 000-.33c-1-1.62-2-3-2.88-4.17a.5.5 0 01-.1-.39.52.52 0 01.27-.31l.87-.62a.52.52 0 01.71.12 97.28 97.28 0 015.5 8.45.51.51 0 01-.18.68l-.93.55a.59.59 0 01-.27.05zm.25-9.57a.48.48 0 01-.36-.16 17.62 17.62 0 01-2.68-3.61 28.2 28.2 0 01-1.67-4.6c0-.21-.08-.29-.11-.29h-6.64a.47.47 0 01-.48-.48v-1.15a.47.47 0 01.48-.47h7.81c.17 0 .38.07.49.42a16.88 16.88 0 001.58 5.05 13.71 13.71 0 003 3.75.48.48 0 01-.06.75l-1.09.71a.5.5 0 01-.22.08zm-17 0a.54.54 0 01-.28-.08l-1.07-.76a.49.49 0 01-.2-.35.47.47 0 01.13-.37 17.72 17.72 0 003.84-6.24.48.48 0 01.45-.32.47.47 0 01.17 0l1.06.4a.49.49 0 01.27.26.52.52 0 010 .37 21 21 0 01-4 6.91.47.47 0 01-.32.17zm36.22 9.89a17.68 17.68 0 01-3.85-.52.49.49 0 01-.38-.42l-.14-1.25a.49.49 0 01.13-.38.48.48 0 01.36-.16h.11a17.32 17.32 0 003.66.56 2.34 2.34 0 001.21-.24 1.59 1.59 0 00.51-1.25V13.22c0-.16-.07-.23-.23-.23h-15.47a.48.48 0 01-.48-.48v-1.13a.47.47 0 01.48-.48h17.12c.45 0 .68.28.67.77v16.92a2.7 2.7 0 01-.92 2.16 4 4 0 01-2.78.8zm-12.92-4.14a.55.55 0 01-.47-.51v-7.69a.54.54 0 01.47-.48h11.18a.54.54 0 01.49.48v7.69a.56.56 0 01-.49.51zm1.53-6.58v4.48h8.11v-4.47h-8.12zm-2.15-3.92a.48.48 0 01-.48-.49V15.3a.48.48 0 01.48-.49h12.65a.49.49 0 01.49.49v1.12a.49.49 0 01-.49.49zM116.25 31.84a.32.32 0 01-.28-.17l-.55-1.08a.48.48 0 01-.06-.4.33.33 0 01.2-.2 8.27 8.27 0 005.79-5.15.31.31 0 00-.28-.45h-1a.3.3 0 00-.27.16 16.42 16.42 0 01-1.4 2 12 12 0 01-5.31 3.45.41.41 0 01-.16 0 .5.5 0 01-.43-.25l-.5-.9a.49.49 0 010-.41.48.48 0 01.3-.29 21.25 21.25 0 002.8-1.2 8.26 8.26 0 002.07-1.73l.22-.33a.33.33 0 000-.33.33.33 0 00-.28-.17h-1.36a.34.34 0 00-.21.08 13.22 13.22 0 01-2.48 1.7.46.46 0 01-.23.06.48.48 0 01-.4-.2l-.6-.82a.44.44 0 01-.08-.4.47.47 0 01.25-.32l1.09-.58a9.1 9.1 0 002.33-2.12.3.3 0 000-.33.3.3 0 00-.29-.18h-1.47a.31.31 0 01-.31-.32v-1.12a.31.31 0 01.31-.31h12.74a.31.31 0 01.32.31V21a.32.32 0 01-.32.32H118a.32.32 0 00-.29.18c-.12.25-.24.49-.36.71a.31.31 0 000 .32.33.33 0 00.28.16h8.63a1.09 1.09 0 01.39.07.59.59 0 01.29.38v.2c0 3.95-.24 6.25-.67 7a2.58 2.58 0 01-1.37 1.15 3.81 3.81 0 01-1.32.21 8.55 8.55 0 01-2.17-.33.32.32 0 01-.23-.31v-1.5a.31.31 0 01.31-.31h.11a6 6 0 001.82.39 1.21 1.21 0 00.54-.1 1.11 1.11 0 00.54-.44 4 4 0 00.39-1.76 19.05 19.05 0 000-2.91s0-.05-.09-.05h-1.1a.32.32 0 00-.3.21c-1.55 4-3.94 6.45-7.09 7.24zm-7.15-.22a7.05 7.05 0 01-1.48-.2.48.48 0 01-.37-.47v-1.08a.49.49 0 01.48-.48h.14c.38.11.68.18.88.22a.48.48 0 00.3-.13.75.75 0 00.16-.55V24.4a.33.33 0 00-.33-.33.31.31 0 00-.13 0l-.79.35a.43.43 0 01-.19 0 .49.49 0 01-.46-.31l-.4-1.05a.49.49 0 01.25-.62l1.86-.82a.32.32 0 00.19-.3v-4.39a.33.33 0 00-.33-.33h-1.29a.49.49 0 01-.49-.49v-1a.49.49 0 01.49-.48h1.29a.33.33 0 00.33-.33V11a.48.48 0 01.49-.48h1a.48.48 0 01.48.48v3.28a.33.33 0 00.33.33h.83a.49.49 0 01.49.48v1a.49.49 0 01-.49.49h-.83a.33.33 0 00-.33.33v3a.33.33 0 00.33.33.27.27 0 00.18-.05.5.5 0 01.68.16l.53.88a.48.48 0 01-.14.65c-.45.31-.93.61-1.43.91a.34.34 0 00-.16.29v6.33a2.25 2.25 0 01-1 1.93 1.72 1.72 0 01-1.07.28zm5.43-13.07A.54.54 0 01114 18v-6.29c0-.14 0-.5.5-.5h10.88a.5.5 0 01.51.5V18a.49.49 0 01-.51.52zm9.26-1.65a.18.18 0 00.19-.21V16a.32.32 0 00-.32-.31h-7.42a.32.32 0 00-.24.31v.66c0 .18.09.2.17.21h7.67zm-7.66-4a.22.22 0 00-.14.06.17.17 0 000 .13v.68a.32.32 0 00.32.32h7.42a.32.32 0 00.32-.31v-.69c0-.09 0-.19-.21-.19zm79.33 18.96h-.08c-4.62-1.29-7.86-3.87-9.61-7.67a.33.33 0 00-.29-.19h-1.18a.32.32 0 00-.32.32v4.6a.31.31 0 00.31.31h.06c1-.2 2-.42 2.78-.66h.14a.49.49 0 01.47.36L188 30a.49.49 0 01-.33.59 36.11 36.11 0 01-7.5 1.28.48.48 0 01-.48-.45l-.09-1.13a.48.48 0 01.44-.52l1.68-.17a.32.32 0 00.28-.32v-5a.33.33 0 00-.32-.32H180a.32.32 0 00-.31.3 16.35 16.35 0 01-1.63 6.48.48.48 0 01-.42.25.46.46 0 01-.23-.06l-1-.54a.47.47 0 01-.2-.64 17.15 17.15 0 001.64-7.75V11.89a.67.67 0 01.74-.77H195a.71.71 0 01.78.79V16a.71.71 0 01-.78.81h-3a.34.34 0 00-.33.34V18a.34.34 0 00.33.34h2.8a.5.5 0 01.51.5v1a.5.5 0 01-.51.5H192a.33.33 0 00-.33.33v1a.33.33 0 00.33.33h3.73a.51.51 0 01.51.51v1a.51.51 0 01-.51.51h-7.37a.32.32 0 00-.27.16.31.31 0 000 .31 10.67 10.67 0 001.45 2 .3.3 0 00.23.11.35.35 0 00.14 0 30 30 0 003.83-2.05.54.54 0 01.28-.08.49.49 0 01.45.27l.49.94a.52.52 0 01-.17.67 23.92 23.92 0 01-2.67 1.54.32.32 0 000 .57 16.47 16.47 0 003.82 1.36.58.58 0 01.38.3.52.52 0 010 .47l-.47 1.11a.38.38 0 01-.39.16zm-9.76-11.53a.31.31 0 00-.31.31v1a.31.31 0 00.31.31h3.63a.31.31 0 00.31-.31v-1a.31.31 0 00-.31-.31zm-5.62-3.56a.33.33 0 00-.32.32v4.57a.32.32 0 00.32.31h3a.32.32 0 00.32-.31v-1a.33.33 0 00-.32-.32h-2.18a.52.52 0 01-.52-.51v-1a.52.52 0 01.52-.51h2.17a.33.33 0 00.32-.32v-.92a.33.33 0 00-.32-.32zm5.65 0a.35.35 0 00-.34.35V18a.35.35 0 00.34.35h3.57a.35.35 0 00.34-.35v-.86a.35.35 0 00-.34-.35zM180 13.13c-.14 0-.2.06-.2.2v1.11a.33.33 0 00.33.33h13.52c.15 0 .21-.08.21-.23v-1.21c0-.14-.07-.2-.21-.2zm21.35 18.72h-1.25a.5.5 0 01-.48-.48v-1.1a.46.46 0 01.14-.36.51.51 0 01.35-.15c.63 0 1.22.06 1.76.06a10.14 10.14 0 003-.35 1.91 1.91 0 00.38-.33.17.17 0 00-.12-.29H202a.43.43 0 01-.43-.46v-7.54a.39.39 0 01.43-.43h14.82a.4.4 0 01.45.43v7.52a.48.48 0 01-.52.46h-3.63a.34.34 0 00-.3.18.31.31 0 000 .32.54.54 0 00.09.12.89.89 0 00.63.29h3.63a.52.52 0 00.47-.24c0-.05.13-.46.21-.79a.49.49 0 01.47-.36.57.57 0 01.18 0l.84.35a.48.48 0 01.29.53 4.87 4.87 0 01-.6 1.92 1.6 1.6 0 01-1.16.5h-5.41a1.9 1.9 0 01-1.3-.67 2 2 0 01-.53-1.28v-.55a.35.35 0 00-.35-.35H208a.44.44 0 00-.43.3 3.37 3.37 0 01-1.71 2.05 11.18 11.18 0 01-4.51.7zm13.87-4.58a.19.19 0 00.18-.21v-.59h-11.86v.59c0 .15.09.18.18.21h11.5zm-11.68-2.59a.32.32 0 00.32.32h11.22a.32.32 0 00.32-.32v-.43h-11.86zm0-2.22a.31.31 0 00.31.31h11.24a.31.31 0 00.31-.31V22h-11.86zm5.6-2.79a.24.24 0 01-.25-.28v-3.16c0-.17.11-.26.25-.26h9.93c.25 0 .28.19.28.26v3.16a.26.26 0 01-.28.28zm7.31-2.32a.06.06 0 00-.06.06v.81a.06.06 0 00.06.06h1.2a.13.13 0 00.12-.14v-.67a.11.11 0 00-.12-.12zm-2.85 0a.17.17 0 00-.17.17v.59a.16.16 0 00.17.17h1a.26.26 0 00.26-.26v-.41a.26.26 0 00-.26-.26zm-2 .93a.26.26 0 00.26-.26v-.41a.26.26 0 00-.26-.26h-1a.09.09 0 00-.07 0 .09.09 0 000 .07v.67c0 .11.05.13.1.14h1zm-10.94 1.34c-.29 0-.63-.12-.63-.68v-7.25c0-.55.35-.66.63-.66h7.11a.51.51 0 01.35.15.5.5 0 01.12.37l-.07.7a.48.48 0 01-.47.43h-1.64a.31.31 0 00-.31.31v.26a.32.32 0 00.31.32h1.46a.5.5 0 01.51.5v2.49c0 .44-.29.53-.51.53h-1.46a.31.31 0 00-.31.31v.25a.31.31 0 00.31.32h1.65a.49.49 0 01.49.48v.69a.49.49 0 01-.49.48zm1.43-2.53a.32.32 0 00-.32.32v.4c0 .15.07.16.13.16h1.78a.32.32 0 00.32-.32v-.24a.32.32 0 00-.32-.32zM202 15a.28.28 0 00-.28.27v.21a.28.28 0 00.28.27h4.4V15h-.05zm-.15-2.27c-.08 0-.13 0-.13.14v.43a.33.33 0 00.32.32h1.59a.32.32 0 00.32-.32V13a.32.32 0 00-.32-.32zm8.92 2.63a.48.48 0 01-.48-.48v-.61a.48.48 0 01.48-.48h6.83a.49.49 0 01.48.48v.61a.49.49 0 01-.48.48zm-1.5-1a.47.47 0 01-.35-.15 5 5 0 00-.55-.51.49.49 0 01-.08-.66 7.39 7.39 0 001-2.23.48.48 0 01.47-.35h.16l.79.29a.49.49 0 01.3.61h7.64a.48.48 0 01.49.48v.68a.49.49 0 01-.49.49h-8.32a8.34 8.34 0 01-.7 1.11.49.49 0 01-.32.23zm-117.66 23c0-.61 0-1.24-.08-1.87h1.42c0 .63-.06 1.26-.08 1.87s0 1.23 0 1.87v4.35c0 .61 0 1.22.08 1.82h-1.42c0-.6.06-1.2.08-1.82s0-1.24 0-1.87v-1.3h-6.02v3.17c0 .61 0 1.22.07 1.82h-1.41c0-.6.06-1.2.08-1.82s0-1.24 0-1.87v-4.35c0-.61-.05-1.24-.08-1.87h1.41c0 .63 0 1.26-.07 1.87s0 1.23 0 1.87v.5h6.02v-.5c.04-.64.03-1.23 0-1.87zm3.45 4.56v-3.37a3.07 3.07 0 00.61.07 3 3 0 00.59-.07c0 .57-.08 1.21-.11 1.89s0 1.4 0 2.12a3.7 3.7 0 00.13 1.14 1.41 1.41 0 00.32.6 1.42 1.42 0 00.51.38 1.51 1.51 0 00.73.16 1.79 1.79 0 001-.27 1.77 1.77 0 00.59-.66c.06-.16.12-.3.16-.42a4.16 4.16 0 00.09-.46 7.36 7.36 0 000-.78v-3.7l.3.05h.61l.29-.05c-.05.75-.08 1.47-.09 2.17s0 1.43 0 2.21v2.47h-1.12a2.46 2.46 0 000-.28 2.81 2.81 0 000-.3v-.62a2.46 2.46 0 01-1 1 2.67 2.67 0 01-1.28.32 2.5 2.5 0 01-1.77-.6 2.21 2.21 0 01-.62-1.7c0-.51.05-.94.06-1.3zm8.94-3.34a3.55 3.55 0 011.12-.18 2.87 2.87 0 011 .15 2.17 2.17 0 01.74.44 1.94 1.94 0 01.49.67 2.3 2.3 0 01.17.88v3.73a1.14 1.14 0 00.07.34.54.54 0 00.16.25.45.45 0 00.25.14h.15a.44.44 0 00.15-.05v.32a2.49 2.49 0 01-.4.11 2.82 2.82 0 01-.52 0 1 1 0 01-.72-.23 1 1 0 01-.29-.62 4.14 4.14 0 01-1 .77 2.89 2.89 0 01-1.24.24 2.32 2.32 0 01-.7-.1 1.68 1.68 0 01-.62-.33 1.86 1.86 0 01-.43-.56 1.58 1.58 0 01-.16-.74 1.69 1.69 0 01.54-1.34 2.84 2.84 0 011.48-.63l1.22-.23a3.55 3.55 0 00.65-.19.49.49 0 00.25-.24 1.16 1.16 0 000-.35 2.74 2.74 0 00-.09-.7 1.43 1.43 0 00-.76-1 1.65 1.65 0 00-.74-.15 2.32 2.32 0 00-1.07.26 1.66 1.66 0 00-.7.76h-.16v-.75a3.82 3.82 0 011.16-.67zm1.8 3.42l-.65.12c-.22 0-.44.1-.65.17a2.39 2.39 0 00-.58.27 1.41 1.41 0 00-.4.44 1.53 1.53 0 00.24 1.68 1.26 1.26 0 00.86.35 1.78 1.78 0 001-.3 2.32 2.32 0 00.69-.71l.06-2.16a4.76 4.76 0 01-.57.14zm9.68-1.37c-.19-.31-.4-.66-.62-1l-.72-1.19-.71-1.2-.61-1c-.19-.3-.32-.53-.42-.68h1.59c.43.84.87 1.66 1.32 2.47s.92 1.65 1.42 2.52q.33-.52.69-1.14c.24-.41.48-.84.72-1.27s.47-.87.69-1.3.43-.87.62-1.28a2.32 2.32 0 001.13 0l-1.24 1.9c-.37.57-.69 1.08-1 1.55s-.52.87-.73 1.24-.4.71-.55 1v4.21h-1.41a17.9 17.9 0 00.1-1.82v-2.23q.02-.31-.27-.78zm6.58-2.05a3.61 3.61 0 011.13-.18 2.91 2.91 0 011 .15 2.27 2.27 0 01.74.44 2 2 0 01.48.67 2.13 2.13 0 01.18.88v3.73a.9.9 0 00.06.34.65.65 0 00.17.25.44.44 0 00.18.14h.15a.43.43 0 00.16-.05v.32a2.49 2.49 0 01-.4.11 2.93 2.93 0 01-.53 0 1.05 1.05 0 01-.72-.23 1 1 0 01-.29-.62 3.8 3.8 0 01-1 .77 2.84 2.84 0 01-1.23.24 2.44 2.44 0 01-.71-.1 1.68 1.68 0 01-1-.89 1.58 1.58 0 01-.17-.74 1.69 1.69 0 01.54-1.34 2.88 2.88 0 011.49-.63l1.21-.23a3.32 3.32 0 00.65-.19.45.45 0 00.25-.24 1.13 1.13 0 00.05-.35 2.74 2.74 0 00-.09-.7 1.67 1.67 0 00-.27-.57 1.37 1.37 0 00-.49-.4 1.68 1.68 0 00-.74-.15 2.32 2.32 0 00-1.07.26 1.69 1.69 0 00-.79.73h-.16v-.75a4 4 0 011.22-.67zm1.8 3.37l-.65.12c-.22 0-.44.1-.66.17a2.5 2.5 0 00-.57.27 1.45 1.45 0 00-.17 2.12 1.28 1.28 0 00.86.35 1.76 1.76 0 001-.3 2.36 2.36 0 00.7-.71l.06-2.16c-.17.05-.36.1-.57.19zm8.06-2.24a1.36 1.36 0 00-1.15-.56 1.73 1.73 0 00-1.48.62 2.89 2.89 0 00-.47 1.75v2.59c0 .48 0 .9.1 1.29h-1.3a12.24 12.24 0 00.09-1.29v-4.23c0-.48 0-.92-.09-1.33a3.61 3.61 0 00.65.07h.25l.32-.05v1.15a3.06 3.06 0 011-1 2.63 2.63 0 011.35-.34 2.89 2.89 0 01.81.12 2.07 2.07 0 01.75.39 2.13 2.13 0 01.54.77 3.09 3.09 0 01.21 1.23v4.49a5.93 5.93 0 00-.61 0 5.74 5.74 0 00-.6 0c0-.5 0-1 .06-1.55s0-1.07 0-1.62v-.88a2.68 2.68 0 00-.43-1.62zm3.27 0a2.05 2.05 0 01.6-.73 2.67 2.67 0 01.88-.43 3.67 3.67 0 011.06-.15h2.18a7.64 7.64 0 001.17-.07.68.68 0 000 .15 1.13 1.13 0 000 .3.77.77 0 000 .15l-.82-.06c-.26 0-.52 0-.78-.05a1.74 1.74 0 01.72.75 2.26 2.26 0 01.27 1.06 2.1 2.1 0 01-.73 1.7 2.9 2.9 0 01-2 .61h-.79a.72.72 0 00-.49.19.57.57 0 00-.22.47.71.71 0 00.18.55 1 1 0 00.67.19h1.59a4.45 4.45 0 011.13.16 2.26 2.26 0 01.76.39 1.54 1.54 0 01.44.56 1.82 1.82 0 01.13.7 2.87 2.87 0 01-.19 1 2.58 2.58 0 01-.61.94 3 3 0 01-1.06.69 4 4 0 01-1.55.28 3.84 3.84 0 01-2.21-.56 1.81 1.81 0 01-.67-2.21 2.18 2.18 0 01.35-.57 2 2 0 01.49-.39 2.92 2.92 0 01.56-.21 1.28 1.28 0 01-.67-.43 1.16 1.16 0 01-.23-.73 1 1 0 01.09-.44 1.13 1.13 0 01.24-.36.93.93 0 01.33-.26 1 1 0 01.36-.13 2.45 2.45 0 01-1-.82 2.21 2.21 0 01-.37-1.32 2.38 2.38 0 01.19-.92zm4.4 6a2.94 2.94 0 00-1.67-.35 3.32 3.32 0 00-1.67.35 1.36 1.36 0 00-.6 1.28 1.93 1.93 0 00.17.84 1.47 1.47 0 00.45.56 2 2 0 00.67.32 3.7 3.7 0 00.83.1 3.13 3.13 0 00.86-.12 2.63 2.63 0 00.74-.34 1.85 1.85 0 00.52-.59 1.61 1.61 0 00.21-.84 1.35 1.35 0 00-.51-1.2zm-.71-6.42a1.43 1.43 0 00-1.13-.48 1.5 1.5 0 00-1.22.53 2.19 2.19 0 00-.43 1.4 2.3 2.3 0 00.4 1.44 1.43 1.43 0 001.23.53 1.47 1.47 0 00.72-.17 1.5 1.5 0 00.49-.45 1.83 1.83 0 00.28-.65 2.76 2.76 0 00.1-.77 2 2 0 00-.44-1.37zm7.25-1.93c0-.61 0-1.24-.08-1.87h1.42c0 .63-.06 1.26-.08 1.87s0 1.23 0 1.87v4.35c0 .61.05 1.22.08 1.82h-1.42c0-.6.06-1.2.08-1.82s0-1.24 0-1.87v-2.48c.04-.64.03-1.23 0-1.87zm7.94 2.35a1.38 1.38 0 00-1.16-.56 1.73 1.73 0 00-1.47.62 2.82 2.82 0 00-.47 1.75v2.59a12.24 12.24 0 00.09 1.29h-1.3c.05-.39.08-.82.1-1.29s0-.93 0-1.37v-2.86c0-.48 0-.92-.1-1.33a3.7 3.7 0 00.65.07h.26l.32-.05v1.15a3.06 3.06 0 011-1 2.59 2.59 0 011.34-.34 3 3 0 01.82.12 2.11 2.11 0 01.74.39 2 2 0 01.55.77 3.09 3.09 0 01.21 1.23v4.49a6.13 6.13 0 00-.62 0 5.68 5.68 0 00-.59 0c0-.5 0-1 .06-1.55s0-1.07 0-1.62v-.88a2.68 2.68 0 00-.43-1.62zm4.93-3.1c0 .37 0 .73-.07 1.08s0 .7-.05 1.06h1.53a.53.53 0 000 .15v.31a.53.53 0 000 .14h-1.53a4.32 4.32 0 000 .46v4.04a2.89 2.89 0 00.14.7 1.13 1.13 0 00.35.5 1 1 0 00.66.18 1.9 1.9 0 00.31 0 2.44 2.44 0 00.34-.08v.35l-.54.11a2.91 2.91 0 01-.57.06 1.55 1.55 0 01-1.77-1.76v-4.5h-.98v-.62h1v-1.61l1.2-.51zm3 2.8a3 3 0 012.46-1 3.31 3.31 0 011.32.24 2.71 2.71 0 01.93.64 2.42 2.42 0 01.55.93 3.49 3.49 0 01.18 1.14v.56h-5.02a1.06 1.06 0 000 .21v.19a3.21 3.21 0 00.17 1 2.44 2.44 0 00.48.85 2.36 2.36 0 00.78.56 2.55 2.55 0 001.07.21 2.46 2.46 0 00.59-.08 2.63 2.63 0 00.59-.22 3 3 0 00.54-.32 2.44 2.44 0 00.44-.4h.07l-.08.71a4.22 4.22 0 01-1.08.59 3.77 3.77 0 01-1.33.24 4 4 0 01-1.42-.24 3.1 3.1 0 01-1.83-1.76 3.52 3.52 0 01-.26-1.34 4.19 4.19 0 01.85-2.71zm1.58-.3a2.18 2.18 0 00-.6.61 3 3 0 00-.36.81 4.42 4.42 0 00-.15.83h3.79a6 6 0 00-.06-.82 2.75 2.75 0 00-.26-.81 1.64 1.64 0 00-.55-.62 1.55 1.55 0 00-.9-.25 1.65 1.65 0 00-.91.25zm8.42.46a1.29 1.29 0 00-.43-.07 1.17 1.17 0 00-.62.16 1.42 1.42 0 00-.46.42 2 2 0 00-.29.64 2.83 2.83 0 00-.1.78v3.07a6 6 0 00.05.83 5.63 5.63 0 00-.58 0 6.08 6.08 0 00-.61 0c0-.33.05-.77.06-1.34v-3.82c0-.5 0-1.06-.06-1.69l.31.05h.57l.31-.05c0 .34-.06.62-.07.82s0 .39 0 .58c.57-1 1.21-1.56 1.91-1.56h.22a1.16 1.16 0 01.24.07 1.54 1.54 0 00-.09.53v.64l-.1.07a.64.64 0 00-.26-.13zm6.14.14a1.36 1.36 0 00-1.15-.56 1.73 1.73 0 00-1.48.62 2.82 2.82 0 00-.47 1.75v2.59a12.24 12.24 0 00.09 1.29h-1.3c.05-.39.08-.82.1-1.29s0-.93 0-1.37v-2.86c0-.48 0-.92-.1-1.33a3.7 3.7 0 00.65.07h.26l.32-.05v1.15a3.06 3.06 0 011-1 2.59 2.59 0 011.34-.34 3 3 0 01.82.12 2.11 2.11 0 01.74.39 2 2 0 01.55.77 3.09 3.09 0 01.21 1.23v4.49a6.08 6.08 0 00-.61 0 5.74 5.74 0 00-.6 0c0-.5 0-1 .06-1.55s0-1.07 0-1.62v-.88a2.68 2.68 0 00-.43-1.62zm4.91-1.13a3.55 3.55 0 011.12-.18 2.83 2.83 0 011 .15 2.32 2.32 0 01.75.44 2 2 0 01.48.67 2.3 2.3 0 01.17.88v3.73a1.14 1.14 0 00.07.34.63.63 0 00.16.25.47.47 0 00.2.14h.15a.44.44 0 00.15-.05v.32a2.23 2.23 0 01-.4.11 2.75 2.75 0 01-.52 0 1.05 1.05 0 01-.72-.23 1 1 0 01-.29-.62 4.14 4.14 0 01-1 .77 2.89 2.89 0 01-1.24.24 2.37 2.37 0 01-.7-.1 1.64 1.64 0 01-.61-.33 1.89 1.89 0 01-.44-.56 1.58 1.58 0 01-.16-.74 1.69 1.69 0 01.54-1.34 2.84 2.84 0 011.49-.63l1.21-.23a3.55 3.55 0 00.65-.19.45.45 0 00.25-.24 1.16 1.16 0 000-.35 3.27 3.27 0 00-.08-.7 1.52 1.52 0 00-.28-.57 1.29 1.29 0 00-.49-.4 1.64 1.64 0 00-.73-.15 2.33 2.33 0 00-1.08.26 1.66 1.66 0 00-.7.73h-.16v-.75a3.82 3.82 0 011.21-.67zm1.8 3.37l-.66.12c-.22 0-.44.1-.65.17a2.15 2.15 0 00-.57.27 1.33 1.33 0 00-.41.44 1.34 1.34 0 001.1 2 1.78 1.78 0 001-.3 2.48 2.48 0 00.7-.71v-2.16a5.07 5.07 0 01-.51.22zm5.22-5.34c0 .37 0 .73-.06 1.08s0 .7 0 1.06h1.53a.44.44 0 000 .15v.31a.46.46 0 000 .14H190v4.5a2.18 2.18 0 00.14.7 1.12 1.12 0 00.34.5 1.09 1.09 0 00.67.18 2 2 0 00.31 0 2 2 0 00.33-.08v.35l-.54.11a2.76 2.76 0 01-.57.06 1.83 1.83 0 01-1.34-.44 1.87 1.87 0 01-.43-1.32v-4.5h-.98a1 1 0 000-.16 1 1 0 000-.17.61.61 0 000-.14.77.77 0 000-.15h1v-1.61l1.19-.51zm3.11-1.09a.7.7 0 01.52-.22.75.75 0 01.74.74.7.7 0 01-.22.52.72.72 0 01-.52.21.72.72 0 01-.7-.77.72.72 0 01.18-.48zm0 4.36c0-.47-.05-.92-.1-1.33a3.7 3.7 0 00.65.07 3.61 3.61 0 00.65-.07c0 .41-.08.86-.09 1.33s0 .93 0 1.36v2.87a12.24 12.24 0 00.09 1.29h-1.3c0-.39.08-.82.1-1.29s0-.93 0-1.37v-1.5l-.03-1.36zm3.2.45a3 3 0 01.81-1.11 3.17 3.17 0 011.14-.62 4.12 4.12 0 011.24-.2 4.2 4.2 0 011.26.2 3.09 3.09 0 011.12.62 3 3 0 01.82 1.11 4.1 4.1 0 01.31 1.66 4.15 4.15 0 01-.31 1.67 3 3 0 01-1.94 1.71 4.9 4.9 0 01-1.26.17 4.81 4.81 0 01-1.24-.17 3.13 3.13 0 01-1.14-.6 3 3 0 01-.81-1.11 4 4 0 01-.31-1.67 3.94 3.94 0 01.31-1.66zm1.07 2.83a3 3 0 00.36 1 2.17 2.17 0 002.83.7 1.86 1.86 0 00.69-.7 2.84 2.84 0 00.37-1 6.22 6.22 0 000-2.33 3 3 0 00-.37-1 2 2 0 00-.69-.7 2.07 2.07 0 00-1.07-.26 2 2 0 00-1.06.26 2.13 2.13 0 00-.7.7 3.19 3.19 0 00-.36 1 6.22 6.22 0 000 2.33zm11.49-3.45a1.36 1.36 0 00-1.15-.56 1.73 1.73 0 00-1.48.62 2.89 2.89 0 00-.47 1.75v2.59c0 .48 0 .9.1 1.29h-1.3a12.24 12.24 0 00.09-1.29v-4.23c0-.48 0-.92-.09-1.33a3.61 3.61 0 00.65.07h.25l.32-.05v1.15a3.06 3.06 0 011-1 2.63 2.63 0 011.35-.34 2.89 2.89 0 01.81.12 2.07 2.07 0 01.75.39 2.13 2.13 0 01.54.77 3.09 3.09 0 01.21 1.23v4.49a5.93 5.93 0 00-.61 0 5.74 5.74 0 00-.6 0c0-.5 0-1 .06-1.55s0-1.07 0-1.62v-.88a2.68 2.68 0 00-.43-1.62zm4.91-1.13a3.61 3.61 0 011.15-.18 2.91 2.91 0 011 .15 2.27 2.27 0 01.74.44 2 2 0 01.48.67 2.13 2.13 0 01.18.88v3.73a.9.9 0 00.06.34.56.56 0 00.17.25.44.44 0 00.32.11h.05a.33.33 0 00.15-.05v.32a2.1 2.1 0 01-.39.11 2.93 2.93 0 01-.53 0 1.05 1.05 0 01-.72-.23 1 1 0 01-.29-.62 3.8 3.8 0 01-1 .77 2.86 2.86 0 01-1.24.24 2.37 2.37 0 01-.7-.1 1.68 1.68 0 01-1-.89 1.58 1.58 0 01-.17-.74 1.69 1.69 0 01.54-1.34 2.88 2.88 0 011.49-.63l1.21-.23a3.32 3.32 0 00.65-.19.45.45 0 00.25-.24 1.13 1.13 0 00.05-.35 2.74 2.74 0 00-.09-.7 1.67 1.67 0 00-.27-.57 1.37 1.37 0 00-.49-.4 1.68 1.68 0 00-.74-.15 2.36 2.36 0 00-1.08.26 1.72 1.72 0 00-.74.72h-.16v-.75a3.93 3.93 0 011.12-.63zm1.8 3.37l-.65.12c-.22 0-.44.1-.66.17a2.5 2.5 0 00-.57.27 1.45 1.45 0 00-.17 2.12 1.28 1.28 0 00.86.35 1.76 1.76 0 001-.3 2.36 2.36 0 00.7-.71l.06-2.16c-.17.05-.36.1-.57.19zm4.24-4.34V35.4c0-.34 0-.64-.05-.88a3.52 3.52 0 00.65.07 3.6 3.6 0 00.64-.07c0 .24 0 .53-.05.88s0 .69 0 1.07v8.09c0 .33 0 .62.05.84h-1.29c0-.22 0-.5.05-.84s0-.69 0-1.07v-4.81c.01-.33.01-.68 0-1.07zm7.65-.28c0-.61 0-1.23-.08-1.84h5.15a2.09 2.09 0 000 .43 2 2 0 000 .43l-.85-.05-.8-.06-.93-.05h-1.22v3.78h2.84l.67-.05a2.14 2.14 0 00-.05.45 2.18 2.18 0 00.05.43c-.25 0-.54 0-.88-.07h-2.64a2.72 2.72 0 010 .28v3.79h2.07c.35 0 .68 0 1-.06a7.46 7.46 0 00.81-.1 1.24 1.24 0 000 .22V45a1.34 1.34 0 000 .38h-5.22c0-.62 0-1.23.08-1.84s0-1.23 0-1.87v-2.46c.03-.63.02-1.21 0-1.88zm10.8 2.57c.33-.44.66-.89 1-1.35l.26.05h.25a2.26 2.26 0 00.49-.07L239 40.11l-1.31 1.55a63.981 63.981 0 002.79 3.74h-1.08a2.56 2.56 0 00-.39 0L238 44l-1-1.46-1 1.46-1 1.44a3.59 3.59 0 00-.47 0 3.68 3.68 0 00-.49 0c.46-.54.91-1.09 1.35-1.64s.88-1.12 1.32-1.69l-1.31-1.75-1.4-1.81.38.05h.77l.38-.05q.42.69.87 1.35l1 1.34zm3.66-2.29v-3.09a3.05 3.05 0 001.3 0v5.15a3.06 3.06 0 011-1 2.65 2.65 0 011.35-.34 2.84 2.84 0 01.81.12 2.07 2.07 0 01.75.39 2.13 2.13 0 01.54.77 3.09 3.09 0 01.21 1.23v4.49a5.93 5.93 0 00-.61 0h-.6c0-.5 0-1 .07-1.55s0-1.07 0-1.62v-.88a2.68 2.68 0 00-.42-1.64 1.35 1.35 0 00-1.15-.56 1.75 1.75 0 00-1.48.62 2.89 2.89 0 00-.47 1.75v3.83H242v-7.67zm8-2.09a.71.71 0 011 0 .69.69 0 01.22.52.7.7 0 01-.22.52.74.74 0 01-1 0 .7.7 0 01-.22-.52.69.69 0 01.22-.52zm0 4.36c0-.47-.05-.92-.09-1.33a3.61 3.61 0 00.65.07 3.51 3.51 0 00.64-.07c0 .41-.07.86-.09 1.33s0 .93 0 1.36v2.87c0 .48.05.9.09 1.29h-1.29c0-.39.08-.82.09-1.29s0-.93 0-1.37v-2.86zm9.57 3.44a3.76 3.76 0 01-.69 1.19 3.13 3.13 0 01-1 .77 3.27 3.27 0 01-1.29.26 2.68 2.68 0 01-1.25-.29 2.45 2.45 0 01-.85-.72q-.51.42-1 .84h-.26c0-.23 0-.51.05-.84s0-.67 0-1V35.4c0-.34 0-.64-.05-.88a3.61 3.61 0 00.65.07 1.94 1.94 0 00.33 0h.37c0 .19-.05.5-.07.92s0 .88 0 1.4v3.06a3.51 3.51 0 011.08-1.14 2.59 2.59 0 011.37-.36 2.93 2.93 0 011.3.28 2.68 2.68 0 01.91.75 3.17 3.17 0 01.54 1.07 4.57 4.57 0 01.18 1.29 4.39 4.39 0 01-.32 1.46zm-1.18-2.75a3 3 0 00-.44-.85 1.73 1.73 0 00-.62-.53 1.58 1.58 0 00-.73-.18 2.25 2.25 0 00-.85.16 1.74 1.74 0 00-.72.55 3 3 0 00-.48 1 5.43 5.43 0 00-.18 1.51c0 1.93.7 2.89 2.1 2.89a1.6 1.6 0 00.83-.23 2.06 2.06 0 00.65-.69 3.48 3.48 0 00.44-1.07 5.34 5.34 0 00.16-1.38 3.87 3.87 0 00-.16-1.18zm3.35-5.05a.7.7 0 01.52-.22.69.69 0 01.52.22.73.73 0 01.22.48.74.74 0 01-.22.52.72.72 0 01-.52.21.72.72 0 01-.73-.73.72.72 0 01.21-.48zm0 4.36c0-.47 0-.92-.1-1.33a3.05 3.05 0 001.3 0c-.05.41-.08.86-.09 1.33s0 .93 0 1.36v2.87a12.24 12.24 0 00.09 1.29h-1.3c.05-.39.08-.82.1-1.29s0-.93 0-1.37v-1.5l-.03-1.36zm4.84-3.27c0 .37-.05.73-.06 1.08s0 .7 0 1.06h1.53a.44.44 0 000 .15v.31a.46.46 0 000 .14h-1.53v4.5a2.18 2.18 0 00.14.7 1.12 1.12 0 00.34.5 1.09 1.09 0 00.67.18 2 2 0 00.31 0 2.44 2.44 0 00.34-.08v.35l-.55.11a2.74 2.74 0 01-.56.06 1.84 1.84 0 01-1.35-.44 1.87 1.87 0 01-.43-1.32v-4.5h-.98a1 1 0 000-.16 1 1 0 000-.17.61.61 0 000-.14.77.77 0 000-.15h.95v-1.61l1.19-.51zm3.11-1.09a.7.7 0 01.52-.22.75.75 0 01.79.7.7.7 0 01-.22.52.72.72 0 01-.52.21.72.72 0 01-.73-.73.72.72 0 01.16-.48zm0 4.36c0-.47-.05-.92-.1-1.33a3.7 3.7 0 00.65.07 3.61 3.61 0 00.65-.07c-.05.41-.08.86-.09 1.33s0 .93 0 1.36v2.87a12.24 12.24 0 00.09 1.29h-1.3c.05-.39.08-.82.1-1.29s0-.93 0-1.37v-1.5l-.03-1.36zm3.2.45a3.13 3.13 0 01.81-1.11 3.17 3.17 0 011.14-.62 4.12 4.12 0 011.24-.2 4.2 4.2 0 011.26.2 3.09 3.09 0 011.12.62 3 3 0 01.82 1.11 4.1 4.1 0 01.31 1.66 4.15 4.15 0 01-.31 1.67 3 3 0 01-1.94 1.71 4.9 4.9 0 01-1.26.17 4.81 4.81 0 01-1.24-.17 2.95 2.95 0 01-1.95-1.71 4 4 0 01-.31-1.67 3.94 3.94 0 01.31-1.66zm1.11 2.83a3 3 0 00.36 1 2.17 2.17 0 002.83.7 1.86 1.86 0 00.69-.7 2.84 2.84 0 00.37-1 6.22 6.22 0 000-2.33 3 3 0 00-.37-1 2 2 0 00-.69-.7 2.07 2.07 0 00-1.07-.26 2 2 0 00-1.06.26 2.13 2.13 0 00-.7.7 3.19 3.19 0 00-.36 1 6.22 6.22 0 000 2.33zm11.45-3.45a1.36 1.36 0 00-1.15-.56 1.75 1.75 0 00-1.48.62 2.89 2.89 0 00-.47 1.75v2.59c0 .48.05.9.1 1.29h-1.3a12.24 12.24 0 00.09-1.29v-4.23c0-.48 0-.92-.09-1.33a3.61 3.61 0 00.65.07h.25l.33-.05v1.15a3.06 3.06 0 011-1 2.63 2.63 0 011.35-.34 2.84 2.84 0 01.81.12 2.07 2.07 0 01.75.39 2.13 2.13 0 01.54.77 3.09 3.09 0 01.21 1.23v4.49a6.12 6.12 0 00-1.21 0c0-.5 0-1 .07-1.55s0-1.07 0-1.62v-.88a2.68 2.68 0 00-.45-1.62zm7.55-2.35c0-.61-.05-1.24-.08-1.87h1.41c0 .63-.06 1.26-.08 1.87s0 1.23 0 1.87v5.53h2a19 19 0 002-.16 1.52 1.52 0 00-.07.43 1.24 1.24 0 00.07.39h-5.32c0-.6.05-1.2.08-1.82s0-1.24 0-1.87v-2.5c-.01-.64-.01-1.23-.01-1.87zm7.94-1.12h-1.61l-.79.06a6.21 6.21 0 00-.68.07 2.24 2.24 0 00.07-.46 2.49 2.49 0 00-.07-.45h7.44a1.9 1.9 0 00-.07.46 1.65 1.65 0 00.07.45 6.16 6.16 0 00-.69-.07l-.79-.06h-1.61v7.35c0 .61.06 1.22.08 1.82h-1.41c0-.6.06-1.2.08-1.82s0-1.24 0-1.87v-2.49c.04-1.01.04-2-.02-2.99zm5.83 1.12c0-.61 0-1.24-.08-1.87h4.35a6.31 6.31 0 012.17.33 3.68 3.68 0 011.48 1 3.57 3.57 0 01.85 1.5 7.16 7.16 0 01.26 2 5.34 5.34 0 01-.49 2.43 4.87 4.87 0 01-1.27 1.6 4.92 4.92 0 01-1.71.86 7.13 7.13 0 01-1.78.25h-3.94c0-.6.05-1.2.08-1.82s0-1.24 0-1.87v-2.54c.11-.64.1-1.23.08-1.87zm1.3 7.4a4.66 4.66 0 00.82.11h1.07a6.65 6.65 0 001.59-.19A3.34 3.34 0 00313 44a3.66 3.66 0 001-1.42 5.7 5.7 0 00.4-2.33 5.77 5.77 0 00-.31-2.06 3.23 3.23 0 00-.85-1.28 3.15 3.15 0 00-1.29-.65 7.65 7.65 0 00-1.65-.18h-1.21c-.38 0-.71.06-1 .1 0 .46-.05.94-.06 1.45s0 1 0 1.54v2.48c-.03 1.09-.03 2.11.04 3.11zm9.58-.62a.8.8 0 01.58-.24.78.78 0 01.57.24.79.79 0 01.25.58.72.72 0 01-.25.56.8.8 0 01-.57.22.82.82 0 01-.58-.22.74.74 0 01-.24-.56.82.82 0 01.24-.58z" fill="#fff"/><path d="M14 20.59a3 3 0 00.92-.36 2.57 2.57 0 001.19-2 2.81 2.81 0 01-1.35.49 1.64 1.64 0 00-1 .51 9.55 9.55 0 00-1.1 1.77s-.27.5 0 .31a3.32 3.32 0 011.34-.72z" fill="url(#未命名漸層_12)"/><path d="M11.88 22.61a2.53 2.53 0 00-.47 1 3.93 3.93 0 00-.07 1.39 10 10 0 00.29 1.23c.08.21.15-.57.15-.57a2.65 2.65 0 01.34-1.05.55.55 0 01.17-.2 1 1 0 011.14.1 2.83 2.83 0 01.61.62 2.84 2.84 0 01-.07-2s.12-.33.19-.34.05.16.05.2a.93.93 0 000 .33v.1a1.93 1.93 0 00.58.9c.24.21.08.06.05-.78a8.73 8.73 0 01.55-2.54s-.54.22-1.78.57a5.92 5.92 0 00-.66.25 2.44 2.44 0 00-.79.47 4.12 4.12 0 00-.28.32z" fill="url(#未命名漸層_12-2)"/><path d="M11.58 28.59a3.25 3.25 0 01-.51-.72 5.79 5.79 0 01-.44-3.55 2.79 2.79 0 01.1-.39v-.14a1.86 1.86 0 00-1.3 1.3 2.87 2.87 0 000 2.1c.34.93 1.75 1.53 1.75 1.53s.9.43.4-.13z" fill="url(#未命名漸層_12-3)"/><path class="cls-6" d="M3 13.92c.14 0 .38 0 .41-.19s.2-.17.3-.18a.38.38 0 01.38.29 1.36 1.36 0 001.77.86 3.14 3.14 0 00.89-.7 2 2 0 011.95-.43c.67.12.93.29 1.06.7s-.41.65-.41.65a8.33 8.33 0 01-2.76.55 7.64 7.64 0 01-2.14-.21s-.46-.08 0 .55a1.74 1.74 0 001.06.75 4.41 4.41 0 002-.32 13.56 13.56 0 014.85-.53 3.07 3.07 0 012.17 1 1.37 1.37 0 010 1.36.16.16 0 000 .21c.05.08.22 0 .22 0A2.09 2.09 0 0016 17.15a3 3 0 00.17-1.52 1.86 1.86 0 01.55-1.32 2.89 2.89 0 011.12-.6 6 6 0 01.73-.18 3.84 3.84 0 011.39-.11c.1 0 .57.13.46-.11A2.36 2.36 0 0018.76 12a5.27 5.27 0 00-2.52.21 3.57 3.57 0 00-1.63 1.11s-.28 0-.3-.52a1.42 1.42 0 010-.29 1.45 1.45 0 01.94-1c.23-.11.47-.2.7-.3s.59-.32.87-.46a.91.91 0 00.51-1 .42.42 0 00-.59-.34 6.56 6.56 0 01-3.12.8 2.15 2.15 0 01-2-1.61 2.06 2.06 0 01.92-2.17 1.07 1.07 0 011.08-.16.48.48 0 01.32.55.85.85 0 00.36.78 1 1 0 001.23-.11 1.7 1.7 0 00.35-.78 2.36 2.36 0 00-.07-.91.67.67 0 010-.46.79.79 0 01.41-.34l.28-.16A3.33 3.33 0 0018 2.61a1.63 1.63 0 00-.55-1.69.61.61 0 00-.85.08 1.11 1.11 0 00-.19.69A2.39 2.39 0 0116 2.88a2.55 2.55 0 01-.41.46c-.1.1-.3.32-.43.35a.61.61 0 01.59.16.62.62 0 01-.1.87c-.26.35-1 .28-1 .28a6.69 6.69 0 00-2.15.24 7.17 7.17 0 00-2.21 1.19A3.16 3.16 0 009 9.22a6.08 6.08 0 00.24 1.32.51.51 0 01-.34.5c-.11 0-.2.06-.24.19a.31.31 0 00.07.29 1 1 0 00.76.25h1.67c.42 0 .39.32.39.32 0 .31-.35.29-.35.29s-1.25.08-2 .06a3.34 3.34 0 01-.84-.12c-.35-.1-.58-.4-1-.46a2.44 2.44 0 00-1.05.14 1.61 1.61 0 00-1.06.72 1.08 1.08 0 01-.79.05 2.06 2.06 0 00-.7 0 1.14 1.14 0 00-1 .71.38.38 0 00.24.44z"/><path d="M10.4 40.77a4 4 0 00-.5-3s-.18-.27 0-.18a5.1 5.1 0 002.23.16s.27-.08-.12-.22c0 0-3.05-1.11-3.76-3.52a7.42 7.42 0 01-.16-3.75 8.27 8.27 0 01.71-1.86.28.28 0 000-.29 2.4 2.4 0 01.05-2c.27-.62-.05-.2-.05-.2a29.92 29.92 0 00-1.88 3.39 6.07 6.07 0 01-3.24 2.75 3.37 3.37 0 01-2.42 0 .34.34 0 01-.12-.05 1.8 1.8 0 01-.88-1.2c-.11-.8-.26.29-.26.29a2.88 2.88 0 00.7 2.18 2.93 2.93 0 002.62.7A3.48 3.48 0 005.88 32c.62-1.26.61-.34.61-.34a8.57 8.57 0 00.17 1.68s.45 2-.39 2.93A5.11 5.11 0 013.94 38h-.12c-.31.09-1.77.44-2.53-.37a2.26 2.26 0 01-.54-.84c-.13-.45-.2.06-.2.06a2.5 2.5 0 00.67 2.06 3.52 3.52 0 003.06.76A4 4 0 007 37.88a2.19 2.19 0 01.41-.55.56.56 0 01.71.07A2.18 2.18 0 019 38.91a5.64 5.64 0 01-.7 3.58 2.08 2.08 0 01-3.06.88 3.85 3.85 0 01-1.12-1c-.31-.51-.18.22-.18.22a2.11 2.11 0 001.2 1.75 3.34 3.34 0 003-.15 5.11 5.11 0 002.26-3.42z" fill="url(#未命名漸層_12-5)"/><path d="M13.14 33.64a3.79 3.79 0 00-1.07-2.16 2.45 2.45 0 01-.37-.68c0-.16-.1-.13-.14-.09s-.12.08-.12.08-1 2.44.91 3.8c.88.62 1.11.64 1.16.57s.07-.14.07-.13a7.38 7.38 0 01-.44-1.39z" fill="url(#未命名漸層_12-6)"/><path d="M10.58 33a6.44 6.44 0 010-1.64 2.82 2.82 0 00-.32-1.62 3.19 3.19 0 01-.45-1.36c0-.39-.2-.06-.2-.06S8 30.49 9.52 32.21c1.32 1.53 1.06.79 1.06.79z" fill="url(#未命名漸層_12-7)"/><path d="M9.75 33.5l-.48-.62s-.17-.35-.18.1a2.59 2.59 0 001 2.35c.67.62.24.1.24.1a2.67 2.67 0 01-.12-.77 2.44 2.44 0 00-.46-1.16z" fill="url(#未命名漸層_12-8)"/><path d="M25.07 19.41s.22-.07.79-.19a3.29 3.29 0 001.21-.55l.64-.55s.26-.2-.1-.2a2.71 2.71 0 00-2.45 1.17c-.38.42-.09.32-.09.32z" fill="url(#未命名漸層_12-9)"/><path d="M11.61 38.48a1.82 1.82 0 01-.66-.07h-.06a.2.2 0 000 .11 5.47 5.47 0 00.61 1.22 3.71 3.71 0 00.23.32l.27.34.33.35c.12.12.25.23.38.34a4.48 4.48 0 00.44.32c.16.11.4.29.57.38l.52.23c.06 0 .12 0 .08-.11a7.35 7.35 0 01-.72-1.83 4 4 0 00-.52-1.25 1.13 1.13 0 00-.7-.42 5.23 5.23 0 00-.77.07z" fill="url(#未命名漸層_12-10)"/><path d="M16.69 37.61a8.92 8.92 0 00-2-1.31 5.72 5.72 0 01-.92-.47.08.08 0 00-.13.08A2.58 2.58 0 0015 38.07a5.16 5.16 0 002.72.34.09.09 0 000-.17 3.92 3.92 0 01-1.03-.63z" fill="url(#未命名漸層_12-11)"/><path d="M13.65 37.5a.08.08 0 00.06-.15 3.64 3.64 0 01-.74-.84 7.31 7.31 0 00-1.29-1.69 4.58 4.58 0 01-.63-.65c0-.05-.12 0-.14 0a2.66 2.66 0 00.56 2.37 3.78 3.78 0 002.18.96z" fill="url(#未命名漸層_12-12)"/><path d="M13.86 34a2.38 2.38 0 001.92 2.18 3.62 3.62 0 002.54-.16c.09-.06.07-.11 0-.13a15.43 15.43 0 01-2.65-.84A8.25 8.25 0 0114 34a.08.08 0 00-.14 0z" fill="url(#未命名漸層_12-13)"/><path d="M19.76 38.12a5.22 5.22 0 002.4-1.47s.25-.29 0-.22a6.52 6.52 0 01-2 .12 6.33 6.33 0 00-2.12.36 2.89 2.89 0 01-.61.15s-.16 0 0 .17a2.62 2.62 0 002.33.89z" fill="url(#未命名漸層_12-14)"/><path d="M21.52 38.08a3.73 3.73 0 002.8-.51 3.9 3.9 0 001.88-2.17 5.49 5.49 0 01-2.28 1.05 1.8 1.8 0 00-1.32.67 4.21 4.21 0 01-1.08.83c-.13.05 0 .13 0 .13z" fill="url(#未命名漸層_12-15)"/><path d="M18.4 34.66a12.75 12.75 0 01-2.58-.51s-.3-.15-.16 0a1.36 1.36 0 00.41.3 6.57 6.57 0 004.5.86c1.49-.33 1.91-.83 2-1a.06.06 0 00-.08-.08 9.5 9.5 0 01-4.09.43z" fill="url(#未命名漸層_12-16)"/><path d="M26.53 34.17a9.51 9.51 0 01-2.48.61 2.47 2.47 0 00-1.24.47 12.34 12.34 0 01-1 .72 9 9 0 004.44-1.47s.99-.63.28-.33z" fill="url(#未命名漸層_12-17)"/><path class="cls-20" d="M29.12 34.84s1.62-2 .7-1.2a12.72 12.72 0 01-2.43 1.72 1.87 1.87 0 00-.64.54 8.38 8.38 0 01-.93 1.1 6.36 6.36 0 003.3-2.16z"/><path d="M36.76 29.17c.37-.75.56-1.36.36-1.05s-.51.78-.77 1.17a8.83 8.83 0 01-1.06 1.23c-.37.38-.75.73-1.15 1.08A24.4 24.4 0 0132 33.24l-.4.28a4.11 4.11 0 00-.84.72 12.57 12.57 0 01-1.86 1.61v.09a5.62 5.62 0 003.5-1.51 17.72 17.72 0 004.36-5.26z" fill="url(#未命名漸層_12-19)"/><path d="M18.08 41a5.25 5.25 0 01-1.29-1.21 3.44 3.44 0 00-2.12-1.19 8.26 8.26 0 01-1.45-.53 9.41 9.41 0 004.88 2.94l-.02-.01z" fill="url(#未命名漸層_12-20)"/><path class="cls-6" d="M22.58 41.41a5 5 0 01-2-1.43c-1.22-1.28-2.05-1-2.05-1a4.41 4.41 0 01-1.14 0 .09.09 0 00-.1.14c.29.65 1.53 2.79 5.27 2.37.05-.02.05-.07.02-.08z"/><path d="M25.16 40.83a5.19 5.19 0 00.67-.25c.09 0 .08-.1 0-.12a4.14 4.14 0 01-.93-.41c-.59-.31-1.26-.72-1.26-.72a3.16 3.16 0 00-2-.45 8.93 8.93 0 00-1 .16.08.08 0 000 .15c.23.18.74.56 1 .79a4 4 0 003.52.85z" fill="url(#未命名漸層_12-22)"/><path d="M27.85 39.56a2.72 2.72 0 001.1-1.1c.2-.38-.18-.12-.18-.12a2.15 2.15 0 01-1.62.12c-1-.27-1.21-.67-2.55-.38s-1.28.53-1.28.53a10.88 10.88 0 011.73.79 2.63 2.63 0 002.8.16z" fill="url(#未命名漸層_12-23)"/><path class="cls-20" d="M35.43 33.23s.52-1.42-.07-.55a10.26 10.26 0 01-1.48 1.69 5.92 5.92 0 01-1 .74 5.67 5.67 0 00-1 .75 7.83 7.83 0 00-.88 1.06.08.08 0 00.07.12 4.73 4.73 0 002.21-.73 6.78 6.78 0 002.15-3.08z"/><path d="M27.76 16.41a13.82 13.82 0 00-5.09 1.87 7.33 7.33 0 00-2.07 2.33c0 .06 0 .12.11.09a14.36 14.36 0 001.83-.82 11.54 11.54 0 001.48-1 11.15 11.15 0 011.46-1 20.7 20.7 0 013-1.4c1.39-.48-.72-.07-.72-.07z" fill="url(#未命名漸層_12-25)"/><path d="M33.11 37.92s.87-1 .27-.77a9 9 0 01-2.05.42c-1.15 0-2.06 1.35-2.06 1.35a1.36 1.36 0 01-.32.31.05.05 0 000 .09 3.32 3.32 0 001.53 0 4.57 4.57 0 002.63-1.4z" fill="url(#未命名漸層_12-26)"/><path d="M24.22 21a1.19 1.19 0 01-.27.28v.07a4.5 4.5 0 001.51-.27 5 5 0 002.38-1.55s.71-.92.16-.61a11.48 11.48 0 01-2 .69A3.27 3.27 0 0024.22 21z" fill="url(#未命名漸層_12-27)"/><path d="M17 43.36s1.73.5 2.07-1.08a.12.12 0 00-.11-.15 8 8 0 01-4.16-1.89c-.07-.06-.16 0-.14.09.15.72.8 2.67 2.34 3.03z" fill="url(#未命名漸層_12-28)"/><path d="M18.68 44.14c.6.14 2.09.39 2.43-.72s-1-1.63-1.54-1.77c-.07 0-.14 0-.11.1l.16.34a1.09 1.09 0 01.05.17 1.47 1.47 0 01-1 1.71c-.1.03-.09.14.01.17z" fill="url(#未命名漸層_12-29)"/><path class="cls-30" d="M21.65 44.71s.73-.41 1 .28a.55.55 0 00.75.37 1.27 1.27 0 00.6-1.82 2.51 2.51 0 00-2.46-1.3c-.06 0-.1.08-.06.12a1.63 1.63 0 01.1 2.2c-.43.54.07.15.07.15z"/><path d="M30.77 54.67a2.05 2.05 0 01-.54-.33s-1.26-1-1-4.32a6.71 6.71 0 00-1-4.77c-.07-.24-.51-.32-.51-.32s-1.32-.24-1.12-1.19c.23-1.13 1.68-1 1.68-1 1.68.08 1.73-.18 1.73-.18A5.55 5.55 0 0126 41.23a16.59 16.59 0 01-2.55.84.06.06 0 000 .12 4.19 4.19 0 011.91 1.16 1.07 1.07 0 01-.11 1.35c-.16.24.23.71.23.71a14.79 14.79 0 012.69 7.21c.29 2-.09 2.83-.33 3.05a1.44 1.44 0 01-1.55 0 1.74 1.74 0 00-1.88.47 1.39 1.39 0 01-1.36.49c-.32 0-.12.23-.12.23a4.45 4.45 0 002.35.94 3.86 3.86 0 002.89-.86 2 2 0 011.52-.59 1.49 1.49 0 001.42-.72c.27-.38-.11-.86-.34-.96z" fill="url(#未命名漸層_12-31)"/><path d="M24.05 47.42s-1.19.3-4.3-1-4.22-1.5-6.41-1.42-4.26 1-5 2.08a1.22 1.22 0 00.14 1.76 1 1 0 001.41-.37 2.24 2.24 0 011.85-1.26 2.24 2.24 0 011.84.94c.49.69.91 1.06.75.45 0 0-.47-1.26.41-1.81s2.45-.67 4.33.32 2.51 1.94 3.73 1.6a1.52 1.52 0 001.25-1.29z" fill="url(#未命名漸層_12-32)"/><path d="M35 39.54a.13.13 0 010-.23c1.18-.86 2.52-3.3 1.64-2.48a4.51 4.51 0 01-2.26 1 .62.62 0 00-.41.28 4.28 4.28 0 01-2 1.46.09.09 0 000 .17 4.44 4.44 0 00.87 0 .13.13 0 01.11.21 8.92 8.92 0 01-1.7 1.48.11.11 0 00.06.2 7.83 7.83 0 016.21 2.5 6.52 6.52 0 011.46 4s-.08.93.15.5a6.55 6.55 0 00-.13-6.21 5.78 5.78 0 00-4-2.88zm3 4.28a8 8 0 00-5-2.67.07.07 0 010-.15 4.24 4.24 0 012.69.3 5.48 5.48 0 012.43 2.4.09.09 0 01-.12.12z" fill="url(#未命名漸層_12-33)"/><path class="cls-30" d="M41.6 37.43s-.88-.23-.66-.77a.75.75 0 01.1-.2.39.39 0 01.62 0 .64.64 0 00.85.18c1.11-.44.24-1.58.24-1.58a1.32 1.32 0 00-1.81 0 5.1 5.1 0 00-1.08 1.58s-.65 1.65-3.4 2.44a.11.11 0 000 .22 2.22 2.22 0 01.87.28.86.86 0 00.65.07 6.58 6.58 0 015.29 1A4.05 4.05 0 0144.9 45a.17.17 0 00.28.17c.53-.49 1.31-1.66.72-4.07-.7-2.85-4.3-3.67-4.3-3.67zm2.86 3.37a5.81 5.81 0 00-3.8-2.26 9.3 9.3 0 01-1.14-.15s-.05 0 0-.07a2.65 2.65 0 012.43 0 5 5 0 012.57 2.49s-.04.02-.06-.01zm-10.53-3.92c.66.14 2.57.23 4.58-2.28.05-.07 0-.15-.12-.11a11.54 11.54 0 01-2.2.81s-1.38.26-1.8.87a2.08 2.08 0 01-.5.56.08.08 0 00.04.15z"/><path d="M35.8 34.72a4 4 0 003-2 7.15 7.15 0 00.81-2.24c0-.06-.06-.1-.09-.05a8.62 8.62 0 01-1.94 1.74 6.22 6.22 0 00-1.93 2.35.14.14 0 00.15.2z" fill="url(#未命名漸層_12-36)"/><path d="M36.87 38.29a3.87 3.87 0 001.66-1 4.18 4.18 0 001.16-2.22.06.06 0 00-.09 0 11.29 11.29 0 01-1.07.79 2.51 2.51 0 00-1.23 1.4 4.76 4.76 0 01-.54.94.11.11 0 00.11.09z" fill="url(#未命名漸層_12-37)"/><path d="M46.56 34a5.59 5.59 0 003.34-3.07.06.06 0 00-.1-.07 7.59 7.59 0 01-2.45 1.94 24.8 24.8 0 01-2.89 1 .35.35 0 00-.24.26 1 1 0 01-.77.84.06.06 0 000 .12 1.22 1.22 0 01.81 1.42.18.18 0 00.21.21 5.94 5.94 0 016.18 2 .09.09 0 00.16-.08A5.47 5.47 0 0046.56 34z" fill="url(#未命名漸層_12-38)"/><path d="M41.84 34a1.18 1.18 0 01.55.2.68.68 0 00.85-.06.74.74 0 00-.16-1.14s-.4-.44-1.4 0a10.5 10.5 0 004.43-5.72 8.07 8.07 0 00-.75-5.48s-1.28-3.07-4.07-3.32a.08.08 0 000 .15 12.25 12.25 0 011.61 1.2 9.2 9.2 0 012.48 5.38 8.11 8.11 0 01-1.11 4.6 7.18 7.18 0 01-2 2.3c-.1.08-.23 0-.16-.16.75-1 2.22-3.22 2.32-5 .14-2.33-1-5.52-4-6.46a.08.08 0 00-.08.13A10.07 10.07 0 0143 24.25a7.17 7.17 0 01.06 4.22 9 9 0 01-2.4 3.88 4.71 4.71 0 00-1.62 2.55c.02.1 1.54-1.19 2.8-.9z" fill="url(#未命名漸層_12-39)"/><path d="M45.81 17.38c-1.73-2.12-3.45-1.65-3.68-1.4-.06.07-.2.22.13.47A10.91 10.91 0 0147 25.06c0 5.34-3.39 7.35-3.39 7.35s-.48.36.25.13 2.58-1.44 3.56-4.67a14 14 0 00.37-5.52 14.92 14.92 0 00-1.68-5.45c-1.65-3.5-.56-4.34-.36-4.65 0 0-.23.34.14.87a1.51 1.51 0 002.29.2 1.68 1.68 0 000-2.44 2 2 0 00-2.74.2s-2.44 2.11.37 6.3z" fill="url(#未命名漸層_12-40)"/><path d="M52.5 17.1a2.22 2.22 0 00-2-.41c-1.59.42-2.33 1.74-1.84 5.3a12.93 12.93 0 01-.36 5.8 9.94 9.94 0 01-4.21 5.32.11.11 0 00.1.2 7.34 7.34 0 001.8-.87 19.29 19.29 0 002.46-1.88C50.82 28.49 51 25 51 23.93a15.16 15.16 0 00-.14-1.7 12.46 12.46 0 01-.19-1.6.48.48 0 01.47-.47 2.59 2.59 0 00.69-.11 1.8 1.8 0 001.21-1.42 1.64 1.64 0 00-.54-1.53z" fill="url(#未命名漸層_12-41)"/><path class="cls-30" d="M31.39 31.78a9.28 9.28 0 003.76-2.05c2.32-2 2.17-3.84 2-4.4 0-.07-.09-.08-.13 0a11.41 11.41 0 01-2.76 3 13.25 13.25 0 00-3 3.33.08.08 0 00.13.12z"/><path d="M37 23.27a14.8 14.8 0 01-4.46 3.65.06.06 0 000 .11 3.63 3.63 0 002.74-.51 5 5 0 002.08-3.33c.03-.41-.36.08-.36.08z" fill="url(#未命名漸層_12-43)"/><path d="M39.5 18.14c0-.05-.06-.07-.1 0a21.44 21.44 0 01-7.4 6.03.09.09 0 000 .17 7.12 7.12 0 005.34-1.73 6.31 6.31 0 002.16-4.47z" fill="url(#未命名漸層_12-44)"/><path d="M41.3 14.92c-.77.57-3 2.22-4.74 3.36a24.39 24.39 0 01-6.68 3.35s1.76 1.3 4.84-.48A18.49 18.49 0 0041.39 15a.06.06 0 00-.09-.08z" fill="url(#未命名漸層_12-45)"/><path class="cls-6" d="M22.17 15.4a5.92 5.92 0 00-3.76 3.79 13.61 13.61 0 00-.1 3.62 20.28 20.28 0 01-.3 4.8c-.7 3.82-2.46 5.2-2.46 5.2s-.11.19-.07.22a2.78 2.78 0 002.88-.12s1.85-1.13.95-.87a5.62 5.62 0 01-1.93.27A5.07 5.07 0 0019.75 28a17.61 17.61 0 01.4-3.73s-.44.29-.7 2.09c-.52 2.94-1.25 4.08-1.5 4.4a21.16 21.16 0 001-6.88c-.08-3.89 1.9-5.5 1.92-5.51s1.36-1.77 6.46-2.55a28.67 28.67 0 0011.66-5c.07-.05.16 0 .1.12-2.18 2.75-5 3.59-7 4.64-1.53.79-3.5 1.77-3.86 2.3a.15.15 0 00.18.21c1.22-.46 2.87-.93 3.87-1.3a27.06 27.06 0 004.88-2.34 23.86 23.86 0 002.86-2c.31-.26.71-.55.71-.55-2.16 3.14-7.13 5.74-10.88 7a3.27 3.27 0 00-1.69 1.73c0 .06 0 .12.08.1a21.18 21.18 0 007.16-2.88c4-2.81 4.29-3.53 4.9-4.23.07-.09.11-.07.07 0a7.11 7.11 0 01-1.38 2.23s0 .05 0 0c5.65-3.2 5.75-11.17 5.75-11.17.14-1.24-.63-.3-.64-.3-6.47 6.12-9.41 7.16-12 8.48s-8.01 1.86-9.93 2.54z"/><path d="M19.81 23.62c0 .05.05.08.07 0a6.31 6.31 0 012.39-2 3.24 3.24 0 001.8-1.84c0-.07-.06-.13-.11-.08a6.3 6.3 0 01-2.06 1.13A2.88 2.88 0 0020 23z" fill="url(#未命名漸層_12-47)"/><path d="M33.6 9.53a1.44 1.44 0 001.18.45.24.24 0 00.16-.39 3.85 3.85 0 01-.42-4c.86-1.58 2.09-.17 2.09-.17a1.84 1.84 0 002.45.3c1.61-.9.44-2.72.44-2.72s-1.2-1.82-3.93-.73a4.7 4.7 0 00-2.89 3.91s-.21 2.34.92 3.35zm3.16-6.38c.61-.09 1.72-.12 1.87.92a.45.45 0 01-.81.22c-.23-.24-.43-.82-1.06-1a.07.07 0 010-.14z" fill="url(#未命名漸層_12-48)"/><path d="M29.94 12a.08.08 0 00.1-.11c-.21-.32-.41-.66-.61-1a16.93 16.93 0 01-1.27-2.73 6.09 6.09 0 01-.09-3.82A5.94 5.94 0 0129.76 2a5.56 5.56 0 00-1.2 5A7.37 7.37 0 0031 11.52a.07.07 0 00.11-.09c-.58-1.09-2.37-5 0-8.16a.07.07 0 01.07 0 1.63 1.63 0 001.64-.69 1.51 1.51 0 00-.51-1.8 3 3 0 00-3.51 0c-1.8 1.13-2.72 2.74-2.32 5.74A8.15 8.15 0 0029.94 12z" fill="url(#未命名漸層_12-49)"/><path d="M23.72 13.27a.12.12 0 00.08-.2c-2.13-2.07-4.42-5.56-3.55-8.65.75-2.68 2.3-3.33 3.15-3.49a1.45 1.45 0 102.77.62 1.49 1.49 0 00-.29-.87 1.65 1.65 0 00-.22-.24s-1.31-1.18-4.12.34c-2.5 1.35-2.67 5-2.67 5a9.49 9.49 0 001.54 5.63 3.81 3.81 0 003.31 1.86z" fill="url(#未命名漸層_12-50)"/><path d="M21.37 3.8s-.12.28-.13.3A4.59 4.59 0 0021 5a6.78 6.78 0 00.22 3.13 9 9 0 00.93 2c.75 1.24 1.71 2.6 3.28 2.87a1.61 1.61 0 001-.13 11.16 11.16 0 01-3.52-3.57 7.46 7.46 0 01-1.4-5.5z" fill="url(#未命名漸層_12-51)"/><path d="M26.24 33.4a5.74 5.74 0 10-5.74-5.74 5.74 5.74 0 005.74 5.74zm-1.85-9a1.91 1.91 0 11-1.9 1.9 1.9 1.9 0 011.9-1.92z" fill="url(#未命名漸層_12-52)"/><path d="M26.73 37.76a3.29 3.29 0 001.8.09 3.53 3.53 0 002-1.25s0-.11-.05-.1a9.27 9.27 0 01-1.22 0 2 2 0 00-1.64.51 5.47 5.47 0 01-.88.5c-.11.08-.1.22-.01.25z" fill="url(#未命名漸層_12-53)"/><path d="M27.07 41.22a3.51 3.51 0 002.12.4 3.83 3.83 0 002.44-1.4s0-.14-.05-.14a7.65 7.65 0 01-1.45-.08 2.11 2.11 0 00-2 .44 4.47 4.47 0 01-1.07.54.17.17 0 00.01.24z" fill="url(#未命名漸層_12-54)"/></g></g></svg>