<svg width="175" height="62" viewBox="0 0 175 62" xmlns="http://www.w3.org/2000/svg"><defs><filter color-interpolation-filters="auto" id="a"><feColorMatrix in="SourceGraphic" values="0 0 0 0 1.000000 0 0 0 0 1.000000 0 0 0 0 1.000000 0 0 0 1.000000 0"/></filter></defs><g transform="translate(-99 -38)" filter="url(#a)" fill="none" fill-rule="evenodd"><g fill="#231F20" fill-rule="nonzero"><path d="M118 39h141v1H118zm-16.417 59.996v-.337a3.364 3.364 0 01-.968-.268 1.44 1.44 0 01-.577-.448 1.714 1.714 0 01-.274-.695 5.532 5.532 0 01-.073-.976V94.82h8.416c.404-.044.812.024 1.186.197.296.263.45.673.409 1.089v.425H110v-5.12h-.298v.416a1.42 1.42 0 01-.344 1.044c-.167.157-.588.242-1.267.242h-8.4V91.41a3.421 3.421 0 01.102-.896c.056-.238.16-.458.307-.645.163-.194.362-.347.584-.448.29-.116.592-.188.9-.215V89H99v10l2.583-.004zm8.734-20.902a2.348 2.348 0 01-.57.42 9.46 9.46 0 01-.989.419L99 82.874v.294l9.654 3.975c.363.146.718.31 1.062.494.23.118.442.268.627.445.19.274.307.59.34.918H111v-3.56h-.318a5.304 5.304 0 01-.1.675 1.31 1.31 0 01-.165.42.487.487 0 01-.218.184.63.63 0 01-.252.046 2.938 2.938 0 01-1.023-.285l-1.85-.767v-4.39l1.684-.684a8.85 8.85 0 01.714-.251c.159-.052.325-.079.492-.08a.611.611 0 01.266.055c.087.04.163.102.217.18.071.11.124.23.157.356.044.184.07.37.078.558H111V77h-.318a2.6 2.6 0 01-.095.604c-.05.181-.142.349-.27.49m-3.87 7.367l-4.744-1.966 4.744-1.916v3.882zm-7.166-9.478v-.43c.001-.276.068-.547.196-.788a.858.858 0 01.171-.24.55.55 0 01.245-.139c.134-.036.27-.058.408-.064h7.745c.426-.048.857.023 1.248.206.29.256.442.645.408 1.042V76H110v-4.987h-.298v.43c0 .277-.07.549-.204.788a1.074 1.074 0 01-.175.25.574.574 0 01-.245.137c-.136.03-.276.045-.416.043h-7.717a2.255 2.255 0 01-1.256-.194 1.25 1.25 0 01-.408-1.037V71H99v4.983h.281zm1.05-15.415c-.234.175-.44.382-.612.614-.173.23-.31.481-.409.747a6.53 6.53 0 00-.306 2.22v3.843h.274v-.389a1.095 1.095 0 01.359-.894c.172-.14.604-.21 1.29-.21h7.125a2.78 2.78 0 011.193.155.88.88 0 01.343.39c.078.18.117.372.114.567V68H110v-4.492h-.298v.389c.025.333-.107.66-.36.89-.167.145-.596.215-1.29.215h-3.205a7.974 7.974 0 00.229-1.762c.006-.467-.07-.93-.225-1.373a2.862 2.862 0 00-.625-1.019 2.67 2.67 0 00-.96-.63 3.355 3.355 0 00-1.224-.218 2.74 2.74 0 00-.927.18c-.28.09-.545.22-.784.388m2.81 1.357c.272.099.524.244.742.428.207.175.373.388.49.626.117.244.176.51.172.778-.002.18-.015.359-.04.537-.025.206-.066.45-.12.727h-4.58a4.993 4.993 0 01-.119-.564 3.16 3.16 0 01-.037-.451c-.003-.3.056-.6.172-.879.11-.267.28-.507.498-.704a2.28 2.28 0 01.817-.474 3.176 3.176 0 011.073-.168c.32-.004.64.05.94.156m4.986-14.049c.224.158.434.34.624.542.118.128.226.265.323.411.085.133.15.28.191.434.052.194.084.392.098.593.02.23.029.512.029.867v1.98c.002.135-.006.27-.024.403a.907.907 0 01-.07.255.432.432 0 01-.106.152.94.94 0 01-.139.087 3.412 3.412 0 01-.894.07h-3.628v-2.575a4.64 4.64 0 01.049-.64c.023-.157.064-.31.122-.456.047-.114.112-.22.192-.312a.983.983 0 01.257-.195c.117-.057.24-.098.368-.121.171-.039.408-.082.66-.121v-.32h-3.836v.32c.24.012.48.047.714.104.185.044.357.138.498.273.14.152.242.34.294.546a3.7 3.7 0 01.09.91v2.569H99.6v-3.198c-.02-.408.022-.818.122-1.213a2.04 2.04 0 01.196-.373c.083-.109.184-.201.298-.273a2.06 2.06 0 01.47-.216 8.74 8.74 0 01.722-.19v-.204H99V57h.282v-.412a1.391 1.391 0 01.326-1.035c.168-.147.596-.225 1.29-.225h7.163c.358-.022.717.013 1.066.104a.604.604 0 01.253.182c.074.086.136.184.183.29a1.4 1.4 0 01.106.338c.02.114.032.23.033.346V57H110v-9l-2.76-1v.347c.31.16.61.344.895.55M99.281 44v-.412a1.7 1.7 0 01.196-.795.962.962 0 01.171-.247.593.593 0 01.245-.139 1.82 1.82 0 01.408-.06c.163 0 .371-.022.632-.022h7.113a2.31 2.31 0 011.248.208c.29.26.442.653.408 1.055V44H110v-5h-.298v.434c0 .274-.067.544-.196.781a.997.997 0 01-.175.252.538.538 0 01-.245.143 2.06 2.06 0 01-.407.065h-7.733c-.43.05-.865-.026-1.257-.221a1.257 1.257 0 01-.408-1.02V39H99v5h.281zM118 46.017h5.3v.856h-.38a2.684 2.684 0 00-1.088.137.454.454 0 00-.23.427c.024.219.083.431.174.63l.064.213 3.234 10.532 2.83-9.72c-.332-1.111-.586-1.757-.76-1.946a1.42 1.42 0 00-1.04-.282h-.961v-.855h6.597v.855h-.667a2.83 2.83 0 00-1.156.15.5.5 0 00-.267.458c0 .145.023.29.069.427l3.246 10.904 2.7-9.41a3.7 3.7 0 00.162-1.057 1.608 1.608 0 00-.307-1.125 1.258 1.258 0 00-.97-.355h-.506V46H139v.856c-.371.04-.73.16-1.055.355-.27.172-.5.407-.671.688a5.99 5.99 0 00-.542 1.472L132.815 63h-.764l-3.638-12.187L124.904 63h-.727l-4.495-14.728a2.418 2.418 0 00-.607-1.143 1.71 1.71 0 00-1.075-.273v-.839zM141 46h7.106v.877h-1.303a1.195 1.195 0 00-.9.245 2.16 2.16 0 00-.208 1.2v5.26h7.558v-5.26a2.257 2.257 0 00-.196-1.213c-.13-.158-.434-.232-.92-.232h-1.212V46H158v.877h-1.303a1.336 1.336 0 00-.682.127.876.876 0 00-.317.438 4.161 4.161 0 00-.07 1.021v12.201c-.04.363.011.731.148 1.07.273.293.668.437 1.064.39h1.147V63h-7.071v-.877h1.212c.371.045.74-.108.973-.403.13-.367.18-.76.143-1.148v-5.899h-7.557v5.991a2.41 2.41 0 00.134 1.078c.244.279.607.42.973.381h1.303V63H141v-.877h1.355a.998.998 0 00.573-.149.876.876 0 00.313-.438 4.66 4.66 0 00.057-.977V48.288a2.209 2.209 0 00-.204-1.201 1.217 1.217 0 00-.908-.246H141V46z"/><path d="M157 46h7v.877h-1.186a1.456 1.456 0 00-1 .223 1.473 1.473 0 00-.21.947v12.845c-.04.337.025.68.183.969.256.206.57.3.883.262H164V63h-7v-.877h1.322c.313.046.63-.036.895-.232.174-.294.247-.649.206-.999V48.029c0-.486-.062-.789-.183-.907a1.574 1.574 0 00-1.054-.263h-1.167L157 46zm18.425 1.586l.932-1.428h.75l.06 5.939h-.726c-.424-1.814-1.054-3.138-1.889-3.972a3.953 3.953 0 00-2.876-1.264 3 3 0 00-2.222.868 2.921 2.921 0 00-.843 2.127c-.01.479.105.952.333 1.373.232.406.574.74.987.96.783.373 1.608.649 2.458.822 1.239.23 2.44.628 3.572 1.183.64.361 1.169.89 1.53 1.529.35.666.524 1.41.506 2.16a5.08 5.08 0 01-1.391 3.66 4.755 4.755 0 01-3.597 1.454 5.852 5.852 0 01-4.116-1.626l-1.168 1.512H167v-6.318h.725a7.363 7.363 0 001.944 4.136 4.713 4.713 0 003.407 1.517 3.376 3.376 0 002.505-.965 3.195 3.195 0 00.966-2.35 2.575 2.575 0 00-.359-1.373 2.79 2.79 0 00-1.15-.994 17.27 17.27 0 00-3.083-.998c-1.687-.421-2.847-.902-3.458-1.432a4.007 4.007 0 01-1.299-3.201 4.937 4.937 0 011.29-3.526 4.325 4.325 0 013.302-1.377 4.766 4.766 0 011.835.362 6.482 6.482 0 011.8 1.21"/><path d="M176 46h7.446v.876h-1.582a1.072 1.072 0 00-.78.271.94.94 0 00-.277.7v7.881l6.148-6.8c.307-.295.496-.696.53-1.124a.773.773 0 00-.361-.657 2.128 2.128 0 00-1.182-.25h-.431v-.875h6.657v.876h-.517a3.281 3.281 0 00-1.48.411 5.45 5.45 0 00-1.487 1.147l-3.768 4.063 5.402 8.318c.235.398.555.738.936.994.35.2.746.3 1.147.289H193v.876h-7.355v-.876h.836a2.96 2.96 0 001.22-.162c.199-.105.302-.236.302-.398a.885.885 0 00-.13-.438l-4.475-6.874-2.586 2.846v4.181a.697.697 0 00.22.574c.24.186.534.283.836.275h1.582V63H176v-.876h1.44c.292.023.583-.06.82-.236a.772.772 0 00.262-.613V47.703a.735.735 0 00-.297-.626 1.703 1.703 0 00-1.005-.223H176V46zm18 0h7.014v.876h-.769a3.211 3.211 0 00-1.266.162.486.486 0 00-.296.438.985.985 0 00.152.539l4.07 6.746 2.957-5.765c.13-.255.196-.54.194-.828a1.26 1.26 0 00-.372-.95 1.44 1.44 0 00-1.047-.355h-.747V46H210v.876a3.07 3.07 0 00-1.664.39 3.86 3.86 0 00-1.178 1.467L203.48 55.9v5.374a.742.742 0 00.228.609c.277.18.603.265.93.24h1.376V63h-7.356v-.876h1.435c.298.029.597-.05.845-.223a.785.785 0 00.258-.627V56.04l-4.988-8.196a1.863 1.863 0 00-.755-.74 3.835 3.835 0 00-1.453-.237V46zm20 1h3.616v12.96H224V63h-10zm12 0h4v16h-4zm12.522 16L234 47h3.494l1.72 6.772c.477 1.926.915 3.73 1.253 5.723h.062c.357-1.921.796-3.81 1.277-5.646l1.801-6.84H247L242.272 63h-3.75zm19.804-6.764h-5.782v3.797H259V63h-10V47h9.672v2.967h-6.128v3.323h5.782zM118 67h141v1H118zm11.469 21.968a3.95 3.95 0 001.574-1.537c.332-.64.5-1.357.488-2.082a5.005 5.005 0 00-.281-1.665 3.334 3.334 0 00-.94-1.395 4.736 4.736 0 00-1.777-.94 9.546 9.546 0 00-2.781-.346H118v16.995h7.54a9.947 9.947 0 003.042-.416 5.564 5.564 0 001.997-1.095c.487-.43.862-.979 1.09-1.595a5.634 5.634 0 00.325-1.907c.092-1.756-.925-3.376-2.525-4.017m-6.658-4.097h2.07a1.96 1.96 0 011.326.333 1.49 1.49 0 010 1.907c-.39.265-.86.38-1.326.329h-2.07v-2.57zm3.79 8.83c-.28.271-.813.417-1.626.417h-2.164v-3.119h2.184c.813 0 1.326.138 1.627.417.29.314.437.738.407 1.17a1.52 1.52 0 01-.407 1.14M136.433 99a5.503 5.503 0 002.096-.376 5.58 5.58 0 001.697-1.117v1.166H145v-7.505a7.213 7.213 0 00-.296-2.12 3.758 3.758 0 00-1.006-1.63 4.766 4.766 0 00-1.849-1.048 9.465 9.465 0 00-2.864-.367c-1.834 0-3.272.338-4.314 1.015-1.056.698-1.743 1.787-1.887 2.992l4.738.326c.027-.298.18-.574.424-.766.245-.193.56-.285.878-.257.331-.024.657.088.894.306.225.286.33.64.295.995v.407l-1.51.045c-.812.023-1.621.1-2.421.233a7.848 7.848 0 00-2.018.652 3.802 3.802 0 00-1.502 1.288 3.537 3.537 0 00-.56 2.038 3.483 3.483 0 00.387 1.696c.24.448.583.84 1.002 1.15.42.305.902.53 1.415.66a6.175 6.175 0 001.614.212m.868-4.892c.41-.228.878-.345 1.354-.338l1.363-.074v.282a1.69 1.69 0 01-.556 1.317c-.381.332-.886.51-1.406.497a1.447 1.447 0 01-.868-.22.793.793 0 01-.3-.665.916.916 0 01.435-.815m21.123-3.655l.567-4.28a8.12 8.12 0 00-.58-.097 4.937 4.937 0 00-.748-.05 4.29 4.29 0 00-3.562 1.62v-1.4H149V99h5.247v-6.439a2.036 2.036 0 01.834-1.837 2.52 2.52 0 01.971-.364 6.59 6.59 0 011.753-.025l.623.097m19.563 2.714a5.229 5.229 0 00-.326-1.91 3.947 3.947 0 00-1.047-1.473 6.247 6.247 0 00-1.858-1.117 16.28 16.28 0 00-2.781-.806l-2.417-.479a3.22 3.22 0 01-1.294-.457.801.801 0 01-.339-.672.933.933 0 01.44-.79c.452-.243.97-.351 1.488-.31.516-.032 1.03.09 1.47.349.401.327.665.782.744 1.28l5.56-.479a5.716 5.716 0 00-.564-2.044 5.055 5.055 0 00-1.395-1.68 6.687 6.687 0 00-2.316-1.137 11.823 11.823 0 00-3.305-.42 13.004 13.004 0 00-3.183.357 6.907 6.907 0 00-2.416 1.083 4.965 4.965 0 00-1.536 1.763 5.149 5.149 0 00-.542 2.41 4.316 4.316 0 001.422 3.384c.948.84 2.47 1.464 4.569 1.872l2.438.458c.458.06.894.225 1.272.478a.957.957 0 01.34.769 1.07 1.07 0 01-.49.948 2.912 2.912 0 01-1.549.324 3.134 3.134 0 01-1.95-.504 2.214 2.214 0 01-.792-1.465H162c.049.88.257 1.745.616 2.556a5.196 5.196 0 001.497 1.931c.72.563 1.555.976 2.452 1.214 1.126.296 2.29.438 3.46.42 2.614 0 4.597-.509 5.95-1.524 1.353-1.016 2.028-2.452 2.025-4.308m15 4.821v-8.471c0-1.443-.38-2.553-1.14-3.33a4.201 4.201 0 00-3.122-1.153 4.542 4.542 0 00-2.03.416 5.124 5.124 0 00-1.47 1.107V81H180v16.988h5.234v-7.306a2.094 2.094 0 01.06-.558 1.31 1.31 0 01.159-.345 1.22 1.22 0 01.527-.416 1.86 1.86 0 01.745-.142.97.97 0 01.762.296c.203.272.3.606.27.94V98l5.243-.012zm30.053-5.316l-1.583-6.551h-3.777l-1.542 6.771L214.846 86H210l3.377 13h4.642l1.514-6.65 1.61 6.65h4.476L229 86h-4.687zM202.553 86c-2.1 0-3.717.577-4.851 1.73-1.135 1.153-1.702 2.759-1.702 4.817 0 2.028.544 3.61 1.632 4.747 1.088 1.137 2.693 1.706 4.815 1.706 2.114 0 3.735-.577 4.864-1.73s1.692-2.759 1.689-4.817c0-2.028-.544-3.61-1.632-4.747-1.088-1.137-2.693-1.706-4.815-1.706m2.04 4.873c-.028.18-.02.366-.037.553a32.409 32.409 0 01-.669 5.73c-.143.406-.767.581-1.301.622a1.965 1.965 0 01-1.477-.427c-.151-.162-.666-1.945-.784-5.95 0-.182 0-.365-.049-.54 0-.093-.061-.138-.057-.24.004-.1.163-.223.22-.332.109-.333.245-.657.408-.967.116-.142.266-.253.437-.32 0-.086.098-.18.106-.253.008-.073-.053-.097-.061-.182-.008-.086 0-.325.024-.508-.01-.16.003-.322.037-.48.086-.243.571-.32.898-.344.233-.013.467.01.693.069.196.044.437.105.494.264.039.151.06.306.065.463.012.169.012.338 0 .507a.267.267 0 010 .102c0 .024-.044.036-.036.069.008.032.073.166.106.252.098.073.192.097.277.162.335.264.388.78.596 1.158.057.101.196.19.212.3.017.11-.057.179-.07.264M274 100s-.537-7.995-1.24-11.185h-.248l.608-4.481-.901-.299.781-4.376-.781-.14.79-4.405-.79-.185.86-4.406-.86-.26.826-4.406-.826-.223.79-4.406-1.075-.185 1-4.33-1-.227 1.111-4.288-2.066-.98v-.788l-1.144-.42.574-3.762V44.48h-1.124v-1.578a.776.776 0 00-.496-.867V38h-.574v4.035a.767.767 0 00-.513.867v1.578h-1.107v1.772l.574 3.762-1.144.42v.787l-2.066.98.826 4.289-.719.227.715 4.326-.79.185.79 4.406-.826.223.826 4.405-.86.261.86 4.406-.79.185.79 4.406-.79.147.79 4.368-.897.299.608 4.481h-.252C263.529 92.013 263 100 263 100h11zm-38.725-13.974a10.012 10.012 0 00-1.787.085c-.03.043-.212.534-.398 1.085a1.844 1.844 0 00.281 1.68 7.744 7.744 0 001.6 1.234c.502.28.963.625 1.372 1.025.22.256.407 1.794.433 3.418.026 1.623-.182 3.144-.433 3.383a3.333 3.333 0 01-1.393.628c-.336.037-.66.144-.951.312.493.109 1 .146 1.505.111h3.028a5.254 5.254 0 001.501-.11 2.404 2.404 0 00-.947-.313 3.307 3.307 0 01-1.432-.645c-.247-.24-.433-1.764-.433-3.383 0-1.62.2-3.157.433-3.418a6.43 6.43 0 011.375-1.025 7.86 7.86 0 001.601-1.235c.36-.483.465-1.107.281-1.679-.19-.55-.367-1.042-.402-1.085a9.98 9.98 0 00-1.787-.085l-3.447.017zm12.698.992h-3.982a8.877 8.877 0 00-1.991.115v.58c.04.346.18.669.398.92.277.282.621.47.992.54.343.054.629.32.736.686.068.332.207.992.315 1.474.13.535.362 1.031.681 1.457.27.323.478 1.518.462 2.655-.016 1.138-.211 2.258-.426 2.492a3.122 3.122 0 01-1.147.655 2.12 2.12 0 00-.753.314c.453.083.912.11 1.37.085h2.744a5.81 5.81 0 001.37-.085 2.12 2.12 0 00-.753-.314 3.084 3.084 0 01-1.147-.655c-.219-.234-.398-1.354-.426-2.492-.028-1.137.191-2.332.462-2.655.319-.426.551-.922.681-1.457a96.9 96.9 0 00.315-1.474c.107-.365.39-.63.732-.686.372-.07.718-.257.996-.54a1.71 1.71 0 00.398-.92v-.585a8.87 8.87 0 00-1.991-.115"/><path d="M257.496 86.456l-.026.04-.294.257a37.05 37.05 0 00-1.88 1.778c-.45.467-.852 2.139-.892 3.711-.04 1.573 0 3.93.054 4.163.122.306.342.573.632.768a3.84 3.84 0 001.31.456c.446.067.798.174.798.237-.52.119-1.06.159-1.595.12h-3.195a5.407 5.407 0 01-1.595-.12c0-.063.357-.17.798-.237a3.837 3.837 0 001.31-.456c.29-.196.512-.463.637-.768.062-.234.089-2.586.053-4.163-.035-1.576-.445-3.244-.89-3.71a35.255 35.255 0 00-1.88-1.78 67.803 67.803 0 01-1.395-1.247 5.43 5.43 0 00-.446-.396 14.94 14.94 0 012.45-.095h6.97c.383 0 .606.04.579.063-.027.024-.25.242-.446.396-.058.06-.173.167-.316.294l-.784.697"/></g></g></svg>