<svg xmlns="http://www.w3.org/2000/svg" width="39" height="37" viewBox="0 0 39 37"><g transform="translate(-13 -14)" fill="none" fill-rule="evenodd"><circle cx="32.5" cy="32.5" r="32.5" stroke="#FFF"/><path d="M32.5 14C21.75 14 13 21.075 13 29.77c0 7.788 6.939 14.313 16.307 15.554.635.133 1.5.418 1.72.955.194.488.127 1.24.06 1.749l-.266 1.65c-.073.488-.39 1.92 1.705 1.045 2.098-.872 11.239-6.603 15.333-11.292C50.661 36.374 52 33.242 52 29.77 52 21.074 43.25 14 32.5 14zm-7.633 20.94H20.99c-.56 0-1.024-.46-1.024-1.017v-7.724c0-.558.463-1.02 1.024-1.02.566 0 1.024.462 1.024 1.02v6.704h2.853a1.02 1.02 0 011.022 1.02c0 .556-.458 1.018-1.022 1.018zm4.008-1.017c0 .556-.459 1.018-1.026 1.018-.56 0-1.019-.462-1.019-1.018v-7.724c0-.558.459-1.02 1.024-1.02.562 0 1.02.462 1.02 1.02v7.724zm9.329 0a1.02 1.02 0 01-1.026 1.015c-.343 0-.635-.147-.828-.406l-3.97-5.37v4.759a1.022 1.022 0 01-2.043 0v-7.722a1.016 1.016 0 011.014-1.017c.317 0 .61.17.805.412l4 5.391v-4.786c0-.558.459-1.02 1.024-1.02.56 0 1.024.462 1.024 1.02v7.724zm6.264-4.883c.567 0 1.024.462 1.024 1.022 0 .558-.457 1.02-1.024 1.02h-2.852v1.82h2.852c.567 0 1.024.46 1.024 1.02 0 .557-.457 1.019-1.024 1.019h-3.877c-.56 0-1.019-.462-1.019-1.018v-7.724c0-.558.458-1.02 1.024-1.02h3.877a1.02 1.02 0 11-.005 2.04h-2.852v1.821h2.852z" fill="#FFF" fill-rule="nonzero"/></g></svg>