<svg xmlns="http://www.w3.org/2000/svg" width="17" height="31" viewBox="0 0 17 31"><defs><filter id="a"><feColorMatrix in="SourceGraphic" values="0 0 0 0 1.000000 0 0 0 0 1.000000 0 0 0 0 1.000000 0 0 0 1.000000 0"/></filter></defs><g filter="url(#a)" transform="translate(-414 -25)" fill="none" fill-rule="evenodd"><g fill-rule="nonzero"><path fill="#FFC107" d="M415.69 26.623l13.304 13.886-13.304 13.886a.672.672 0 00.015.922.606.606 0 00.868 0l13.743-14.348a.672.672 0 000-.922l-13.742-14.348c-.24-.259-.635-.266-.883-.016s-.255.663-.016.922l.016.016v.002z"/><path fill="#000" d="M430.5 40.507c0 .173-.065.34-.182.462l-13.743 14.348a.606.606 0 01-.883-.016.672.672 0 010-.906l13.3-13.888-13.301-13.886a.673.673 0 01-.016-.922.607.607 0 01.884-.016l.015.016 13.742 14.348a.663.663 0 01.184.46z"/></g></g></svg>