<svg version="1.1" id="Layer_1" xmlns="http://www.w3.org/2000/svg" x="0" y="0" viewBox="0 0 512 512" xml:space="preserve"><style>.st0{fill:#fff}</style><path class="st0" d="M405.3 257c-11.8 0-21.3 9.6-21.3 21.3V449c0 11.8-9.6 21.3-21.3 21.3H64c-11.8 0-21.3-9.6-21.3-21.3V150.3c0-11.8 9.6-21.3 21.3-21.3h170.7c11.8 0 21.3-9.6 21.3-21.3 0-11.8-9.5-21.3-21.3-21.3H64c-35.3 0-64 28.7-64 64V449c0 35.3 28.7 64 64 64h298.7c35.3 0 64-28.7 64-64V278.3c0-11.8-9.6-21.3-21.4-21.3z"/><path class="st0" d="M200 237.6c-1.5 1.5-2.5 3.4-2.9 5.4L182 318.4c-.7 3.5.4 7.1 2.9 9.6 2 2 4.8 3.1 7.6 3.1.7 0 1.4-.1 2.1-.2l75.4-15.1c2.1-.4 4-1.4 5.5-2.9l168.8-168.8-75.4-75.4L200 237.6zm296.4-221c-20.8-20.8-54.6-20.8-75.4 0l-29.5 29.5 75.4 75.4L496.4 92C506.5 82 512 68.6 512 54.3s-5.5-27.6-15.6-37.7z"/></svg>