<svg width="50" height="50" viewBox="0 0 50 50" xmlns="http://www.w3.org/2000/svg"><g fill="none"><path d="M48.105 21.001L27.636 21c-.903 0-1.636.73-1.636 1.631v6.519c0 .9.733 1.63 1.636 1.63h11.527a15.353 15.353 0 01-6.623 7.738L37.455 47C45.339 42.455 50 34.479 50 25.551c0-1.271-.094-2.18-.282-3.203A1.642 1.642 0 0048.105 21z" fill="#167EE6"/><path d="M24.551 40.441c-5.597 0-10.484-3-13.109-7.441L3 37.774C7.296 45.08 15.345 50 24.551 50c4.516 0 8.778-1.193 12.449-3.272v-.012l-4.877-8.283a15.263 15.263 0 01-7.572 2.008z" fill="#12B347"/><path d="M37 46.605v-.011L32.299 38c-2.15 1.317-4.639 2.084-7.299 2.084V50c4.353 0 8.462-1.238 12-3.395z" fill="#0F993E"/><path d="M9.917 25.5c0-2.773.766-5.367 2.083-7.61L3.407 13A24.525 24.525 0 000 25.5c0 4.55 1.238 8.822 3.407 12.5L12 33.11a14.973 14.973 0 01-2.083-7.61z" fill="#FFD500"/><path d="M24.875 9.559c3.705 0 7.108 1.273 9.766 3.39a1.684 1.684 0 002.21-.097l4.667-4.51a1.57 1.57 0 00-.096-2.348A25.707 25.707 0 0024.875 0C15.53 0 7.361 4.92 3 12.226L11.57 17c2.663-4.44 7.623-7.441 13.305-7.441z" fill="#FF4B26"/><path d="M34.695 13.614c.651.55 1.598.51 2.194-.101L41.52 8.77a1.715 1.715 0 00-.094-2.468C37.006 2.375 31.253 0 25 0v10.05c3.678 0 7.056 1.339 9.695 3.564z" fill="#D93F21"/></g></svg>