<svg xmlns="http://www.w3.org/2000/svg" width="40" height="40" viewBox="0 0 40 40"><defs><filter id="a"><feColorMatrix in="SourceGraphic" values="0 0 0 0 1.000000 0 0 0 0 1.000000 0 0 0 0 1.000000 0 0 0 1.000000 0"/></filter></defs><g fill="none" fill-rule="evenodd" transform="translate(-13 -12)"><circle cx="32.5" cy="32.5" r="32.5" stroke="#FFF"/><g filter="url(#a)"><g fill="#000" fill-rule="nonzero" transform="translate(13 12)"><path d="M39 19l-3.077-5H31v5zM9 14H4.077L1 19h8zm16.729-9.145h-4.555v-2.48h1.774V0h-4.122v4.855h-4.555L11 10h18zM0 21v19h8V21H0zm5.07 13.245H2.906v-3.468h2.162v3.468zm-2.163-5.834v-3.469h2.162v3.47H2.907zM32 40h8V21h-8v19zm2.93-15.058h2.163v3.47h-2.162v-3.47zm2.163 5.835v3.468h-2.162v-3.468h2.162zM20.5 32c-.827 0-1.5.775-1.5 1.727V40h3v-6.273c0-.952-.673-1.727-1.5-1.727z"/><path d="M11 12v28h5.087v-5.72c0-2.171 1.755-3.937 3.913-3.937s3.913 1.766 3.913 3.937V40H29V12H11zm5.87 16.034h-2.348V24.57h2.347v3.464zm4.304 0h-2.348V24.57h2.348v3.464zM20 21.526c-1.77 0-3.209-1.448-3.209-3.228 0-1.78 1.44-3.228 3.209-3.228 1.77 0 3.209 1.448 3.209 3.228 0 1.78-1.44 3.228-3.209 3.228zm5.478 6.508h-2.347V24.57h2.347v3.464z"/><circle cx="20" cy="18" r="1"/></g></g></g></svg>